%TF.GenerationSoftware,KiCad,Pcbnew,9.0.1*%
%TF.CreationDate,2025-05-20T14:35:32+01:00*%
%TF.ProjectId,DST,4453542e-6b69-4636-9164-5f7063625858,rev?*%
%TF.SameCoordinates,Original*%
%TF.FileFunction,Drillmap*%
%TF.FilePolarity,Positive*%
%FSLAX45Y45*%
G04 Gerber Fmt 4.5, Leading zero omitted, Abs format (unit mm)*
G04 Created by KiCad (PCBNEW 9.0.1) date 2025-05-20 14:35:32*
%MOMM*%
%LPD*%
G01*
G04 APERTURE LIST*
%ADD10C,0.050000*%
%ADD11C,0.200000*%
%ADD12C,0.300000*%
G04 APERTURE END LIST*
D10*
X9420000Y-4980000D02*
X25270000Y-4980000D01*
X25270000Y-13305000D01*
X9420000Y-13305000D01*
X9420000Y-4980000D01*
D11*
D12*
X9640000Y-5280000D02*
X9940000Y-5580000D01*
X9940000Y-5280000D02*
X9640000Y-5580000D01*
X9640000Y-12780000D02*
X9940000Y-13080000D01*
X9940000Y-12780000D02*
X9640000Y-13080000D01*
X24730000Y-5280000D02*
X25030000Y-5580000D01*
X25030000Y-5280000D02*
X24730000Y-5580000D01*
X24730000Y-12780000D02*
X25030000Y-13080000D01*
X25030000Y-12780000D02*
X24730000Y-13080000D01*
D11*
X9678277Y-13618984D02*
X9678277Y-13418984D01*
X9678277Y-13418984D02*
X9725896Y-13418984D01*
X9725896Y-13418984D02*
X9754467Y-13428508D01*
X9754467Y-13428508D02*
X9773515Y-13447555D01*
X9773515Y-13447555D02*
X9783039Y-13466603D01*
X9783039Y-13466603D02*
X9792563Y-13504698D01*
X9792563Y-13504698D02*
X9792563Y-13533269D01*
X9792563Y-13533269D02*
X9783039Y-13571365D01*
X9783039Y-13571365D02*
X9773515Y-13590412D01*
X9773515Y-13590412D02*
X9754467Y-13609460D01*
X9754467Y-13609460D02*
X9725896Y-13618984D01*
X9725896Y-13618984D02*
X9678277Y-13618984D01*
X9878277Y-13618984D02*
X9878277Y-13485650D01*
X9878277Y-13523746D02*
X9887801Y-13504698D01*
X9887801Y-13504698D02*
X9897324Y-13495174D01*
X9897324Y-13495174D02*
X9916372Y-13485650D01*
X9916372Y-13485650D02*
X9935420Y-13485650D01*
X10002086Y-13618984D02*
X10002086Y-13485650D01*
X10002086Y-13418984D02*
X9992563Y-13428508D01*
X9992563Y-13428508D02*
X10002086Y-13438031D01*
X10002086Y-13438031D02*
X10011610Y-13428508D01*
X10011610Y-13428508D02*
X10002086Y-13418984D01*
X10002086Y-13418984D02*
X10002086Y-13438031D01*
X10125896Y-13618984D02*
X10106848Y-13609460D01*
X10106848Y-13609460D02*
X10097324Y-13590412D01*
X10097324Y-13590412D02*
X10097324Y-13418984D01*
X10230658Y-13618984D02*
X10211610Y-13609460D01*
X10211610Y-13609460D02*
X10202086Y-13590412D01*
X10202086Y-13590412D02*
X10202086Y-13418984D01*
X10459229Y-13618984D02*
X10459229Y-13418984D01*
X10459229Y-13418984D02*
X10525896Y-13561841D01*
X10525896Y-13561841D02*
X10592563Y-13418984D01*
X10592563Y-13418984D02*
X10592563Y-13618984D01*
X10773515Y-13618984D02*
X10773515Y-13514222D01*
X10773515Y-13514222D02*
X10763991Y-13495174D01*
X10763991Y-13495174D02*
X10744944Y-13485650D01*
X10744944Y-13485650D02*
X10706848Y-13485650D01*
X10706848Y-13485650D02*
X10687801Y-13495174D01*
X10773515Y-13609460D02*
X10754467Y-13618984D01*
X10754467Y-13618984D02*
X10706848Y-13618984D01*
X10706848Y-13618984D02*
X10687801Y-13609460D01*
X10687801Y-13609460D02*
X10678277Y-13590412D01*
X10678277Y-13590412D02*
X10678277Y-13571365D01*
X10678277Y-13571365D02*
X10687801Y-13552317D01*
X10687801Y-13552317D02*
X10706848Y-13542793D01*
X10706848Y-13542793D02*
X10754467Y-13542793D01*
X10754467Y-13542793D02*
X10773515Y-13533269D01*
X10868753Y-13485650D02*
X10868753Y-13685650D01*
X10868753Y-13495174D02*
X10887801Y-13485650D01*
X10887801Y-13485650D02*
X10925896Y-13485650D01*
X10925896Y-13485650D02*
X10944944Y-13495174D01*
X10944944Y-13495174D02*
X10954467Y-13504698D01*
X10954467Y-13504698D02*
X10963991Y-13523746D01*
X10963991Y-13523746D02*
X10963991Y-13580888D01*
X10963991Y-13580888D02*
X10954467Y-13599936D01*
X10954467Y-13599936D02*
X10944944Y-13609460D01*
X10944944Y-13609460D02*
X10925896Y-13618984D01*
X10925896Y-13618984D02*
X10887801Y-13618984D01*
X10887801Y-13618984D02*
X10868753Y-13609460D01*
X11049705Y-13599936D02*
X11059229Y-13609460D01*
X11059229Y-13609460D02*
X11049705Y-13618984D01*
X11049705Y-13618984D02*
X11040182Y-13609460D01*
X11040182Y-13609460D02*
X11049705Y-13599936D01*
X11049705Y-13599936D02*
X11049705Y-13618984D01*
X11049705Y-13495174D02*
X11059229Y-13504698D01*
X11059229Y-13504698D02*
X11049705Y-13514222D01*
X11049705Y-13514222D02*
X11040182Y-13504698D01*
X11040182Y-13504698D02*
X11049705Y-13495174D01*
X11049705Y-13495174D02*
X11049705Y-13514222D01*
X9217500Y-13847500D02*
X9417500Y-14047500D01*
X9417500Y-13847500D02*
X9217500Y-14047500D01*
X9659229Y-13838984D02*
X9783039Y-13838984D01*
X9783039Y-13838984D02*
X9716372Y-13915174D01*
X9716372Y-13915174D02*
X9744944Y-13915174D01*
X9744944Y-13915174D02*
X9763991Y-13924698D01*
X9763991Y-13924698D02*
X9773515Y-13934222D01*
X9773515Y-13934222D02*
X9783039Y-13953269D01*
X9783039Y-13953269D02*
X9783039Y-14000888D01*
X9783039Y-14000888D02*
X9773515Y-14019936D01*
X9773515Y-14019936D02*
X9763991Y-14029460D01*
X9763991Y-14029460D02*
X9744944Y-14038984D01*
X9744944Y-14038984D02*
X9687801Y-14038984D01*
X9687801Y-14038984D02*
X9668753Y-14029460D01*
X9668753Y-14029460D02*
X9659229Y-14019936D01*
X9868753Y-14019936D02*
X9878277Y-14029460D01*
X9878277Y-14029460D02*
X9868753Y-14038984D01*
X9868753Y-14038984D02*
X9859229Y-14029460D01*
X9859229Y-14029460D02*
X9868753Y-14019936D01*
X9868753Y-14019936D02*
X9868753Y-14038984D01*
X10002086Y-13838984D02*
X10021134Y-13838984D01*
X10021134Y-13838984D02*
X10040182Y-13848508D01*
X10040182Y-13848508D02*
X10049705Y-13858031D01*
X10049705Y-13858031D02*
X10059229Y-13877079D01*
X10059229Y-13877079D02*
X10068753Y-13915174D01*
X10068753Y-13915174D02*
X10068753Y-13962793D01*
X10068753Y-13962793D02*
X10059229Y-14000888D01*
X10059229Y-14000888D02*
X10049705Y-14019936D01*
X10049705Y-14019936D02*
X10040182Y-14029460D01*
X10040182Y-14029460D02*
X10021134Y-14038984D01*
X10021134Y-14038984D02*
X10002086Y-14038984D01*
X10002086Y-14038984D02*
X9983039Y-14029460D01*
X9983039Y-14029460D02*
X9973515Y-14019936D01*
X9973515Y-14019936D02*
X9963991Y-14000888D01*
X9963991Y-14000888D02*
X9954467Y-13962793D01*
X9954467Y-13962793D02*
X9954467Y-13915174D01*
X9954467Y-13915174D02*
X9963991Y-13877079D01*
X9963991Y-13877079D02*
X9973515Y-13858031D01*
X9973515Y-13858031D02*
X9983039Y-13848508D01*
X9983039Y-13848508D02*
X10002086Y-13838984D01*
X10192563Y-13838984D02*
X10211610Y-13838984D01*
X10211610Y-13838984D02*
X10230658Y-13848508D01*
X10230658Y-13848508D02*
X10240182Y-13858031D01*
X10240182Y-13858031D02*
X10249705Y-13877079D01*
X10249705Y-13877079D02*
X10259229Y-13915174D01*
X10259229Y-13915174D02*
X10259229Y-13962793D01*
X10259229Y-13962793D02*
X10249705Y-14000888D01*
X10249705Y-14000888D02*
X10240182Y-14019936D01*
X10240182Y-14019936D02*
X10230658Y-14029460D01*
X10230658Y-14029460D02*
X10211610Y-14038984D01*
X10211610Y-14038984D02*
X10192563Y-14038984D01*
X10192563Y-14038984D02*
X10173515Y-14029460D01*
X10173515Y-14029460D02*
X10163991Y-14019936D01*
X10163991Y-14019936D02*
X10154467Y-14000888D01*
X10154467Y-14000888D02*
X10144944Y-13962793D01*
X10144944Y-13962793D02*
X10144944Y-13915174D01*
X10144944Y-13915174D02*
X10154467Y-13877079D01*
X10154467Y-13877079D02*
X10163991Y-13858031D01*
X10163991Y-13858031D02*
X10173515Y-13848508D01*
X10173515Y-13848508D02*
X10192563Y-13838984D01*
X10383039Y-13838984D02*
X10402086Y-13838984D01*
X10402086Y-13838984D02*
X10421134Y-13848508D01*
X10421134Y-13848508D02*
X10430658Y-13858031D01*
X10430658Y-13858031D02*
X10440182Y-13877079D01*
X10440182Y-13877079D02*
X10449705Y-13915174D01*
X10449705Y-13915174D02*
X10449705Y-13962793D01*
X10449705Y-13962793D02*
X10440182Y-14000888D01*
X10440182Y-14000888D02*
X10430658Y-14019936D01*
X10430658Y-14019936D02*
X10421134Y-14029460D01*
X10421134Y-14029460D02*
X10402086Y-14038984D01*
X10402086Y-14038984D02*
X10383039Y-14038984D01*
X10383039Y-14038984D02*
X10363991Y-14029460D01*
X10363991Y-14029460D02*
X10354467Y-14019936D01*
X10354467Y-14019936D02*
X10344944Y-14000888D01*
X10344944Y-14000888D02*
X10335420Y-13962793D01*
X10335420Y-13962793D02*
X10335420Y-13915174D01*
X10335420Y-13915174D02*
X10344944Y-13877079D01*
X10344944Y-13877079D02*
X10354467Y-13858031D01*
X10354467Y-13858031D02*
X10363991Y-13848508D01*
X10363991Y-13848508D02*
X10383039Y-13838984D01*
X10535420Y-14038984D02*
X10535420Y-13905650D01*
X10535420Y-13924698D02*
X10544944Y-13915174D01*
X10544944Y-13915174D02*
X10563991Y-13905650D01*
X10563991Y-13905650D02*
X10592563Y-13905650D01*
X10592563Y-13905650D02*
X10611610Y-13915174D01*
X10611610Y-13915174D02*
X10621134Y-13934222D01*
X10621134Y-13934222D02*
X10621134Y-14038984D01*
X10621134Y-13934222D02*
X10630658Y-13915174D01*
X10630658Y-13915174D02*
X10649705Y-13905650D01*
X10649705Y-13905650D02*
X10678277Y-13905650D01*
X10678277Y-13905650D02*
X10697325Y-13915174D01*
X10697325Y-13915174D02*
X10706848Y-13934222D01*
X10706848Y-13934222D02*
X10706848Y-14038984D01*
X10802086Y-14038984D02*
X10802086Y-13905650D01*
X10802086Y-13924698D02*
X10811610Y-13915174D01*
X10811610Y-13915174D02*
X10830658Y-13905650D01*
X10830658Y-13905650D02*
X10859229Y-13905650D01*
X10859229Y-13905650D02*
X10878277Y-13915174D01*
X10878277Y-13915174D02*
X10887801Y-13934222D01*
X10887801Y-13934222D02*
X10887801Y-14038984D01*
X10887801Y-13934222D02*
X10897325Y-13915174D01*
X10897325Y-13915174D02*
X10916372Y-13905650D01*
X10916372Y-13905650D02*
X10944944Y-13905650D01*
X10944944Y-13905650D02*
X10963991Y-13915174D01*
X10963991Y-13915174D02*
X10973515Y-13934222D01*
X10973515Y-13934222D02*
X10973515Y-14038984D01*
X11363991Y-13829460D02*
X11192563Y-14086603D01*
X11621134Y-13838984D02*
X11640182Y-13838984D01*
X11640182Y-13838984D02*
X11659229Y-13848508D01*
X11659229Y-13848508D02*
X11668753Y-13858031D01*
X11668753Y-13858031D02*
X11678277Y-13877079D01*
X11678277Y-13877079D02*
X11687801Y-13915174D01*
X11687801Y-13915174D02*
X11687801Y-13962793D01*
X11687801Y-13962793D02*
X11678277Y-14000888D01*
X11678277Y-14000888D02*
X11668753Y-14019936D01*
X11668753Y-14019936D02*
X11659229Y-14029460D01*
X11659229Y-14029460D02*
X11640182Y-14038984D01*
X11640182Y-14038984D02*
X11621134Y-14038984D01*
X11621134Y-14038984D02*
X11602086Y-14029460D01*
X11602086Y-14029460D02*
X11592563Y-14019936D01*
X11592563Y-14019936D02*
X11583039Y-14000888D01*
X11583039Y-14000888D02*
X11573515Y-13962793D01*
X11573515Y-13962793D02*
X11573515Y-13915174D01*
X11573515Y-13915174D02*
X11583039Y-13877079D01*
X11583039Y-13877079D02*
X11592563Y-13858031D01*
X11592563Y-13858031D02*
X11602086Y-13848508D01*
X11602086Y-13848508D02*
X11621134Y-13838984D01*
X11773515Y-14019936D02*
X11783039Y-14029460D01*
X11783039Y-14029460D02*
X11773515Y-14038984D01*
X11773515Y-14038984D02*
X11763991Y-14029460D01*
X11763991Y-14029460D02*
X11773515Y-14019936D01*
X11773515Y-14019936D02*
X11773515Y-14038984D01*
X11973515Y-14038984D02*
X11859229Y-14038984D01*
X11916372Y-14038984D02*
X11916372Y-13838984D01*
X11916372Y-13838984D02*
X11897325Y-13867555D01*
X11897325Y-13867555D02*
X11878277Y-13886603D01*
X11878277Y-13886603D02*
X11859229Y-13896127D01*
X12163991Y-14038984D02*
X12049706Y-14038984D01*
X12106848Y-14038984D02*
X12106848Y-13838984D01*
X12106848Y-13838984D02*
X12087801Y-13867555D01*
X12087801Y-13867555D02*
X12068753Y-13886603D01*
X12068753Y-13886603D02*
X12049706Y-13896127D01*
X12278277Y-13924698D02*
X12259229Y-13915174D01*
X12259229Y-13915174D02*
X12249706Y-13905650D01*
X12249706Y-13905650D02*
X12240182Y-13886603D01*
X12240182Y-13886603D02*
X12240182Y-13877079D01*
X12240182Y-13877079D02*
X12249706Y-13858031D01*
X12249706Y-13858031D02*
X12259229Y-13848508D01*
X12259229Y-13848508D02*
X12278277Y-13838984D01*
X12278277Y-13838984D02*
X12316372Y-13838984D01*
X12316372Y-13838984D02*
X12335420Y-13848508D01*
X12335420Y-13848508D02*
X12344944Y-13858031D01*
X12344944Y-13858031D02*
X12354467Y-13877079D01*
X12354467Y-13877079D02*
X12354467Y-13886603D01*
X12354467Y-13886603D02*
X12344944Y-13905650D01*
X12344944Y-13905650D02*
X12335420Y-13915174D01*
X12335420Y-13915174D02*
X12316372Y-13924698D01*
X12316372Y-13924698D02*
X12278277Y-13924698D01*
X12278277Y-13924698D02*
X12259229Y-13934222D01*
X12259229Y-13934222D02*
X12249706Y-13943746D01*
X12249706Y-13943746D02*
X12240182Y-13962793D01*
X12240182Y-13962793D02*
X12240182Y-14000888D01*
X12240182Y-14000888D02*
X12249706Y-14019936D01*
X12249706Y-14019936D02*
X12259229Y-14029460D01*
X12259229Y-14029460D02*
X12278277Y-14038984D01*
X12278277Y-14038984D02*
X12316372Y-14038984D01*
X12316372Y-14038984D02*
X12335420Y-14029460D01*
X12335420Y-14029460D02*
X12344944Y-14019936D01*
X12344944Y-14019936D02*
X12354467Y-14000888D01*
X12354467Y-14000888D02*
X12354467Y-13962793D01*
X12354467Y-13962793D02*
X12344944Y-13943746D01*
X12344944Y-13943746D02*
X12335420Y-13934222D01*
X12335420Y-13934222D02*
X12316372Y-13924698D01*
X12544944Y-14038984D02*
X12430658Y-14038984D01*
X12487801Y-14038984D02*
X12487801Y-13838984D01*
X12487801Y-13838984D02*
X12468753Y-13867555D01*
X12468753Y-13867555D02*
X12449706Y-13886603D01*
X12449706Y-13886603D02*
X12430658Y-13896127D01*
X12621134Y-13838984D02*
X12621134Y-13877079D01*
X12697325Y-13838984D02*
X12697325Y-13877079D01*
X12992563Y-14115174D02*
X12983039Y-14105650D01*
X12983039Y-14105650D02*
X12963991Y-14077079D01*
X12963991Y-14077079D02*
X12954468Y-14058031D01*
X12954468Y-14058031D02*
X12944944Y-14029460D01*
X12944944Y-14029460D02*
X12935420Y-13981841D01*
X12935420Y-13981841D02*
X12935420Y-13943746D01*
X12935420Y-13943746D02*
X12944944Y-13896127D01*
X12944944Y-13896127D02*
X12954468Y-13867555D01*
X12954468Y-13867555D02*
X12963991Y-13848508D01*
X12963991Y-13848508D02*
X12983039Y-13819936D01*
X12983039Y-13819936D02*
X12992563Y-13810412D01*
X13154468Y-13905650D02*
X13154468Y-14038984D01*
X13106848Y-13829460D02*
X13059229Y-13972317D01*
X13059229Y-13972317D02*
X13183039Y-13972317D01*
X13411610Y-14038984D02*
X13411610Y-13838984D01*
X13497325Y-14038984D02*
X13497325Y-13934222D01*
X13497325Y-13934222D02*
X13487801Y-13915174D01*
X13487801Y-13915174D02*
X13468753Y-13905650D01*
X13468753Y-13905650D02*
X13440182Y-13905650D01*
X13440182Y-13905650D02*
X13421134Y-13915174D01*
X13421134Y-13915174D02*
X13411610Y-13924698D01*
X13621134Y-14038984D02*
X13602087Y-14029460D01*
X13602087Y-14029460D02*
X13592563Y-14019936D01*
X13592563Y-14019936D02*
X13583039Y-14000888D01*
X13583039Y-14000888D02*
X13583039Y-13943746D01*
X13583039Y-13943746D02*
X13592563Y-13924698D01*
X13592563Y-13924698D02*
X13602087Y-13915174D01*
X13602087Y-13915174D02*
X13621134Y-13905650D01*
X13621134Y-13905650D02*
X13649706Y-13905650D01*
X13649706Y-13905650D02*
X13668753Y-13915174D01*
X13668753Y-13915174D02*
X13678277Y-13924698D01*
X13678277Y-13924698D02*
X13687801Y-13943746D01*
X13687801Y-13943746D02*
X13687801Y-14000888D01*
X13687801Y-14000888D02*
X13678277Y-14019936D01*
X13678277Y-14019936D02*
X13668753Y-14029460D01*
X13668753Y-14029460D02*
X13649706Y-14038984D01*
X13649706Y-14038984D02*
X13621134Y-14038984D01*
X13802087Y-14038984D02*
X13783039Y-14029460D01*
X13783039Y-14029460D02*
X13773515Y-14010412D01*
X13773515Y-14010412D02*
X13773515Y-13838984D01*
X13954468Y-14029460D02*
X13935420Y-14038984D01*
X13935420Y-14038984D02*
X13897325Y-14038984D01*
X13897325Y-14038984D02*
X13878277Y-14029460D01*
X13878277Y-14029460D02*
X13868753Y-14010412D01*
X13868753Y-14010412D02*
X13868753Y-13934222D01*
X13868753Y-13934222D02*
X13878277Y-13915174D01*
X13878277Y-13915174D02*
X13897325Y-13905650D01*
X13897325Y-13905650D02*
X13935420Y-13905650D01*
X13935420Y-13905650D02*
X13954468Y-13915174D01*
X13954468Y-13915174D02*
X13963991Y-13934222D01*
X13963991Y-13934222D02*
X13963991Y-13953269D01*
X13963991Y-13953269D02*
X13868753Y-13972317D01*
X14040182Y-14029460D02*
X14059230Y-14038984D01*
X14059230Y-14038984D02*
X14097325Y-14038984D01*
X14097325Y-14038984D02*
X14116372Y-14029460D01*
X14116372Y-14029460D02*
X14125896Y-14010412D01*
X14125896Y-14010412D02*
X14125896Y-14000888D01*
X14125896Y-14000888D02*
X14116372Y-13981841D01*
X14116372Y-13981841D02*
X14097325Y-13972317D01*
X14097325Y-13972317D02*
X14068753Y-13972317D01*
X14068753Y-13972317D02*
X14049706Y-13962793D01*
X14049706Y-13962793D02*
X14040182Y-13943746D01*
X14040182Y-13943746D02*
X14040182Y-13934222D01*
X14040182Y-13934222D02*
X14049706Y-13915174D01*
X14049706Y-13915174D02*
X14068753Y-13905650D01*
X14068753Y-13905650D02*
X14097325Y-13905650D01*
X14097325Y-13905650D02*
X14116372Y-13915174D01*
X14192563Y-14115174D02*
X14202087Y-14105650D01*
X14202087Y-14105650D02*
X14221134Y-14077079D01*
X14221134Y-14077079D02*
X14230658Y-14058031D01*
X14230658Y-14058031D02*
X14240182Y-14029460D01*
X14240182Y-14029460D02*
X14249706Y-13981841D01*
X14249706Y-13981841D02*
X14249706Y-13943746D01*
X14249706Y-13943746D02*
X14240182Y-13896127D01*
X14240182Y-13896127D02*
X14230658Y-13867555D01*
X14230658Y-13867555D02*
X14221134Y-13848508D01*
X14221134Y-13848508D02*
X14202087Y-13819936D01*
X14202087Y-13819936D02*
X14192563Y-13810412D01*
X14554468Y-14115174D02*
X14544944Y-14105650D01*
X14544944Y-14105650D02*
X14525896Y-14077079D01*
X14525896Y-14077079D02*
X14516372Y-14058031D01*
X14516372Y-14058031D02*
X14506849Y-14029460D01*
X14506849Y-14029460D02*
X14497325Y-13981841D01*
X14497325Y-13981841D02*
X14497325Y-13943746D01*
X14497325Y-13943746D02*
X14506849Y-13896127D01*
X14506849Y-13896127D02*
X14516372Y-13867555D01*
X14516372Y-13867555D02*
X14525896Y-13848508D01*
X14525896Y-13848508D02*
X14544944Y-13819936D01*
X14544944Y-13819936D02*
X14554468Y-13810412D01*
X14630658Y-13905650D02*
X14630658Y-14038984D01*
X14630658Y-13924698D02*
X14640182Y-13915174D01*
X14640182Y-13915174D02*
X14659230Y-13905650D01*
X14659230Y-13905650D02*
X14687801Y-13905650D01*
X14687801Y-13905650D02*
X14706849Y-13915174D01*
X14706849Y-13915174D02*
X14716372Y-13934222D01*
X14716372Y-13934222D02*
X14716372Y-14038984D01*
X14840182Y-14038984D02*
X14821134Y-14029460D01*
X14821134Y-14029460D02*
X14811611Y-14019936D01*
X14811611Y-14019936D02*
X14802087Y-14000888D01*
X14802087Y-14000888D02*
X14802087Y-13943746D01*
X14802087Y-13943746D02*
X14811611Y-13924698D01*
X14811611Y-13924698D02*
X14821134Y-13915174D01*
X14821134Y-13915174D02*
X14840182Y-13905650D01*
X14840182Y-13905650D02*
X14868753Y-13905650D01*
X14868753Y-13905650D02*
X14887801Y-13915174D01*
X14887801Y-13915174D02*
X14897325Y-13924698D01*
X14897325Y-13924698D02*
X14906849Y-13943746D01*
X14906849Y-13943746D02*
X14906849Y-14000888D01*
X14906849Y-14000888D02*
X14897325Y-14019936D01*
X14897325Y-14019936D02*
X14887801Y-14029460D01*
X14887801Y-14029460D02*
X14868753Y-14038984D01*
X14868753Y-14038984D02*
X14840182Y-14038984D01*
X14963992Y-13905650D02*
X15040182Y-13905650D01*
X14992563Y-13838984D02*
X14992563Y-14010412D01*
X14992563Y-14010412D02*
X15002087Y-14029460D01*
X15002087Y-14029460D02*
X15021134Y-14038984D01*
X15021134Y-14038984D02*
X15040182Y-14038984D01*
X15259230Y-13905650D02*
X15259230Y-14105650D01*
X15259230Y-13915174D02*
X15278277Y-13905650D01*
X15278277Y-13905650D02*
X15316373Y-13905650D01*
X15316373Y-13905650D02*
X15335420Y-13915174D01*
X15335420Y-13915174D02*
X15344944Y-13924698D01*
X15344944Y-13924698D02*
X15354468Y-13943746D01*
X15354468Y-13943746D02*
X15354468Y-14000888D01*
X15354468Y-14000888D02*
X15344944Y-14019936D01*
X15344944Y-14019936D02*
X15335420Y-14029460D01*
X15335420Y-14029460D02*
X15316373Y-14038984D01*
X15316373Y-14038984D02*
X15278277Y-14038984D01*
X15278277Y-14038984D02*
X15259230Y-14029460D01*
X15468753Y-14038984D02*
X15449706Y-14029460D01*
X15449706Y-14029460D02*
X15440182Y-14010412D01*
X15440182Y-14010412D02*
X15440182Y-13838984D01*
X15630658Y-14038984D02*
X15630658Y-13934222D01*
X15630658Y-13934222D02*
X15621134Y-13915174D01*
X15621134Y-13915174D02*
X15602087Y-13905650D01*
X15602087Y-13905650D02*
X15563992Y-13905650D01*
X15563992Y-13905650D02*
X15544944Y-13915174D01*
X15630658Y-14029460D02*
X15611611Y-14038984D01*
X15611611Y-14038984D02*
X15563992Y-14038984D01*
X15563992Y-14038984D02*
X15544944Y-14029460D01*
X15544944Y-14029460D02*
X15535420Y-14010412D01*
X15535420Y-14010412D02*
X15535420Y-13991365D01*
X15535420Y-13991365D02*
X15544944Y-13972317D01*
X15544944Y-13972317D02*
X15563992Y-13962793D01*
X15563992Y-13962793D02*
X15611611Y-13962793D01*
X15611611Y-13962793D02*
X15630658Y-13953269D01*
X15697325Y-13905650D02*
X15773515Y-13905650D01*
X15725896Y-13838984D02*
X15725896Y-14010412D01*
X15725896Y-14010412D02*
X15735420Y-14029460D01*
X15735420Y-14029460D02*
X15754468Y-14038984D01*
X15754468Y-14038984D02*
X15773515Y-14038984D01*
X15916373Y-14029460D02*
X15897325Y-14038984D01*
X15897325Y-14038984D02*
X15859230Y-14038984D01*
X15859230Y-14038984D02*
X15840182Y-14029460D01*
X15840182Y-14029460D02*
X15830658Y-14010412D01*
X15830658Y-14010412D02*
X15830658Y-13934222D01*
X15830658Y-13934222D02*
X15840182Y-13915174D01*
X15840182Y-13915174D02*
X15859230Y-13905650D01*
X15859230Y-13905650D02*
X15897325Y-13905650D01*
X15897325Y-13905650D02*
X15916373Y-13915174D01*
X15916373Y-13915174D02*
X15925896Y-13934222D01*
X15925896Y-13934222D02*
X15925896Y-13953269D01*
X15925896Y-13953269D02*
X15830658Y-13972317D01*
X16097325Y-14038984D02*
X16097325Y-13838984D01*
X16097325Y-14029460D02*
X16078277Y-14038984D01*
X16078277Y-14038984D02*
X16040182Y-14038984D01*
X16040182Y-14038984D02*
X16021134Y-14029460D01*
X16021134Y-14029460D02*
X16011611Y-14019936D01*
X16011611Y-14019936D02*
X16002087Y-14000888D01*
X16002087Y-14000888D02*
X16002087Y-13943746D01*
X16002087Y-13943746D02*
X16011611Y-13924698D01*
X16011611Y-13924698D02*
X16021134Y-13915174D01*
X16021134Y-13915174D02*
X16040182Y-13905650D01*
X16040182Y-13905650D02*
X16078277Y-13905650D01*
X16078277Y-13905650D02*
X16097325Y-13915174D01*
X16173515Y-14115174D02*
X16183039Y-14105650D01*
X16183039Y-14105650D02*
X16202087Y-14077079D01*
X16202087Y-14077079D02*
X16211611Y-14058031D01*
X16211611Y-14058031D02*
X16221134Y-14029460D01*
X16221134Y-14029460D02*
X16230658Y-13981841D01*
X16230658Y-13981841D02*
X16230658Y-13943746D01*
X16230658Y-13943746D02*
X16221134Y-13896127D01*
X16221134Y-13896127D02*
X16211611Y-13867555D01*
X16211611Y-13867555D02*
X16202087Y-13848508D01*
X16202087Y-13848508D02*
X16183039Y-13819936D01*
X16183039Y-13819936D02*
X16173515Y-13810412D01*
M02*
