%TF.GenerationSoftware,KiCad,Pcbnew,9.0.1*%
%TF.CreationDate,2025-05-20T14:35:32+01:00*%
%TF.ProjectId,DST,4453542e-6b69-4636-9164-5f7063625858,rev?*%
%TF.SameCoordinates,Original*%
%TF.FileFunction,Drillmap*%
%TF.FilePolarity,Positive*%
%FSLAX45Y45*%
G04 Gerber Fmt 4.5, Leading zero omitted, Abs format (unit mm)*
G04 Created by KiCad (PCBNEW 9.0.1) date 2025-05-20 14:35:32*
%MOMM*%
%LPD*%
G01*
G04 APERTURE LIST*
%ADD10C,0.050000*%
%ADD11C,0.200000*%
%ADD12C,0.100000*%
%ADD13C,0.110000*%
%ADD14C,0.185000*%
G04 APERTURE END LIST*
D10*
X9420000Y-4980000D02*
X25270000Y-4980000D01*
X25270000Y-13305000D01*
X9420000Y-13305000D01*
X9420000Y-4980000D01*
D11*
D12*
X12596250Y-8773750D02*
X12616250Y-8793750D01*
X12616250Y-8773750D02*
X12596250Y-8793750D01*
X12596250Y-8918750D02*
X12616250Y-8938750D01*
X12616250Y-8918750D02*
X12596250Y-8938750D01*
X12596250Y-9063750D02*
X12616250Y-9083750D01*
X12616250Y-9063750D02*
X12596250Y-9083750D01*
X12741250Y-8773750D02*
X12761250Y-8793750D01*
X12761250Y-8773750D02*
X12741250Y-8793750D01*
X12741250Y-8918750D02*
X12761250Y-8938750D01*
X12761250Y-8918750D02*
X12741250Y-8938750D01*
X12741250Y-9063750D02*
X12761250Y-9083750D01*
X12761250Y-9063750D02*
X12741250Y-9083750D01*
X12886250Y-8773750D02*
X12906250Y-8793750D01*
X12906250Y-8773750D02*
X12886250Y-8793750D01*
X12886250Y-8918750D02*
X12906250Y-8938750D01*
X12906250Y-8918750D02*
X12886250Y-8938750D01*
X12886250Y-9063750D02*
X12906250Y-9083750D01*
X12906250Y-9063750D02*
X12886250Y-9083750D01*
X9835000Y-7970000D02*
G75*
G02*
X9805000Y-7970000I-15000J0D01*
G01*
X9805000Y-7970000D02*
G75*
G02*
X9835000Y-7970000I15000J0D01*
G01*
X9845000Y-6420000D02*
G75*
G02*
X9815000Y-6420000I-15000J0D01*
G01*
X9815000Y-6420000D02*
G75*
G02*
X9845000Y-6420000I15000J0D01*
G01*
X9865000Y-8840000D02*
G75*
G02*
X9835000Y-8840000I-15000J0D01*
G01*
X9835000Y-8840000D02*
G75*
G02*
X9865000Y-8840000I15000J0D01*
G01*
X9875000Y-8680000D02*
G75*
G02*
X9845000Y-8680000I-15000J0D01*
G01*
X9845000Y-8680000D02*
G75*
G02*
X9875000Y-8680000I15000J0D01*
G01*
X9875000Y-9040000D02*
G75*
G02*
X9845000Y-9040000I-15000J0D01*
G01*
X9845000Y-9040000D02*
G75*
G02*
X9875000Y-9040000I15000J0D01*
G01*
X9885000Y-8070000D02*
G75*
G02*
X9855000Y-8070000I-15000J0D01*
G01*
X9855000Y-8070000D02*
G75*
G02*
X9885000Y-8070000I15000J0D01*
G01*
X9885000Y-8410000D02*
G75*
G02*
X9855000Y-8410000I-15000J0D01*
G01*
X9855000Y-8410000D02*
G75*
G02*
X9885000Y-8410000I15000J0D01*
G01*
X9885000Y-8550000D02*
G75*
G02*
X9855000Y-8550000I-15000J0D01*
G01*
X9855000Y-8550000D02*
G75*
G02*
X9885000Y-8550000I15000J0D01*
G01*
X9885000Y-9170000D02*
G75*
G02*
X9855000Y-9170000I-15000J0D01*
G01*
X9855000Y-9170000D02*
G75*
G02*
X9885000Y-9170000I15000J0D01*
G01*
X9885000Y-9300000D02*
G75*
G02*
X9855000Y-9300000I-15000J0D01*
G01*
X9855000Y-9300000D02*
G75*
G02*
X9885000Y-9300000I15000J0D01*
G01*
X10035000Y-10040000D02*
G75*
G02*
X10005000Y-10040000I-15000J0D01*
G01*
X10005000Y-10040000D02*
G75*
G02*
X10035000Y-10040000I15000J0D01*
G01*
X10175000Y-6790000D02*
G75*
G02*
X10145000Y-6790000I-15000J0D01*
G01*
X10145000Y-6790000D02*
G75*
G02*
X10175000Y-6790000I15000J0D01*
G01*
X10195000Y-6920000D02*
G75*
G02*
X10165000Y-6920000I-15000J0D01*
G01*
X10165000Y-6920000D02*
G75*
G02*
X10195000Y-6920000I15000J0D01*
G01*
X10255000Y-9590000D02*
G75*
G02*
X10225000Y-9590000I-15000J0D01*
G01*
X10225000Y-9590000D02*
G75*
G02*
X10255000Y-9590000I15000J0D01*
G01*
X10335000Y-6150000D02*
G75*
G02*
X10305000Y-6150000I-15000J0D01*
G01*
X10305000Y-6150000D02*
G75*
G02*
X10335000Y-6150000I15000J0D01*
G01*
X10429250Y-5869500D02*
G75*
G02*
X10399250Y-5869500I-15000J0D01*
G01*
X10399250Y-5869500D02*
G75*
G02*
X10429250Y-5869500I15000J0D01*
G01*
X10440000Y-11425000D02*
G75*
G02*
X10410000Y-11425000I-15000J0D01*
G01*
X10410000Y-11425000D02*
G75*
G02*
X10440000Y-11425000I15000J0D01*
G01*
X10515000Y-7660000D02*
G75*
G02*
X10485000Y-7660000I-15000J0D01*
G01*
X10485000Y-7660000D02*
G75*
G02*
X10515000Y-7660000I15000J0D01*
G01*
X10545000Y-9812500D02*
G75*
G02*
X10515000Y-9812500I-15000J0D01*
G01*
X10515000Y-9812500D02*
G75*
G02*
X10545000Y-9812500I15000J0D01*
G01*
X10545000Y-9897500D02*
G75*
G02*
X10515000Y-9897500I-15000J0D01*
G01*
X10515000Y-9897500D02*
G75*
G02*
X10545000Y-9897500I15000J0D01*
G01*
X10575000Y-7180000D02*
G75*
G02*
X10545000Y-7180000I-15000J0D01*
G01*
X10545000Y-7180000D02*
G75*
G02*
X10575000Y-7180000I15000J0D01*
G01*
X10665000Y-12150000D02*
G75*
G02*
X10635000Y-12150000I-15000J0D01*
G01*
X10635000Y-12150000D02*
G75*
G02*
X10665000Y-12150000I15000J0D01*
G01*
X10695000Y-5440000D02*
G75*
G02*
X10665000Y-5440000I-15000J0D01*
G01*
X10665000Y-5440000D02*
G75*
G02*
X10695000Y-5440000I15000J0D01*
G01*
X10695000Y-6110000D02*
G75*
G02*
X10665000Y-6110000I-15000J0D01*
G01*
X10665000Y-6110000D02*
G75*
G02*
X10695000Y-6110000I15000J0D01*
G01*
X10732500Y-9530000D02*
G75*
G02*
X10702500Y-9530000I-15000J0D01*
G01*
X10702500Y-9530000D02*
G75*
G02*
X10732500Y-9530000I15000J0D01*
G01*
X10735000Y-6499000D02*
G75*
G02*
X10705000Y-6499000I-15000J0D01*
G01*
X10705000Y-6499000D02*
G75*
G02*
X10735000Y-6499000I15000J0D01*
G01*
X10735000Y-8670000D02*
G75*
G02*
X10705000Y-8670000I-15000J0D01*
G01*
X10705000Y-8670000D02*
G75*
G02*
X10735000Y-8670000I15000J0D01*
G01*
X10785000Y-5774000D02*
G75*
G02*
X10755000Y-5774000I-15000J0D01*
G01*
X10755000Y-5774000D02*
G75*
G02*
X10785000Y-5774000I15000J0D01*
G01*
X10785000Y-6080000D02*
G75*
G02*
X10755000Y-6080000I-15000J0D01*
G01*
X10755000Y-6080000D02*
G75*
G02*
X10785000Y-6080000I15000J0D01*
G01*
X10785000Y-8430000D02*
G75*
G02*
X10755000Y-8430000I-15000J0D01*
G01*
X10755000Y-8430000D02*
G75*
G02*
X10785000Y-8430000I15000J0D01*
G01*
X10817500Y-9530000D02*
G75*
G02*
X10787500Y-9530000I-15000J0D01*
G01*
X10787500Y-9530000D02*
G75*
G02*
X10817500Y-9530000I15000J0D01*
G01*
X10840000Y-11175000D02*
G75*
G02*
X10810000Y-11175000I-15000J0D01*
G01*
X10810000Y-11175000D02*
G75*
G02*
X10840000Y-11175000I15000J0D01*
G01*
X10875000Y-12420000D02*
G75*
G02*
X10845000Y-12420000I-15000J0D01*
G01*
X10845000Y-12420000D02*
G75*
G02*
X10875000Y-12420000I15000J0D01*
G01*
X10905000Y-8720000D02*
G75*
G02*
X10875000Y-8720000I-15000J0D01*
G01*
X10875000Y-8720000D02*
G75*
G02*
X10905000Y-8720000I15000J0D01*
G01*
X10925000Y-5600000D02*
G75*
G02*
X10895000Y-5600000I-15000J0D01*
G01*
X10895000Y-5600000D02*
G75*
G02*
X10925000Y-5600000I15000J0D01*
G01*
X10940000Y-11975000D02*
G75*
G02*
X10910000Y-11975000I-15000J0D01*
G01*
X10910000Y-11975000D02*
G75*
G02*
X10940000Y-11975000I15000J0D01*
G01*
X10990000Y-11075000D02*
G75*
G02*
X10960000Y-11075000I-15000J0D01*
G01*
X10960000Y-11075000D02*
G75*
G02*
X10990000Y-11075000I15000J0D01*
G01*
X11025000Y-11462500D02*
G75*
G02*
X10995000Y-11462500I-15000J0D01*
G01*
X10995000Y-11462500D02*
G75*
G02*
X11025000Y-11462500I15000J0D01*
G01*
X11065000Y-6030000D02*
G75*
G02*
X11035000Y-6030000I-15000J0D01*
G01*
X11035000Y-6030000D02*
G75*
G02*
X11065000Y-6030000I15000J0D01*
G01*
X11125000Y-6330000D02*
G75*
G02*
X11095000Y-6330000I-15000J0D01*
G01*
X11095000Y-6330000D02*
G75*
G02*
X11125000Y-6330000I15000J0D01*
G01*
X11125000Y-11660000D02*
G75*
G02*
X11095000Y-11660000I-15000J0D01*
G01*
X11095000Y-11660000D02*
G75*
G02*
X11125000Y-11660000I15000J0D01*
G01*
X11155000Y-6460000D02*
G75*
G02*
X11125000Y-6460000I-15000J0D01*
G01*
X11125000Y-6460000D02*
G75*
G02*
X11155000Y-6460000I15000J0D01*
G01*
X11175000Y-11820000D02*
G75*
G02*
X11145000Y-11820000I-15000J0D01*
G01*
X11145000Y-11820000D02*
G75*
G02*
X11175000Y-11820000I15000J0D01*
G01*
X11215000Y-12080000D02*
G75*
G02*
X11185000Y-12080000I-15000J0D01*
G01*
X11185000Y-12080000D02*
G75*
G02*
X11215000Y-12080000I15000J0D01*
G01*
X11285000Y-7049000D02*
G75*
G02*
X11255000Y-7049000I-15000J0D01*
G01*
X11255000Y-7049000D02*
G75*
G02*
X11285000Y-7049000I15000J0D01*
G01*
X11300074Y-8526357D02*
G75*
G02*
X11270074Y-8526357I-15000J0D01*
G01*
X11270074Y-8526357D02*
G75*
G02*
X11300074Y-8526357I15000J0D01*
G01*
X11311664Y-8605514D02*
G75*
G02*
X11281664Y-8605514I-15000J0D01*
G01*
X11281664Y-8605514D02*
G75*
G02*
X11311664Y-8605514I15000J0D01*
G01*
X11335000Y-6149000D02*
G75*
G02*
X11305000Y-6149000I-15000J0D01*
G01*
X11305000Y-6149000D02*
G75*
G02*
X11335000Y-6149000I15000J0D01*
G01*
X11354584Y-8467801D02*
G75*
G02*
X11324584Y-8467801I-15000J0D01*
G01*
X11324584Y-8467801D02*
G75*
G02*
X11354584Y-8467801I15000J0D01*
G01*
X11375000Y-12570000D02*
G75*
G02*
X11345000Y-12570000I-15000J0D01*
G01*
X11345000Y-12570000D02*
G75*
G02*
X11375000Y-12570000I15000J0D01*
G01*
X11425000Y-6660000D02*
G75*
G02*
X11395000Y-6660000I-15000J0D01*
G01*
X11395000Y-6660000D02*
G75*
G02*
X11425000Y-6660000I15000J0D01*
G01*
X11435000Y-6949000D02*
G75*
G02*
X11405000Y-6949000I-15000J0D01*
G01*
X11405000Y-6949000D02*
G75*
G02*
X11435000Y-6949000I15000J0D01*
G01*
X11455000Y-8500000D02*
G75*
G02*
X11425000Y-8500000I-15000J0D01*
G01*
X11425000Y-8500000D02*
G75*
G02*
X11455000Y-8500000I15000J0D01*
G01*
X11475000Y-12080000D02*
G75*
G02*
X11445000Y-12080000I-15000J0D01*
G01*
X11445000Y-12080000D02*
G75*
G02*
X11475000Y-12080000I15000J0D01*
G01*
X11490000Y-12350000D02*
G75*
G02*
X11460000Y-12350000I-15000J0D01*
G01*
X11460000Y-12350000D02*
G75*
G02*
X11490000Y-12350000I15000J0D01*
G01*
X11540000Y-11625000D02*
G75*
G02*
X11510000Y-11625000I-15000J0D01*
G01*
X11510000Y-11625000D02*
G75*
G02*
X11540000Y-11625000I15000J0D01*
G01*
X11575000Y-10360000D02*
G75*
G02*
X11545000Y-10360000I-15000J0D01*
G01*
X11545000Y-10360000D02*
G75*
G02*
X11575000Y-10360000I15000J0D01*
G01*
X11575000Y-12650000D02*
G75*
G02*
X11545000Y-12650000I-15000J0D01*
G01*
X11545000Y-12650000D02*
G75*
G02*
X11575000Y-12650000I15000J0D01*
G01*
X11580000Y-12000000D02*
G75*
G02*
X11550000Y-12000000I-15000J0D01*
G01*
X11550000Y-12000000D02*
G75*
G02*
X11580000Y-12000000I15000J0D01*
G01*
X11635000Y-5949000D02*
G75*
G02*
X11605000Y-5949000I-15000J0D01*
G01*
X11605000Y-5949000D02*
G75*
G02*
X11635000Y-5949000I15000J0D01*
G01*
X11665000Y-8490000D02*
G75*
G02*
X11635000Y-8490000I-15000J0D01*
G01*
X11635000Y-8490000D02*
G75*
G02*
X11665000Y-8490000I15000J0D01*
G01*
X11705000Y-10890000D02*
G75*
G02*
X11675000Y-10890000I-15000J0D01*
G01*
X11675000Y-10890000D02*
G75*
G02*
X11705000Y-10890000I15000J0D01*
G01*
X11745000Y-8430000D02*
G75*
G02*
X11715000Y-8430000I-15000J0D01*
G01*
X11715000Y-8430000D02*
G75*
G02*
X11745000Y-8430000I15000J0D01*
G01*
X11785000Y-8360000D02*
G75*
G02*
X11755000Y-8360000I-15000J0D01*
G01*
X11755000Y-8360000D02*
G75*
G02*
X11785000Y-8360000I15000J0D01*
G01*
X11785000Y-8900000D02*
G75*
G02*
X11755000Y-8900000I-15000J0D01*
G01*
X11755000Y-8900000D02*
G75*
G02*
X11785000Y-8900000I15000J0D01*
G01*
X11839500Y-6669000D02*
G75*
G02*
X11809500Y-6669000I-15000J0D01*
G01*
X11809500Y-6669000D02*
G75*
G02*
X11839500Y-6669000I15000J0D01*
G01*
X11915000Y-11970000D02*
G75*
G02*
X11885000Y-11970000I-15000J0D01*
G01*
X11885000Y-11970000D02*
G75*
G02*
X11915000Y-11970000I15000J0D01*
G01*
X11925065Y-8499793D02*
G75*
G02*
X11895065Y-8499793I-15000J0D01*
G01*
X11895065Y-8499793D02*
G75*
G02*
X11925065Y-8499793I15000J0D01*
G01*
X11981634Y-8443225D02*
G75*
G02*
X11951634Y-8443225I-15000J0D01*
G01*
X11951634Y-8443225D02*
G75*
G02*
X11981634Y-8443225I15000J0D01*
G01*
X12005000Y-9920000D02*
G75*
G02*
X11975000Y-9920000I-15000J0D01*
G01*
X11975000Y-9920000D02*
G75*
G02*
X12005000Y-9920000I15000J0D01*
G01*
X12045000Y-9400000D02*
G75*
G02*
X12015000Y-9400000I-15000J0D01*
G01*
X12015000Y-9400000D02*
G75*
G02*
X12045000Y-9400000I15000J0D01*
G01*
X12055000Y-8900000D02*
G75*
G02*
X12025000Y-8900000I-15000J0D01*
G01*
X12025000Y-8900000D02*
G75*
G02*
X12055000Y-8900000I15000J0D01*
G01*
X12085000Y-9520000D02*
G75*
G02*
X12055000Y-9520000I-15000J0D01*
G01*
X12055000Y-9520000D02*
G75*
G02*
X12085000Y-9520000I15000J0D01*
G01*
X12085000Y-11080000D02*
G75*
G02*
X12055000Y-11080000I-15000J0D01*
G01*
X12055000Y-11080000D02*
G75*
G02*
X12085000Y-11080000I15000J0D01*
G01*
X12105000Y-11330000D02*
G75*
G02*
X12075000Y-11330000I-15000J0D01*
G01*
X12075000Y-11330000D02*
G75*
G02*
X12105000Y-11330000I15000J0D01*
G01*
X12175000Y-8490000D02*
G75*
G02*
X12145000Y-8490000I-15000J0D01*
G01*
X12145000Y-8490000D02*
G75*
G02*
X12175000Y-8490000I15000J0D01*
G01*
X12195000Y-7530000D02*
G75*
G02*
X12165000Y-7530000I-15000J0D01*
G01*
X12165000Y-7530000D02*
G75*
G02*
X12195000Y-7530000I15000J0D01*
G01*
X12265000Y-12650000D02*
G75*
G02*
X12235000Y-12650000I-15000J0D01*
G01*
X12235000Y-12650000D02*
G75*
G02*
X12265000Y-12650000I15000J0D01*
G01*
X12415000Y-10010000D02*
G75*
G02*
X12385000Y-10010000I-15000J0D01*
G01*
X12385000Y-10010000D02*
G75*
G02*
X12415000Y-10010000I15000J0D01*
G01*
X12445000Y-9750000D02*
G75*
G02*
X12415000Y-9750000I-15000J0D01*
G01*
X12415000Y-9750000D02*
G75*
G02*
X12445000Y-9750000I15000J0D01*
G01*
X12547573Y-8007426D02*
G75*
G02*
X12517573Y-8007426I-15000J0D01*
G01*
X12517573Y-8007426D02*
G75*
G02*
X12547573Y-8007426I15000J0D01*
G01*
X12702519Y-9702331D02*
G75*
G02*
X12672519Y-9702331I-15000J0D01*
G01*
X12672519Y-9702331D02*
G75*
G02*
X12702519Y-9702331I15000J0D01*
G01*
X12781250Y-11391250D02*
G75*
G02*
X12751250Y-11391250I-15000J0D01*
G01*
X12751250Y-11391250D02*
G75*
G02*
X12781250Y-11391250I15000J0D01*
G01*
X12834526Y-8147376D02*
G75*
G02*
X12804526Y-8147376I-15000J0D01*
G01*
X12804526Y-8147376D02*
G75*
G02*
X12834526Y-8147376I15000J0D01*
G01*
X12835000Y-6790000D02*
G75*
G02*
X12805000Y-6790000I-15000J0D01*
G01*
X12805000Y-6790000D02*
G75*
G02*
X12835000Y-6790000I15000J0D01*
G01*
X12835000Y-10470000D02*
G75*
G02*
X12805000Y-10470000I-15000J0D01*
G01*
X12805000Y-10470000D02*
G75*
G02*
X12835000Y-10470000I15000J0D01*
G01*
X12845000Y-10020000D02*
G75*
G02*
X12815000Y-10020000I-15000J0D01*
G01*
X12815000Y-10020000D02*
G75*
G02*
X12845000Y-10020000I15000J0D01*
G01*
X12865000Y-6910000D02*
G75*
G02*
X12835000Y-6910000I-15000J0D01*
G01*
X12835000Y-6910000D02*
G75*
G02*
X12865000Y-6910000I15000J0D01*
G01*
X12885000Y-7770000D02*
G75*
G02*
X12855000Y-7770000I-15000J0D01*
G01*
X12855000Y-7770000D02*
G75*
G02*
X12885000Y-7770000I15000J0D01*
G01*
X12945000Y-7600000D02*
G75*
G02*
X12915000Y-7600000I-15000J0D01*
G01*
X12915000Y-7600000D02*
G75*
G02*
X12945000Y-7600000I15000J0D01*
G01*
X13015000Y-12100000D02*
G75*
G02*
X12985000Y-12100000I-15000J0D01*
G01*
X12985000Y-12100000D02*
G75*
G02*
X13015000Y-12100000I15000J0D01*
G01*
X13022399Y-9585024D02*
G75*
G02*
X12992399Y-9585024I-15000J0D01*
G01*
X12992399Y-9585024D02*
G75*
G02*
X13022399Y-9585024I15000J0D01*
G01*
X13045000Y-6130000D02*
G75*
G02*
X13015000Y-6130000I-15000J0D01*
G01*
X13015000Y-6130000D02*
G75*
G02*
X13045000Y-6130000I15000J0D01*
G01*
X13046250Y-8280000D02*
G75*
G02*
X13016250Y-8280000I-15000J0D01*
G01*
X13016250Y-8280000D02*
G75*
G02*
X13046250Y-8280000I15000J0D01*
G01*
X13120750Y-5870500D02*
G75*
G02*
X13090750Y-5870500I-15000J0D01*
G01*
X13090750Y-5870500D02*
G75*
G02*
X13120750Y-5870500I15000J0D01*
G01*
X13135000Y-8080000D02*
G75*
G02*
X13105000Y-8080000I-15000J0D01*
G01*
X13105000Y-8080000D02*
G75*
G02*
X13135000Y-8080000I15000J0D01*
G01*
X13194500Y-11125000D02*
G75*
G02*
X13164500Y-11125000I-15000J0D01*
G01*
X13164500Y-11125000D02*
G75*
G02*
X13194500Y-11125000I15000J0D01*
G01*
X13294500Y-11925000D02*
G75*
G02*
X13264500Y-11925000I-15000J0D01*
G01*
X13264500Y-11925000D02*
G75*
G02*
X13294500Y-11925000I15000J0D01*
G01*
X13295000Y-8200000D02*
G75*
G02*
X13265000Y-8200000I-15000J0D01*
G01*
X13265000Y-8200000D02*
G75*
G02*
X13295000Y-8200000I15000J0D01*
G01*
X13295000Y-9650000D02*
G75*
G02*
X13265000Y-9650000I-15000J0D01*
G01*
X13265000Y-9650000D02*
G75*
G02*
X13295000Y-9650000I15000J0D01*
G01*
X13344500Y-11025000D02*
G75*
G02*
X13314500Y-11025000I-15000J0D01*
G01*
X13314500Y-11025000D02*
G75*
G02*
X13344500Y-11025000I15000J0D01*
G01*
X13365000Y-5480000D02*
G75*
G02*
X13335000Y-5480000I-15000J0D01*
G01*
X13335000Y-5480000D02*
G75*
G02*
X13365000Y-5480000I15000J0D01*
G01*
X13382000Y-6090000D02*
G75*
G02*
X13352000Y-6090000I-15000J0D01*
G01*
X13352000Y-6090000D02*
G75*
G02*
X13382000Y-6090000I15000J0D01*
G01*
X13385000Y-8220000D02*
G75*
G02*
X13355000Y-8220000I-15000J0D01*
G01*
X13355000Y-8220000D02*
G75*
G02*
X13385000Y-8220000I15000J0D01*
G01*
X13395000Y-9830100D02*
G75*
G02*
X13365000Y-9830100I-15000J0D01*
G01*
X13365000Y-9830100D02*
G75*
G02*
X13395000Y-9830100I15000J0D01*
G01*
X13405000Y-9700000D02*
G75*
G02*
X13375000Y-9700000I-15000J0D01*
G01*
X13375000Y-9700000D02*
G75*
G02*
X13405000Y-9700000I15000J0D01*
G01*
X13422000Y-6475000D02*
G75*
G02*
X13392000Y-6475000I-15000J0D01*
G01*
X13392000Y-6475000D02*
G75*
G02*
X13422000Y-6475000I15000J0D01*
G01*
X13445000Y-9440000D02*
G75*
G02*
X13415000Y-9440000I-15000J0D01*
G01*
X13415000Y-9440000D02*
G75*
G02*
X13445000Y-9440000I15000J0D01*
G01*
X13455000Y-9200000D02*
G75*
G02*
X13425000Y-9200000I-15000J0D01*
G01*
X13425000Y-9200000D02*
G75*
G02*
X13455000Y-9200000I15000J0D01*
G01*
X13457426Y-8692427D02*
G75*
G02*
X13427426Y-8692427I-15000J0D01*
G01*
X13427426Y-8692427D02*
G75*
G02*
X13457426Y-8692427I15000J0D01*
G01*
X13465000Y-7300000D02*
G75*
G02*
X13435000Y-7300000I-15000J0D01*
G01*
X13435000Y-7300000D02*
G75*
G02*
X13465000Y-7300000I15000J0D01*
G01*
X13465000Y-8350000D02*
G75*
G02*
X13435000Y-8350000I-15000J0D01*
G01*
X13435000Y-8350000D02*
G75*
G02*
X13465000Y-8350000I15000J0D01*
G01*
X13470147Y-8260000D02*
G75*
G02*
X13440147Y-8260000I-15000J0D01*
G01*
X13440147Y-8260000D02*
G75*
G02*
X13470147Y-8260000I15000J0D01*
G01*
X13471425Y-6067718D02*
G75*
G02*
X13441425Y-6067718I-15000J0D01*
G01*
X13441425Y-6067718D02*
G75*
G02*
X13471425Y-6067718I15000J0D01*
G01*
X13472000Y-5750000D02*
G75*
G02*
X13442000Y-5750000I-15000J0D01*
G01*
X13442000Y-5750000D02*
G75*
G02*
X13472000Y-5750000I15000J0D01*
G01*
X13475000Y-11620000D02*
G75*
G02*
X13445000Y-11620000I-15000J0D01*
G01*
X13445000Y-11620000D02*
G75*
G02*
X13475000Y-11620000I15000J0D01*
G01*
X13485000Y-11465000D02*
G75*
G02*
X13455000Y-11465000I-15000J0D01*
G01*
X13455000Y-11465000D02*
G75*
G02*
X13485000Y-11465000I15000J0D01*
G01*
X13505000Y-11760000D02*
G75*
G02*
X13475000Y-11760000I-15000J0D01*
G01*
X13475000Y-11760000D02*
G75*
G02*
X13505000Y-11760000I15000J0D01*
G01*
X13549500Y-7941000D02*
G75*
G02*
X13519500Y-7941000I-15000J0D01*
G01*
X13519500Y-7941000D02*
G75*
G02*
X13549500Y-7941000I15000J0D01*
G01*
X13575000Y-12040000D02*
G75*
G02*
X13545000Y-12040000I-15000J0D01*
G01*
X13545000Y-12040000D02*
G75*
G02*
X13575000Y-12040000I15000J0D01*
G01*
X13585000Y-5540000D02*
G75*
G02*
X13555000Y-5540000I-15000J0D01*
G01*
X13555000Y-5540000D02*
G75*
G02*
X13585000Y-5540000I15000J0D01*
G01*
X13595000Y-8450000D02*
G75*
G02*
X13565000Y-8450000I-15000J0D01*
G01*
X13565000Y-8450000D02*
G75*
G02*
X13595000Y-8450000I15000J0D01*
G01*
X13595000Y-9710000D02*
G75*
G02*
X13565000Y-9710000I-15000J0D01*
G01*
X13565000Y-9710000D02*
G75*
G02*
X13595000Y-9710000I15000J0D01*
G01*
X13615000Y-9590000D02*
G75*
G02*
X13585000Y-9590000I-15000J0D01*
G01*
X13585000Y-9590000D02*
G75*
G02*
X13615000Y-9590000I15000J0D01*
G01*
X13635000Y-9290000D02*
G75*
G02*
X13605000Y-9290000I-15000J0D01*
G01*
X13605000Y-9290000D02*
G75*
G02*
X13635000Y-9290000I15000J0D01*
G01*
X13665000Y-8500000D02*
G75*
G02*
X13635000Y-8500000I-15000J0D01*
G01*
X13635000Y-8500000D02*
G75*
G02*
X13665000Y-8500000I15000J0D01*
G01*
X13677000Y-8970000D02*
G75*
G02*
X13647000Y-8970000I-15000J0D01*
G01*
X13647000Y-8970000D02*
G75*
G02*
X13677000Y-8970000I15000J0D01*
G01*
X13685000Y-9540000D02*
G75*
G02*
X13655000Y-9540000I-15000J0D01*
G01*
X13655000Y-9540000D02*
G75*
G02*
X13685000Y-9540000I15000J0D01*
G01*
X13705000Y-8700000D02*
G75*
G02*
X13675000Y-8700000I-15000J0D01*
G01*
X13675000Y-8700000D02*
G75*
G02*
X13705000Y-8700000I15000J0D01*
G01*
X13705000Y-12470000D02*
G75*
G02*
X13675000Y-12470000I-15000J0D01*
G01*
X13675000Y-12470000D02*
G75*
G02*
X13705000Y-12470000I15000J0D01*
G01*
X13745000Y-6020000D02*
G75*
G02*
X13715000Y-6020000I-15000J0D01*
G01*
X13715000Y-6020000D02*
G75*
G02*
X13745000Y-6020000I15000J0D01*
G01*
X13805000Y-9560000D02*
G75*
G02*
X13775000Y-9560000I-15000J0D01*
G01*
X13775000Y-9560000D02*
G75*
G02*
X13805000Y-9560000I15000J0D01*
G01*
X13815000Y-6320000D02*
G75*
G02*
X13785000Y-6320000I-15000J0D01*
G01*
X13785000Y-6320000D02*
G75*
G02*
X13815000Y-6320000I15000J0D01*
G01*
X13815000Y-6440000D02*
G75*
G02*
X13785000Y-6440000I-15000J0D01*
G01*
X13785000Y-6440000D02*
G75*
G02*
X13815000Y-6440000I15000J0D01*
G01*
X13815000Y-9240000D02*
G75*
G02*
X13785000Y-9240000I-15000J0D01*
G01*
X13785000Y-9240000D02*
G75*
G02*
X13815000Y-9240000I15000J0D01*
G01*
X13835000Y-10290000D02*
G75*
G02*
X13805000Y-10290000I-15000J0D01*
G01*
X13805000Y-10290000D02*
G75*
G02*
X13835000Y-10290000I15000J0D01*
G01*
X13844500Y-12300000D02*
G75*
G02*
X13814500Y-12300000I-15000J0D01*
G01*
X13814500Y-12300000D02*
G75*
G02*
X13844500Y-12300000I15000J0D01*
G01*
X13845000Y-9400000D02*
G75*
G02*
X13815000Y-9400000I-15000J0D01*
G01*
X13815000Y-9400000D02*
G75*
G02*
X13845000Y-9400000I15000J0D01*
G01*
X13854500Y-11950000D02*
G75*
G02*
X13824500Y-11950000I-15000J0D01*
G01*
X13824500Y-11950000D02*
G75*
G02*
X13854500Y-11950000I15000J0D01*
G01*
X13855000Y-10430000D02*
G75*
G02*
X13825000Y-10430000I-15000J0D01*
G01*
X13825000Y-10430000D02*
G75*
G02*
X13855000Y-10430000I15000J0D01*
G01*
X13894109Y-8698523D02*
G75*
G02*
X13864109Y-8698523I-15000J0D01*
G01*
X13864109Y-8698523D02*
G75*
G02*
X13894109Y-8698523I15000J0D01*
G01*
X13894500Y-11575000D02*
G75*
G02*
X13864500Y-11575000I-15000J0D01*
G01*
X13864500Y-11575000D02*
G75*
G02*
X13894500Y-11575000I15000J0D01*
G01*
X13915000Y-8970000D02*
G75*
G02*
X13885000Y-8970000I-15000J0D01*
G01*
X13885000Y-8970000D02*
G75*
G02*
X13915000Y-8970000I15000J0D01*
G01*
X13934500Y-11990000D02*
G75*
G02*
X13904500Y-11990000I-15000J0D01*
G01*
X13904500Y-11990000D02*
G75*
G02*
X13934500Y-11990000I15000J0D01*
G01*
X13935000Y-9160000D02*
G75*
G02*
X13905000Y-9160000I-15000J0D01*
G01*
X13905000Y-9160000D02*
G75*
G02*
X13935000Y-9160000I15000J0D01*
G01*
X13945000Y-8870000D02*
G75*
G02*
X13915000Y-8870000I-15000J0D01*
G01*
X13915000Y-8870000D02*
G75*
G02*
X13945000Y-8870000I15000J0D01*
G01*
X13945000Y-12610000D02*
G75*
G02*
X13915000Y-12610000I-15000J0D01*
G01*
X13915000Y-12610000D02*
G75*
G02*
X13945000Y-12610000I15000J0D01*
G01*
X13955000Y-8638523D02*
G75*
G02*
X13925000Y-8638523I-15000J0D01*
G01*
X13925000Y-8638523D02*
G75*
G02*
X13955000Y-8638523I15000J0D01*
G01*
X13972000Y-7025000D02*
G75*
G02*
X13942000Y-7025000I-15000J0D01*
G01*
X13942000Y-7025000D02*
G75*
G02*
X13972000Y-7025000I15000J0D01*
G01*
X14022000Y-6125000D02*
G75*
G02*
X13992000Y-6125000I-15000J0D01*
G01*
X13992000Y-6125000D02*
G75*
G02*
X14022000Y-6125000I15000J0D01*
G01*
X14035000Y-10820000D02*
G75*
G02*
X14005000Y-10820000I-15000J0D01*
G01*
X14005000Y-10820000D02*
G75*
G02*
X14035000Y-10820000I15000J0D01*
G01*
X14045000Y-6637500D02*
G75*
G02*
X14015000Y-6637500I-15000J0D01*
G01*
X14015000Y-6637500D02*
G75*
G02*
X14045000Y-6637500I15000J0D01*
G01*
X14045398Y-9020578D02*
G75*
G02*
X14015398Y-9020578I-15000J0D01*
G01*
X14015398Y-9020578D02*
G75*
G02*
X14045398Y-9020578I15000J0D01*
G01*
X14055000Y-8530000D02*
G75*
G02*
X14025000Y-8530000I-15000J0D01*
G01*
X14025000Y-8530000D02*
G75*
G02*
X14055000Y-8530000I15000J0D01*
G01*
X14055000Y-8810000D02*
G75*
G02*
X14025000Y-8810000I-15000J0D01*
G01*
X14025000Y-8810000D02*
G75*
G02*
X14055000Y-8810000I15000J0D01*
G01*
X14055000Y-9100000D02*
G75*
G02*
X14025000Y-9100000I-15000J0D01*
G01*
X14025000Y-9100000D02*
G75*
G02*
X14055000Y-9100000I15000J0D01*
G01*
X14122000Y-6925000D02*
G75*
G02*
X14092000Y-6925000I-15000J0D01*
G01*
X14092000Y-6925000D02*
G75*
G02*
X14122000Y-6925000I15000J0D01*
G01*
X14145000Y-8770000D02*
G75*
G02*
X14115000Y-8770000I-15000J0D01*
G01*
X14115000Y-8770000D02*
G75*
G02*
X14145000Y-8770000I15000J0D01*
G01*
X14265000Y-11920000D02*
G75*
G02*
X14235000Y-11920000I-15000J0D01*
G01*
X14235000Y-11920000D02*
G75*
G02*
X14265000Y-11920000I15000J0D01*
G01*
X14322000Y-5925000D02*
G75*
G02*
X14292000Y-5925000I-15000J0D01*
G01*
X14292000Y-5925000D02*
G75*
G02*
X14322000Y-5925000I15000J0D01*
G01*
X14445000Y-8390000D02*
G75*
G02*
X14415000Y-8390000I-15000J0D01*
G01*
X14415000Y-8390000D02*
G75*
G02*
X14445000Y-8390000I15000J0D01*
G01*
X14455000Y-11280000D02*
G75*
G02*
X14425000Y-11280000I-15000J0D01*
G01*
X14425000Y-11280000D02*
G75*
G02*
X14455000Y-11280000I15000J0D01*
G01*
X14465000Y-11140000D02*
G75*
G02*
X14435000Y-11140000I-15000J0D01*
G01*
X14435000Y-11140000D02*
G75*
G02*
X14465000Y-11140000I15000J0D01*
G01*
X14515000Y-6700000D02*
G75*
G02*
X14485000Y-6700000I-15000J0D01*
G01*
X14485000Y-6700000D02*
G75*
G02*
X14515000Y-6700000I15000J0D01*
G01*
X14875000Y-9900000D02*
G75*
G02*
X14845000Y-9900000I-15000J0D01*
G01*
X14845000Y-9900000D02*
G75*
G02*
X14875000Y-9900000I15000J0D01*
G01*
X15190000Y-11300000D02*
G75*
G02*
X15160000Y-11300000I-15000J0D01*
G01*
X15160000Y-11300000D02*
G75*
G02*
X15190000Y-11300000I15000J0D01*
G01*
X15195000Y-6750000D02*
G75*
G02*
X15165000Y-6750000I-15000J0D01*
G01*
X15165000Y-6750000D02*
G75*
G02*
X15195000Y-6750000I15000J0D01*
G01*
X15195000Y-6920000D02*
G75*
G02*
X15165000Y-6920000I-15000J0D01*
G01*
X15165000Y-6920000D02*
G75*
G02*
X15195000Y-6920000I15000J0D01*
G01*
X15375000Y-6130000D02*
G75*
G02*
X15345000Y-6130000I-15000J0D01*
G01*
X15345000Y-6130000D02*
G75*
G02*
X15375000Y-6130000I15000J0D01*
G01*
X15445750Y-5870500D02*
G75*
G02*
X15415750Y-5870500I-15000J0D01*
G01*
X15415750Y-5870500D02*
G75*
G02*
X15445750Y-5870500I15000J0D01*
G01*
X15575000Y-9990000D02*
G75*
G02*
X15545000Y-9990000I-15000J0D01*
G01*
X15545000Y-9990000D02*
G75*
G02*
X15575000Y-9990000I15000J0D01*
G01*
X15585000Y-8760000D02*
G75*
G02*
X15555000Y-8760000I-15000J0D01*
G01*
X15555000Y-8760000D02*
G75*
G02*
X15585000Y-8760000I15000J0D01*
G01*
X15615000Y-11125000D02*
G75*
G02*
X15585000Y-11125000I-15000J0D01*
G01*
X15585000Y-11125000D02*
G75*
G02*
X15615000Y-11125000I15000J0D01*
G01*
X15695000Y-9640000D02*
G75*
G02*
X15665000Y-9640000I-15000J0D01*
G01*
X15665000Y-9640000D02*
G75*
G02*
X15695000Y-9640000I15000J0D01*
G01*
X15695000Y-12100000D02*
G75*
G02*
X15665000Y-12100000I-15000J0D01*
G01*
X15665000Y-12100000D02*
G75*
G02*
X15695000Y-12100000I15000J0D01*
G01*
X15705000Y-5470000D02*
G75*
G02*
X15675000Y-5470000I-15000J0D01*
G01*
X15675000Y-5470000D02*
G75*
G02*
X15705000Y-5470000I15000J0D01*
G01*
X15711500Y-6070000D02*
G75*
G02*
X15681500Y-6070000I-15000J0D01*
G01*
X15681500Y-6070000D02*
G75*
G02*
X15711500Y-6070000I15000J0D01*
G01*
X15715000Y-11925000D02*
G75*
G02*
X15685000Y-11925000I-15000J0D01*
G01*
X15685000Y-11925000D02*
G75*
G02*
X15715000Y-11925000I15000J0D01*
G01*
X15745000Y-11412500D02*
G75*
G02*
X15715000Y-11412500I-15000J0D01*
G01*
X15715000Y-11412500D02*
G75*
G02*
X15745000Y-11412500I15000J0D01*
G01*
X15751500Y-6475000D02*
G75*
G02*
X15721500Y-6475000I-15000J0D01*
G01*
X15721500Y-6475000D02*
G75*
G02*
X15751500Y-6475000I15000J0D01*
G01*
X15765000Y-10825000D02*
G75*
G02*
X15735000Y-10825000I-15000J0D01*
G01*
X15735000Y-10825000D02*
G75*
G02*
X15765000Y-10825000I15000J0D01*
G01*
X15765000Y-11025000D02*
G75*
G02*
X15735000Y-11025000I-15000J0D01*
G01*
X15735000Y-11025000D02*
G75*
G02*
X15765000Y-11025000I15000J0D01*
G01*
X15775000Y-7270000D02*
G75*
G02*
X15745000Y-7270000I-15000J0D01*
G01*
X15745000Y-7270000D02*
G75*
G02*
X15775000Y-7270000I15000J0D01*
G01*
X15801082Y-6067472D02*
G75*
G02*
X15771082Y-6067472I-15000J0D01*
G01*
X15771082Y-6067472D02*
G75*
G02*
X15801082Y-6067472I15000J0D01*
G01*
X15801500Y-5750000D02*
G75*
G02*
X15771500Y-5750000I-15000J0D01*
G01*
X15771500Y-5750000D02*
G75*
G02*
X15801500Y-5750000I15000J0D01*
G01*
X15875000Y-5530000D02*
G75*
G02*
X15845000Y-5530000I-15000J0D01*
G01*
X15845000Y-5530000D02*
G75*
G02*
X15875000Y-5530000I15000J0D01*
G01*
X15925000Y-11620000D02*
G75*
G02*
X15895000Y-11620000I-15000J0D01*
G01*
X15895000Y-11620000D02*
G75*
G02*
X15925000Y-11620000I15000J0D01*
G01*
X15945000Y-11760000D02*
G75*
G02*
X15915000Y-11760000I-15000J0D01*
G01*
X15915000Y-11760000D02*
G75*
G02*
X15945000Y-11760000I15000J0D01*
G01*
X15995000Y-12040000D02*
G75*
G02*
X15965000Y-12040000I-15000J0D01*
G01*
X15965000Y-12040000D02*
G75*
G02*
X15995000Y-12040000I15000J0D01*
G01*
X16075000Y-6010000D02*
G75*
G02*
X16045000Y-6010000I-15000J0D01*
G01*
X16045000Y-6010000D02*
G75*
G02*
X16075000Y-6010000I15000J0D01*
G01*
X16115000Y-6290000D02*
G75*
G02*
X16085000Y-6290000I-15000J0D01*
G01*
X16085000Y-6290000D02*
G75*
G02*
X16115000Y-6290000I15000J0D01*
G01*
X16125000Y-12480000D02*
G75*
G02*
X16095000Y-12480000I-15000J0D01*
G01*
X16095000Y-12480000D02*
G75*
G02*
X16125000Y-12480000I15000J0D01*
G01*
X16155000Y-6430000D02*
G75*
G02*
X16125000Y-6430000I-15000J0D01*
G01*
X16125000Y-6430000D02*
G75*
G02*
X16155000Y-6430000I15000J0D01*
G01*
X16265000Y-11990000D02*
G75*
G02*
X16235000Y-11990000I-15000J0D01*
G01*
X16235000Y-11990000D02*
G75*
G02*
X16265000Y-11990000I15000J0D01*
G01*
X16265000Y-12300000D02*
G75*
G02*
X16235000Y-12300000I-15000J0D01*
G01*
X16235000Y-12300000D02*
G75*
G02*
X16265000Y-12300000I15000J0D01*
G01*
X16301500Y-7025000D02*
G75*
G02*
X16271500Y-7025000I-15000J0D01*
G01*
X16271500Y-7025000D02*
G75*
G02*
X16301500Y-7025000I15000J0D01*
G01*
X16315000Y-11575000D02*
G75*
G02*
X16285000Y-11575000I-15000J0D01*
G01*
X16285000Y-11575000D02*
G75*
G02*
X16315000Y-11575000I15000J0D01*
G01*
X16325000Y-6637500D02*
G75*
G02*
X16295000Y-6637500I-15000J0D01*
G01*
X16295000Y-6637500D02*
G75*
G02*
X16325000Y-6637500I15000J0D01*
G01*
X16351500Y-6125000D02*
G75*
G02*
X16321500Y-6125000I-15000J0D01*
G01*
X16321500Y-6125000D02*
G75*
G02*
X16351500Y-6125000I15000J0D01*
G01*
X16355000Y-11960000D02*
G75*
G02*
X16325000Y-11960000I-15000J0D01*
G01*
X16325000Y-11960000D02*
G75*
G02*
X16355000Y-11960000I15000J0D01*
G01*
X16375000Y-12560000D02*
G75*
G02*
X16345000Y-12560000I-15000J0D01*
G01*
X16345000Y-12560000D02*
G75*
G02*
X16375000Y-12560000I15000J0D01*
G01*
X16385000Y-5950000D02*
G75*
G02*
X16355000Y-5950000I-15000J0D01*
G01*
X16355000Y-5950000D02*
G75*
G02*
X16385000Y-5950000I15000J0D01*
G01*
X16451500Y-6925000D02*
G75*
G02*
X16421500Y-6925000I-15000J0D01*
G01*
X16421500Y-6925000D02*
G75*
G02*
X16451500Y-6925000I15000J0D01*
G01*
X16475000Y-10840000D02*
G75*
G02*
X16445000Y-10840000I-15000J0D01*
G01*
X16445000Y-10840000D02*
G75*
G02*
X16475000Y-10840000I15000J0D01*
G01*
X16675000Y-11920000D02*
G75*
G02*
X16645000Y-11920000I-15000J0D01*
G01*
X16645000Y-11920000D02*
G75*
G02*
X16675000Y-11920000I15000J0D01*
G01*
X16845750Y-6670500D02*
G75*
G02*
X16815750Y-6670500I-15000J0D01*
G01*
X16815750Y-6670500D02*
G75*
G02*
X16845750Y-6670500I15000J0D01*
G01*
X16885000Y-11120000D02*
G75*
G02*
X16855000Y-11120000I-15000J0D01*
G01*
X16855000Y-11120000D02*
G75*
G02*
X16885000Y-11120000I15000J0D01*
G01*
X16885000Y-11280000D02*
G75*
G02*
X16855000Y-11280000I-15000J0D01*
G01*
X16855000Y-11280000D02*
G75*
G02*
X16885000Y-11280000I15000J0D01*
G01*
X17431250Y-11366250D02*
G75*
G02*
X17401250Y-11366250I-15000J0D01*
G01*
X17401250Y-11366250D02*
G75*
G02*
X17431250Y-11366250I15000J0D01*
G01*
X17465000Y-6940000D02*
G75*
G02*
X17435000Y-6940000I-15000J0D01*
G01*
X17435000Y-6940000D02*
G75*
G02*
X17465000Y-6940000I15000J0D01*
G01*
X17475000Y-6760000D02*
G75*
G02*
X17445000Y-6760000I-15000J0D01*
G01*
X17445000Y-6760000D02*
G75*
G02*
X17475000Y-6760000I15000J0D01*
G01*
X17655000Y-6130000D02*
G75*
G02*
X17625000Y-6130000I-15000J0D01*
G01*
X17625000Y-6130000D02*
G75*
G02*
X17655000Y-6130000I15000J0D01*
G01*
X17775000Y-11370000D02*
G75*
G02*
X17745000Y-11370000I-15000J0D01*
G01*
X17745000Y-11370000D02*
G75*
G02*
X17775000Y-11370000I15000J0D01*
G01*
X17855000Y-7210000D02*
G75*
G02*
X17825000Y-7210000I-15000J0D01*
G01*
X17825000Y-7210000D02*
G75*
G02*
X17855000Y-7210000I15000J0D01*
G01*
X17865000Y-11075000D02*
G75*
G02*
X17835000Y-11075000I-15000J0D01*
G01*
X17835000Y-11075000D02*
G75*
G02*
X17865000Y-11075000I15000J0D01*
G01*
X17935000Y-12050000D02*
G75*
G02*
X17905000Y-12050000I-15000J0D01*
G01*
X17905000Y-12050000D02*
G75*
G02*
X17935000Y-12050000I15000J0D01*
G01*
X17965000Y-11875000D02*
G75*
G02*
X17935000Y-11875000I-15000J0D01*
G01*
X17935000Y-11875000D02*
G75*
G02*
X17965000Y-11875000I15000J0D01*
G01*
X17985000Y-5570000D02*
G75*
G02*
X17955000Y-5570000I-15000J0D01*
G01*
X17955000Y-5570000D02*
G75*
G02*
X17985000Y-5570000I15000J0D01*
G01*
X17991000Y-6060000D02*
G75*
G02*
X17961000Y-6060000I-15000J0D01*
G01*
X17961000Y-6060000D02*
G75*
G02*
X17991000Y-6060000I15000J0D01*
G01*
X18015000Y-10975000D02*
G75*
G02*
X17985000Y-10975000I-15000J0D01*
G01*
X17985000Y-10975000D02*
G75*
G02*
X18015000Y-10975000I15000J0D01*
G01*
X18031000Y-6475000D02*
G75*
G02*
X18001000Y-6475000I-15000J0D01*
G01*
X18001000Y-6475000D02*
G75*
G02*
X18031000Y-6475000I15000J0D01*
G01*
X18081000Y-5750000D02*
G75*
G02*
X18051000Y-5750000I-15000J0D01*
G01*
X18051000Y-5750000D02*
G75*
G02*
X18081000Y-5750000I15000J0D01*
G01*
X18085000Y-6050000D02*
G75*
G02*
X18055000Y-6050000I-15000J0D01*
G01*
X18055000Y-6050000D02*
G75*
G02*
X18085000Y-6050000I15000J0D01*
G01*
X18175000Y-11560000D02*
G75*
G02*
X18145000Y-11560000I-15000J0D01*
G01*
X18145000Y-11560000D02*
G75*
G02*
X18175000Y-11560000I15000J0D01*
G01*
X18195000Y-11720000D02*
G75*
G02*
X18165000Y-11720000I-15000J0D01*
G01*
X18165000Y-11720000D02*
G75*
G02*
X18195000Y-11720000I15000J0D01*
G01*
X18235000Y-11990000D02*
G75*
G02*
X18205000Y-11990000I-15000J0D01*
G01*
X18205000Y-11990000D02*
G75*
G02*
X18235000Y-11990000I15000J0D01*
G01*
X18275000Y-5560000D02*
G75*
G02*
X18245000Y-5560000I-15000J0D01*
G01*
X18245000Y-5560000D02*
G75*
G02*
X18275000Y-5560000I15000J0D01*
G01*
X18355000Y-6020000D02*
G75*
G02*
X18325000Y-6020000I-15000J0D01*
G01*
X18325000Y-6020000D02*
G75*
G02*
X18355000Y-6020000I15000J0D01*
G01*
X18365000Y-12460000D02*
G75*
G02*
X18335000Y-12460000I-15000J0D01*
G01*
X18335000Y-12460000D02*
G75*
G02*
X18365000Y-12460000I15000J0D01*
G01*
X18415000Y-6280000D02*
G75*
G02*
X18385000Y-6280000I-15000J0D01*
G01*
X18385000Y-6280000D02*
G75*
G02*
X18415000Y-6280000I15000J0D01*
G01*
X18425000Y-6450000D02*
G75*
G02*
X18395000Y-6450000I-15000J0D01*
G01*
X18395000Y-6450000D02*
G75*
G02*
X18425000Y-6450000I15000J0D01*
G01*
X18515000Y-11960000D02*
G75*
G02*
X18485000Y-11960000I-15000J0D01*
G01*
X18485000Y-11960000D02*
G75*
G02*
X18515000Y-11960000I15000J0D01*
G01*
X18515000Y-12250000D02*
G75*
G02*
X18485000Y-12250000I-15000J0D01*
G01*
X18485000Y-12250000D02*
G75*
G02*
X18515000Y-12250000I15000J0D01*
G01*
X18555000Y-6760000D02*
G75*
G02*
X18525000Y-6760000I-15000J0D01*
G01*
X18525000Y-6760000D02*
G75*
G02*
X18555000Y-6760000I15000J0D01*
G01*
X18565000Y-11525000D02*
G75*
G02*
X18535000Y-11525000I-15000J0D01*
G01*
X18535000Y-11525000D02*
G75*
G02*
X18565000Y-11525000I15000J0D01*
G01*
X18581000Y-7025000D02*
G75*
G02*
X18551000Y-7025000I-15000J0D01*
G01*
X18551000Y-7025000D02*
G75*
G02*
X18581000Y-7025000I15000J0D01*
G01*
X18585000Y-6637500D02*
G75*
G02*
X18555000Y-6637500I-15000J0D01*
G01*
X18555000Y-6637500D02*
G75*
G02*
X18585000Y-6637500I15000J0D01*
G01*
X18605000Y-11910000D02*
G75*
G02*
X18575000Y-11910000I-15000J0D01*
G01*
X18575000Y-11910000D02*
G75*
G02*
X18605000Y-11910000I15000J0D01*
G01*
X18615000Y-12500000D02*
G75*
G02*
X18585000Y-12500000I-15000J0D01*
G01*
X18585000Y-12500000D02*
G75*
G02*
X18615000Y-12500000I15000J0D01*
G01*
X18631000Y-6125000D02*
G75*
G02*
X18601000Y-6125000I-15000J0D01*
G01*
X18601000Y-6125000D02*
G75*
G02*
X18631000Y-6125000I15000J0D01*
G01*
X18635000Y-10710000D02*
G75*
G02*
X18605000Y-10710000I-15000J0D01*
G01*
X18605000Y-10710000D02*
G75*
G02*
X18635000Y-10710000I15000J0D01*
G01*
X18665000Y-5950000D02*
G75*
G02*
X18635000Y-5950000I-15000J0D01*
G01*
X18635000Y-5950000D02*
G75*
G02*
X18665000Y-5950000I15000J0D01*
G01*
X18731000Y-6925000D02*
G75*
G02*
X18701000Y-6925000I-15000J0D01*
G01*
X18701000Y-6925000D02*
G75*
G02*
X18731000Y-6925000I15000J0D01*
G01*
X18945000Y-11870000D02*
G75*
G02*
X18915000Y-11870000I-15000J0D01*
G01*
X18915000Y-11870000D02*
G75*
G02*
X18945000Y-11870000I15000J0D01*
G01*
X19135000Y-11050000D02*
G75*
G02*
X19105000Y-11050000I-15000J0D01*
G01*
X19105000Y-11050000D02*
G75*
G02*
X19135000Y-11050000I15000J0D01*
G01*
X19165000Y-11220000D02*
G75*
G02*
X19135000Y-11220000I-15000J0D01*
G01*
X19135000Y-11220000D02*
G75*
G02*
X19165000Y-11220000I15000J0D01*
G01*
X19647250Y-11391250D02*
G75*
G02*
X19617250Y-11391250I-15000J0D01*
G01*
X19617250Y-11391250D02*
G75*
G02*
X19647250Y-11391250I15000J0D01*
G01*
X19765000Y-6770000D02*
G75*
G02*
X19735000Y-6770000I-15000J0D01*
G01*
X19735000Y-6770000D02*
G75*
G02*
X19765000Y-6770000I15000J0D01*
G01*
X19765000Y-6940000D02*
G75*
G02*
X19735000Y-6940000I-15000J0D01*
G01*
X19735000Y-6940000D02*
G75*
G02*
X19765000Y-6940000I15000J0D01*
G01*
X19895000Y-12130000D02*
G75*
G02*
X19865000Y-12130000I-15000J0D01*
G01*
X19865000Y-12130000D02*
G75*
G02*
X19895000Y-12130000I15000J0D01*
G01*
X19955000Y-6120000D02*
G75*
G02*
X19925000Y-6120000I-15000J0D01*
G01*
X19925000Y-6120000D02*
G75*
G02*
X19955000Y-6120000I15000J0D01*
G01*
X20026500Y-5847500D02*
G75*
G02*
X19996500Y-5847500I-15000J0D01*
G01*
X19996500Y-5847500D02*
G75*
G02*
X20026500Y-5847500I15000J0D01*
G01*
X20035000Y-11437500D02*
G75*
G02*
X20005000Y-11437500I-15000J0D01*
G01*
X20005000Y-11437500D02*
G75*
G02*
X20035000Y-11437500I15000J0D01*
G01*
X20060500Y-11150000D02*
G75*
G02*
X20030500Y-11150000I-15000J0D01*
G01*
X20030500Y-11150000D02*
G75*
G02*
X20060500Y-11150000I15000J0D01*
G01*
X20160500Y-11950000D02*
G75*
G02*
X20130500Y-11950000I-15000J0D01*
G01*
X20130500Y-11950000D02*
G75*
G02*
X20160500Y-11950000I15000J0D01*
G01*
X20210500Y-11050000D02*
G75*
G02*
X20180500Y-11050000I-15000J0D01*
G01*
X20180500Y-11050000D02*
G75*
G02*
X20210500Y-11050000I15000J0D01*
G01*
X20275000Y-5570000D02*
G75*
G02*
X20245000Y-5570000I-15000J0D01*
G01*
X20245000Y-5570000D02*
G75*
G02*
X20275000Y-5570000I15000J0D01*
G01*
X20285000Y-7220000D02*
G75*
G02*
X20255000Y-7220000I-15000J0D01*
G01*
X20255000Y-7220000D02*
G75*
G02*
X20285000Y-7220000I15000J0D01*
G01*
X20286500Y-6080000D02*
G75*
G02*
X20256500Y-6080000I-15000J0D01*
G01*
X20256500Y-6080000D02*
G75*
G02*
X20286500Y-6080000I15000J0D01*
G01*
X20326500Y-6472500D02*
G75*
G02*
X20296500Y-6472500I-15000J0D01*
G01*
X20296500Y-6472500D02*
G75*
G02*
X20326500Y-6472500I15000J0D01*
G01*
X20345000Y-11640000D02*
G75*
G02*
X20315000Y-11640000I-15000J0D01*
G01*
X20315000Y-11640000D02*
G75*
G02*
X20345000Y-11640000I15000J0D01*
G01*
X20375000Y-5700000D02*
G75*
G02*
X20345000Y-5700000I-15000J0D01*
G01*
X20345000Y-5700000D02*
G75*
G02*
X20375000Y-5700000I15000J0D01*
G01*
X20375000Y-6050000D02*
G75*
G02*
X20345000Y-6050000I-15000J0D01*
G01*
X20345000Y-6050000D02*
G75*
G02*
X20375000Y-6050000I15000J0D01*
G01*
X20385000Y-11800000D02*
G75*
G02*
X20355000Y-11800000I-15000J0D01*
G01*
X20355000Y-11800000D02*
G75*
G02*
X20385000Y-11800000I15000J0D01*
G01*
X20435000Y-12070000D02*
G75*
G02*
X20405000Y-12070000I-15000J0D01*
G01*
X20405000Y-12070000D02*
G75*
G02*
X20435000Y-12070000I15000J0D01*
G01*
X20565000Y-12560000D02*
G75*
G02*
X20535000Y-12560000I-15000J0D01*
G01*
X20535000Y-12560000D02*
G75*
G02*
X20565000Y-12560000I15000J0D01*
G01*
X20575000Y-5570000D02*
G75*
G02*
X20545000Y-5570000I-15000J0D01*
G01*
X20545000Y-5570000D02*
G75*
G02*
X20575000Y-5570000I15000J0D01*
G01*
X20655000Y-6020000D02*
G75*
G02*
X20625000Y-6020000I-15000J0D01*
G01*
X20625000Y-6020000D02*
G75*
G02*
X20655000Y-6020000I15000J0D01*
G01*
X20705000Y-12020000D02*
G75*
G02*
X20675000Y-12020000I-15000J0D01*
G01*
X20675000Y-12020000D02*
G75*
G02*
X20705000Y-12020000I15000J0D01*
G01*
X20710500Y-12325000D02*
G75*
G02*
X20680500Y-12325000I-15000J0D01*
G01*
X20680500Y-12325000D02*
G75*
G02*
X20710500Y-12325000I15000J0D01*
G01*
X20725000Y-6270000D02*
G75*
G02*
X20695000Y-6270000I-15000J0D01*
G01*
X20695000Y-6270000D02*
G75*
G02*
X20725000Y-6270000I15000J0D01*
G01*
X20760500Y-11600000D02*
G75*
G02*
X20730500Y-11600000I-15000J0D01*
G01*
X20730500Y-11600000D02*
G75*
G02*
X20760500Y-11600000I15000J0D01*
G01*
X20765000Y-6440000D02*
G75*
G02*
X20735000Y-6440000I-15000J0D01*
G01*
X20735000Y-6440000D02*
G75*
G02*
X20765000Y-6440000I15000J0D01*
G01*
X20800500Y-11970000D02*
G75*
G02*
X20770500Y-11970000I-15000J0D01*
G01*
X20770500Y-11970000D02*
G75*
G02*
X20800500Y-11970000I15000J0D01*
G01*
X20805000Y-12570000D02*
G75*
G02*
X20775000Y-12570000I-15000J0D01*
G01*
X20775000Y-12570000D02*
G75*
G02*
X20805000Y-12570000I15000J0D01*
G01*
X20876500Y-7022500D02*
G75*
G02*
X20846500Y-7022500I-15000J0D01*
G01*
X20846500Y-7022500D02*
G75*
G02*
X20876500Y-7022500I15000J0D01*
G01*
X20925000Y-6635000D02*
G75*
G02*
X20895000Y-6635000I-15000J0D01*
G01*
X20895000Y-6635000D02*
G75*
G02*
X20925000Y-6635000I15000J0D01*
G01*
X20925000Y-10900000D02*
G75*
G02*
X20895000Y-10900000I-15000J0D01*
G01*
X20895000Y-10900000D02*
G75*
G02*
X20925000Y-10900000I15000J0D01*
G01*
X20926500Y-6122500D02*
G75*
G02*
X20896500Y-6122500I-15000J0D01*
G01*
X20896500Y-6122500D02*
G75*
G02*
X20926500Y-6122500I15000J0D01*
G01*
X21026500Y-6922500D02*
G75*
G02*
X20996500Y-6922500I-15000J0D01*
G01*
X20996500Y-6922500D02*
G75*
G02*
X21026500Y-6922500I15000J0D01*
G01*
X21135000Y-11940000D02*
G75*
G02*
X21105000Y-11940000I-15000J0D01*
G01*
X21105000Y-11940000D02*
G75*
G02*
X21135000Y-11940000I15000J0D01*
G01*
X21225000Y-5920000D02*
G75*
G02*
X21195000Y-5920000I-15000J0D01*
G01*
X21195000Y-5920000D02*
G75*
G02*
X21225000Y-5920000I15000J0D01*
G01*
X21315000Y-11150000D02*
G75*
G02*
X21285000Y-11150000I-15000J0D01*
G01*
X21285000Y-11150000D02*
G75*
G02*
X21315000Y-11150000I15000J0D01*
G01*
X21365000Y-11300000D02*
G75*
G02*
X21335000Y-11300000I-15000J0D01*
G01*
X21335000Y-11300000D02*
G75*
G02*
X21365000Y-11300000I15000J0D01*
G01*
X21426500Y-6647500D02*
G75*
G02*
X21396500Y-6647500I-15000J0D01*
G01*
X21396500Y-6647500D02*
G75*
G02*
X21426500Y-6647500I15000J0D01*
G01*
X21555000Y-9320000D02*
G75*
G02*
X21525000Y-9320000I-15000J0D01*
G01*
X21525000Y-9320000D02*
G75*
G02*
X21555000Y-9320000I15000J0D01*
G01*
X21555000Y-9500000D02*
G75*
G02*
X21525000Y-9500000I-15000J0D01*
G01*
X21525000Y-9500000D02*
G75*
G02*
X21555000Y-9500000I15000J0D01*
G01*
X21565000Y-9160000D02*
G75*
G02*
X21535000Y-9160000I-15000J0D01*
G01*
X21535000Y-9160000D02*
G75*
G02*
X21565000Y-9160000I15000J0D01*
G01*
X21625000Y-9770000D02*
G75*
G02*
X21595000Y-9770000I-15000J0D01*
G01*
X21595000Y-9770000D02*
G75*
G02*
X21625000Y-9770000I15000J0D01*
G01*
X21705000Y-9530000D02*
G75*
G02*
X21675000Y-9530000I-15000J0D01*
G01*
X21675000Y-9530000D02*
G75*
G02*
X21705000Y-9530000I15000J0D01*
G01*
X21745000Y-9160000D02*
G75*
G02*
X21715000Y-9160000I-15000J0D01*
G01*
X21715000Y-9160000D02*
G75*
G02*
X21745000Y-9160000I15000J0D01*
G01*
X21745000Y-9320000D02*
G75*
G02*
X21715000Y-9320000I-15000J0D01*
G01*
X21715000Y-9320000D02*
G75*
G02*
X21745000Y-9320000I15000J0D01*
G01*
X21875000Y-9760000D02*
G75*
G02*
X21845000Y-9760000I-15000J0D01*
G01*
X21845000Y-9760000D02*
G75*
G02*
X21875000Y-9760000I15000J0D01*
G01*
X21895000Y-9300000D02*
G75*
G02*
X21865000Y-9300000I-15000J0D01*
G01*
X21865000Y-9300000D02*
G75*
G02*
X21895000Y-9300000I15000J0D01*
G01*
X21895000Y-9470000D02*
G75*
G02*
X21865000Y-9470000I-15000J0D01*
G01*
X21865000Y-9470000D02*
G75*
G02*
X21895000Y-9470000I15000J0D01*
G01*
X21972250Y-11406350D02*
G75*
G02*
X21942250Y-11406350I-15000J0D01*
G01*
X21942250Y-11406350D02*
G75*
G02*
X21972250Y-11406350I15000J0D01*
G01*
X22115000Y-9600000D02*
G75*
G02*
X22085000Y-9600000I-15000J0D01*
G01*
X22085000Y-9600000D02*
G75*
G02*
X22115000Y-9600000I15000J0D01*
G01*
X22185000Y-6760000D02*
G75*
G02*
X22155000Y-6760000I-15000J0D01*
G01*
X22155000Y-6760000D02*
G75*
G02*
X22185000Y-6760000I15000J0D01*
G01*
X22185000Y-6860000D02*
G75*
G02*
X22155000Y-6860000I-15000J0D01*
G01*
X22155000Y-6860000D02*
G75*
G02*
X22185000Y-6860000I15000J0D01*
G01*
X22205000Y-9090000D02*
G75*
G02*
X22175000Y-9090000I-15000J0D01*
G01*
X22175000Y-9090000D02*
G75*
G02*
X22205000Y-9090000I15000J0D01*
G01*
X22295000Y-9620000D02*
G75*
G02*
X22265000Y-9620000I-15000J0D01*
G01*
X22265000Y-9620000D02*
G75*
G02*
X22295000Y-9620000I15000J0D01*
G01*
X22365000Y-6130000D02*
G75*
G02*
X22335000Y-6130000I-15000J0D01*
G01*
X22335000Y-6130000D02*
G75*
G02*
X22365000Y-6130000I15000J0D01*
G01*
X22390000Y-11165100D02*
G75*
G02*
X22360000Y-11165100I-15000J0D01*
G01*
X22360000Y-11165100D02*
G75*
G02*
X22390000Y-11165100I15000J0D01*
G01*
X22425000Y-11460000D02*
G75*
G02*
X22395000Y-11460000I-15000J0D01*
G01*
X22395000Y-11460000D02*
G75*
G02*
X22425000Y-11460000I15000J0D01*
G01*
X22451500Y-5868000D02*
G75*
G02*
X22421500Y-5868000I-15000J0D01*
G01*
X22421500Y-5868000D02*
G75*
G02*
X22451500Y-5868000I15000J0D01*
G01*
X22465000Y-12140000D02*
G75*
G02*
X22435000Y-12140000I-15000J0D01*
G01*
X22435000Y-12140000D02*
G75*
G02*
X22465000Y-12140000I15000J0D01*
G01*
X22490000Y-11965100D02*
G75*
G02*
X22460000Y-11965100I-15000J0D01*
G01*
X22460000Y-11965100D02*
G75*
G02*
X22490000Y-11965100I15000J0D01*
G01*
X22540000Y-11065100D02*
G75*
G02*
X22510000Y-11065100I-15000J0D01*
G01*
X22510000Y-11065100D02*
G75*
G02*
X22540000Y-11065100I15000J0D01*
G01*
X22685000Y-11660000D02*
G75*
G02*
X22655000Y-11660000I-15000J0D01*
G01*
X22655000Y-11660000D02*
G75*
G02*
X22685000Y-11660000I15000J0D01*
G01*
X22711500Y-6080000D02*
G75*
G02*
X22681500Y-6080000I-15000J0D01*
G01*
X22681500Y-6080000D02*
G75*
G02*
X22711500Y-6080000I15000J0D01*
G01*
X22715000Y-5500000D02*
G75*
G02*
X22685000Y-5500000I-15000J0D01*
G01*
X22685000Y-5500000D02*
G75*
G02*
X22715000Y-5500000I15000J0D01*
G01*
X22715000Y-7270000D02*
G75*
G02*
X22685000Y-7270000I-15000J0D01*
G01*
X22685000Y-7270000D02*
G75*
G02*
X22715000Y-7270000I15000J0D01*
G01*
X22725000Y-11790000D02*
G75*
G02*
X22695000Y-11790000I-15000J0D01*
G01*
X22695000Y-11790000D02*
G75*
G02*
X22725000Y-11790000I15000J0D01*
G01*
X22735000Y-12090000D02*
G75*
G02*
X22705000Y-12090000I-15000J0D01*
G01*
X22705000Y-12090000D02*
G75*
G02*
X22735000Y-12090000I15000J0D01*
G01*
X22751500Y-6475000D02*
G75*
G02*
X22721500Y-6475000I-15000J0D01*
G01*
X22721500Y-6475000D02*
G75*
G02*
X22751500Y-6475000I15000J0D01*
G01*
X22801082Y-6067472D02*
G75*
G02*
X22771082Y-6067472I-15000J0D01*
G01*
X22771082Y-6067472D02*
G75*
G02*
X22801082Y-6067472I15000J0D01*
G01*
X22801500Y-5750000D02*
G75*
G02*
X22771500Y-5750000I-15000J0D01*
G01*
X22771500Y-5750000D02*
G75*
G02*
X22801500Y-5750000I15000J0D01*
G01*
X22945000Y-12500000D02*
G75*
G02*
X22915000Y-12500000I-15000J0D01*
G01*
X22915000Y-12500000D02*
G75*
G02*
X22945000Y-12500000I15000J0D01*
G01*
X22955000Y-5570000D02*
G75*
G02*
X22925000Y-5570000I-15000J0D01*
G01*
X22925000Y-5570000D02*
G75*
G02*
X22955000Y-5570000I15000J0D01*
G01*
X23029657Y-12035296D02*
G75*
G02*
X22999657Y-12035296I-15000J0D01*
G01*
X22999657Y-12035296D02*
G75*
G02*
X23029657Y-12035296I15000J0D01*
G01*
X23040000Y-12340100D02*
G75*
G02*
X23010000Y-12340100I-15000J0D01*
G01*
X23010000Y-12340100D02*
G75*
G02*
X23040000Y-12340100I15000J0D01*
G01*
X23075000Y-6010000D02*
G75*
G02*
X23045000Y-6010000I-15000J0D01*
G01*
X23045000Y-6010000D02*
G75*
G02*
X23075000Y-6010000I15000J0D01*
G01*
X23090000Y-11615100D02*
G75*
G02*
X23060000Y-11615100I-15000J0D01*
G01*
X23060000Y-11615100D02*
G75*
G02*
X23090000Y-11615100I15000J0D01*
G01*
X23125000Y-6280000D02*
G75*
G02*
X23095000Y-6280000I-15000J0D01*
G01*
X23095000Y-6280000D02*
G75*
G02*
X23125000Y-6280000I15000J0D01*
G01*
X23130000Y-12000000D02*
G75*
G02*
X23100000Y-12000000I-15000J0D01*
G01*
X23100000Y-12000000D02*
G75*
G02*
X23130000Y-12000000I15000J0D01*
G01*
X23135000Y-10850000D02*
G75*
G02*
X23105000Y-10850000I-15000J0D01*
G01*
X23105000Y-10850000D02*
G75*
G02*
X23135000Y-10850000I15000J0D01*
G01*
X23135000Y-12610000D02*
G75*
G02*
X23105000Y-12610000I-15000J0D01*
G01*
X23105000Y-12610000D02*
G75*
G02*
X23135000Y-12610000I15000J0D01*
G01*
X23155000Y-6450000D02*
G75*
G02*
X23125000Y-6450000I-15000J0D01*
G01*
X23125000Y-6450000D02*
G75*
G02*
X23155000Y-6450000I15000J0D01*
G01*
X23301500Y-7025000D02*
G75*
G02*
X23271500Y-7025000I-15000J0D01*
G01*
X23271500Y-7025000D02*
G75*
G02*
X23301500Y-7025000I15000J0D01*
G01*
X23325000Y-6637500D02*
G75*
G02*
X23295000Y-6637500I-15000J0D01*
G01*
X23295000Y-6637500D02*
G75*
G02*
X23325000Y-6637500I15000J0D01*
G01*
X23351500Y-6125000D02*
G75*
G02*
X23321500Y-6125000I-15000J0D01*
G01*
X23321500Y-6125000D02*
G75*
G02*
X23351500Y-6125000I15000J0D01*
G01*
X23385000Y-5950000D02*
G75*
G02*
X23355000Y-5950000I-15000J0D01*
G01*
X23355000Y-5950000D02*
G75*
G02*
X23385000Y-5950000I15000J0D01*
G01*
X23451500Y-6925000D02*
G75*
G02*
X23421500Y-6925000I-15000J0D01*
G01*
X23421500Y-6925000D02*
G75*
G02*
X23451500Y-6925000I15000J0D01*
G01*
X23455000Y-11960000D02*
G75*
G02*
X23425000Y-11960000I-15000J0D01*
G01*
X23425000Y-11960000D02*
G75*
G02*
X23455000Y-11960000I15000J0D01*
G01*
X23555000Y-10130000D02*
G75*
G02*
X23525000Y-10130000I-15000J0D01*
G01*
X23525000Y-10130000D02*
G75*
G02*
X23555000Y-10130000I15000J0D01*
G01*
X23655000Y-11200000D02*
G75*
G02*
X23625000Y-11200000I-15000J0D01*
G01*
X23625000Y-11200000D02*
G75*
G02*
X23655000Y-11200000I15000J0D01*
G01*
X23695000Y-11330000D02*
G75*
G02*
X23665000Y-11330000I-15000J0D01*
G01*
X23665000Y-11330000D02*
G75*
G02*
X23695000Y-11330000I15000J0D01*
G01*
X23851500Y-6668000D02*
G75*
G02*
X23821500Y-6668000I-15000J0D01*
G01*
X23821500Y-6668000D02*
G75*
G02*
X23851500Y-6668000I15000J0D01*
G01*
X23885000Y-10840000D02*
G75*
G02*
X23855000Y-10840000I-15000J0D01*
G01*
X23855000Y-10840000D02*
G75*
G02*
X23885000Y-10840000I15000J0D01*
G01*
X23945000Y-10940000D02*
G75*
G02*
X23915000Y-10940000I-15000J0D01*
G01*
X23915000Y-10940000D02*
G75*
G02*
X23945000Y-10940000I15000J0D01*
G01*
X23975000Y-10840000D02*
G75*
G02*
X23945000Y-10840000I-15000J0D01*
G01*
X23945000Y-10840000D02*
G75*
G02*
X23975000Y-10840000I15000J0D01*
G01*
X23990000Y-9675000D02*
G75*
G02*
X23960000Y-9675000I-15000J0D01*
G01*
X23960000Y-9675000D02*
G75*
G02*
X23990000Y-9675000I15000J0D01*
G01*
X24065000Y-10870000D02*
G75*
G02*
X24035000Y-10870000I-15000J0D01*
G01*
X24035000Y-10870000D02*
G75*
G02*
X24065000Y-10870000I15000J0D01*
G01*
X24075000Y-10980000D02*
G75*
G02*
X24045000Y-10980000I-15000J0D01*
G01*
X24045000Y-10980000D02*
G75*
G02*
X24075000Y-10980000I15000J0D01*
G01*
X24265000Y-10400000D02*
G75*
G02*
X24235000Y-10400000I-15000J0D01*
G01*
X24235000Y-10400000D02*
G75*
G02*
X24265000Y-10400000I15000J0D01*
G01*
X12113750Y-5171500D02*
X12113750Y-5260500D01*
X12069250Y-5216000D02*
X12158250Y-5216000D01*
X12113750Y-5425500D02*
X12113750Y-5514500D01*
X12069250Y-5470000D02*
X12158250Y-5470000D01*
X12113750Y-5679500D02*
X12113750Y-5768500D01*
X12069250Y-5724000D02*
X12158250Y-5724000D01*
X16274295Y-7896295D02*
X16274295Y-7827705D01*
X16205705Y-7827705D01*
X16205705Y-7896295D01*
X16274295Y-7896295D01*
X16274295Y-8150295D02*
X16274295Y-8081705D01*
X16205705Y-8081705D01*
X16205705Y-8150295D01*
X16274295Y-8150295D01*
X16274295Y-8404295D02*
X16274295Y-8335705D01*
X16205705Y-8335705D01*
X16205705Y-8404295D01*
X16274295Y-8404295D01*
X17036295Y-7896295D02*
X17036295Y-7827705D01*
X16967705Y-7827705D01*
X16967705Y-7896295D01*
X17036295Y-7896295D01*
X17036295Y-8150295D02*
X17036295Y-8081705D01*
X16967705Y-8081705D01*
X16967705Y-8150295D01*
X17036295Y-8150295D01*
X17036295Y-8404295D02*
X17036295Y-8335705D01*
X16967705Y-8335705D01*
X16967705Y-8404295D01*
X17036295Y-8404295D01*
X23390000Y-8360000D02*
X23440000Y-8310000D01*
X23390000Y-8260000D01*
X23340000Y-8310000D01*
X23390000Y-8360000D01*
X23440000Y-8435000D02*
X23440000Y-8185000D01*
X23340000Y-8185000D02*
G75*
G02*
X23440000Y-8185000I50000J0D01*
G01*
X23340000Y-8185000D02*
X23340000Y-8435000D01*
X23340000Y-8435000D02*
G75*
G03*
X23440000Y-8435000I50000J0D01*
G01*
X23690000Y-7890000D02*
X23740000Y-7840000D01*
X23690000Y-7790000D01*
X23640000Y-7840000D01*
X23690000Y-7890000D01*
X23790000Y-7790000D02*
X23590000Y-7790000D01*
X23590000Y-7890000D02*
G75*
G02*
X23590000Y-7790000I0J50000D01*
G01*
X23590000Y-7890000D02*
X23790000Y-7890000D01*
X23790000Y-7890000D02*
G75*
G03*
X23790000Y-7790000I0J50000D01*
G01*
X23990000Y-8360000D02*
X24040000Y-8310000D01*
X23990000Y-8260000D01*
X23940000Y-8310000D01*
X23990000Y-8360000D01*
X24040000Y-8410000D02*
X24040000Y-8210000D01*
X23940000Y-8210000D02*
G75*
G02*
X24040000Y-8210000I50000J0D01*
G01*
X23940000Y-8210000D02*
X23940000Y-8410000D01*
X23940000Y-8410000D02*
G75*
G03*
X24040000Y-8410000I50000J0D01*
G01*
D13*
X10217000Y-5085000D02*
X10327000Y-5195000D01*
X10327000Y-5085000D02*
X10217000Y-5195000D01*
X10327000Y-5140000D02*
G75*
G02*
X10217000Y-5140000I-55000J0D01*
G01*
X10217000Y-5140000D02*
G75*
G02*
X10327000Y-5140000I55000J0D01*
G01*
X10471000Y-5085000D02*
X10581000Y-5195000D01*
X10581000Y-5085000D02*
X10471000Y-5195000D01*
X10581000Y-5140000D02*
G75*
G02*
X10471000Y-5140000I-55000J0D01*
G01*
X10471000Y-5140000D02*
G75*
G02*
X10581000Y-5140000I55000J0D01*
G01*
X10725000Y-5085000D02*
X10835000Y-5195000D01*
X10835000Y-5085000D02*
X10725000Y-5195000D01*
X10835000Y-5140000D02*
G75*
G02*
X10725000Y-5140000I-55000J0D01*
G01*
X10725000Y-5140000D02*
G75*
G02*
X10835000Y-5140000I55000J0D01*
G01*
X10979000Y-5085000D02*
X11089000Y-5195000D01*
X11089000Y-5085000D02*
X10979000Y-5195000D01*
X11089000Y-5140000D02*
G75*
G02*
X10979000Y-5140000I-55000J0D01*
G01*
X10979000Y-5140000D02*
G75*
G02*
X11089000Y-5140000I55000J0D01*
G01*
X10987000Y-13085000D02*
X11097000Y-13195000D01*
X11097000Y-13085000D02*
X10987000Y-13195000D01*
X11097000Y-13140000D02*
G75*
G02*
X10987000Y-13140000I-55000J0D01*
G01*
X10987000Y-13140000D02*
G75*
G02*
X11097000Y-13140000I55000J0D01*
G01*
X11233000Y-5085000D02*
X11343000Y-5195000D01*
X11343000Y-5085000D02*
X11233000Y-5195000D01*
X11343000Y-5140000D02*
G75*
G02*
X11233000Y-5140000I-55000J0D01*
G01*
X11233000Y-5140000D02*
G75*
G02*
X11343000Y-5140000I55000J0D01*
G01*
X11241000Y-13085000D02*
X11351000Y-13195000D01*
X11351000Y-13085000D02*
X11241000Y-13195000D01*
X11351000Y-13140000D02*
G75*
G02*
X11241000Y-13140000I-55000J0D01*
G01*
X11241000Y-13140000D02*
G75*
G02*
X11351000Y-13140000I55000J0D01*
G01*
X11495000Y-13085000D02*
X11605000Y-13195000D01*
X11605000Y-13085000D02*
X11495000Y-13195000D01*
X11605000Y-13140000D02*
G75*
G02*
X11495000Y-13140000I-55000J0D01*
G01*
X11495000Y-13140000D02*
G75*
G02*
X11605000Y-13140000I55000J0D01*
G01*
X11749000Y-13085000D02*
X11859000Y-13195000D01*
X11859000Y-13085000D02*
X11749000Y-13195000D01*
X11859000Y-13140000D02*
G75*
G02*
X11749000Y-13140000I-55000J0D01*
G01*
X11749000Y-13140000D02*
G75*
G02*
X11859000Y-13140000I55000J0D01*
G01*
X12003000Y-13085000D02*
X12113000Y-13195000D01*
X12113000Y-13085000D02*
X12003000Y-13195000D01*
X12113000Y-13140000D02*
G75*
G02*
X12003000Y-13140000I-55000J0D01*
G01*
X12003000Y-13140000D02*
G75*
G02*
X12113000Y-13140000I55000J0D01*
G01*
X12837000Y-5085000D02*
X12947000Y-5195000D01*
X12947000Y-5085000D02*
X12837000Y-5195000D01*
X12947000Y-5140000D02*
G75*
G02*
X12837000Y-5140000I-55000J0D01*
G01*
X12837000Y-5140000D02*
G75*
G02*
X12947000Y-5140000I55000J0D01*
G01*
X13091000Y-5085000D02*
X13201000Y-5195000D01*
X13201000Y-5085000D02*
X13091000Y-5195000D01*
X13201000Y-5140000D02*
G75*
G02*
X13091000Y-5140000I-55000J0D01*
G01*
X13091000Y-5140000D02*
G75*
G02*
X13201000Y-5140000I55000J0D01*
G01*
X13345000Y-5085000D02*
X13455000Y-5195000D01*
X13455000Y-5085000D02*
X13345000Y-5195000D01*
X13455000Y-5140000D02*
G75*
G02*
X13345000Y-5140000I-55000J0D01*
G01*
X13345000Y-5140000D02*
G75*
G02*
X13455000Y-5140000I55000J0D01*
G01*
X13367000Y-13085000D02*
X13477000Y-13195000D01*
X13477000Y-13085000D02*
X13367000Y-13195000D01*
X13477000Y-13140000D02*
G75*
G02*
X13367000Y-13140000I-55000J0D01*
G01*
X13367000Y-13140000D02*
G75*
G02*
X13477000Y-13140000I55000J0D01*
G01*
X13599000Y-5085000D02*
X13709000Y-5195000D01*
X13709000Y-5085000D02*
X13599000Y-5195000D01*
X13709000Y-5140000D02*
G75*
G02*
X13599000Y-5140000I-55000J0D01*
G01*
X13599000Y-5140000D02*
G75*
G02*
X13709000Y-5140000I55000J0D01*
G01*
X13621000Y-13085000D02*
X13731000Y-13195000D01*
X13731000Y-13085000D02*
X13621000Y-13195000D01*
X13731000Y-13140000D02*
G75*
G02*
X13621000Y-13140000I-55000J0D01*
G01*
X13621000Y-13140000D02*
G75*
G02*
X13731000Y-13140000I55000J0D01*
G01*
X13853000Y-5085000D02*
X13963000Y-5195000D01*
X13963000Y-5085000D02*
X13853000Y-5195000D01*
X13963000Y-5140000D02*
G75*
G02*
X13853000Y-5140000I-55000J0D01*
G01*
X13853000Y-5140000D02*
G75*
G02*
X13963000Y-5140000I55000J0D01*
G01*
X13875000Y-13085000D02*
X13985000Y-13195000D01*
X13985000Y-13085000D02*
X13875000Y-13195000D01*
X13985000Y-13140000D02*
G75*
G02*
X13875000Y-13140000I-55000J0D01*
G01*
X13875000Y-13140000D02*
G75*
G02*
X13985000Y-13140000I55000J0D01*
G01*
X14129000Y-13085000D02*
X14239000Y-13195000D01*
X14239000Y-13085000D02*
X14129000Y-13195000D01*
X14239000Y-13140000D02*
G75*
G02*
X14129000Y-13140000I-55000J0D01*
G01*
X14129000Y-13140000D02*
G75*
G02*
X14239000Y-13140000I55000J0D01*
G01*
X14383000Y-13085000D02*
X14493000Y-13195000D01*
X14493000Y-13085000D02*
X14383000Y-13195000D01*
X14493000Y-13140000D02*
G75*
G02*
X14383000Y-13140000I-55000J0D01*
G01*
X14383000Y-13140000D02*
G75*
G02*
X14493000Y-13140000I55000J0D01*
G01*
X15167000Y-5085000D02*
X15277000Y-5195000D01*
X15277000Y-5085000D02*
X15167000Y-5195000D01*
X15277000Y-5140000D02*
G75*
G02*
X15167000Y-5140000I-55000J0D01*
G01*
X15167000Y-5140000D02*
G75*
G02*
X15277000Y-5140000I55000J0D01*
G01*
X15421000Y-5085000D02*
X15531000Y-5195000D01*
X15531000Y-5085000D02*
X15421000Y-5195000D01*
X15531000Y-5140000D02*
G75*
G02*
X15421000Y-5140000I-55000J0D01*
G01*
X15421000Y-5140000D02*
G75*
G02*
X15531000Y-5140000I55000J0D01*
G01*
X15675000Y-5085000D02*
X15785000Y-5195000D01*
X15785000Y-5085000D02*
X15675000Y-5195000D01*
X15785000Y-5140000D02*
G75*
G02*
X15675000Y-5140000I-55000J0D01*
G01*
X15675000Y-5140000D02*
G75*
G02*
X15785000Y-5140000I55000J0D01*
G01*
X15861000Y-13085000D02*
X15971000Y-13195000D01*
X15971000Y-13085000D02*
X15861000Y-13195000D01*
X15971000Y-13140000D02*
G75*
G02*
X15861000Y-13140000I-55000J0D01*
G01*
X15861000Y-13140000D02*
G75*
G02*
X15971000Y-13140000I55000J0D01*
G01*
X15929000Y-5085000D02*
X16039000Y-5195000D01*
X16039000Y-5085000D02*
X15929000Y-5195000D01*
X16039000Y-5140000D02*
G75*
G02*
X15929000Y-5140000I-55000J0D01*
G01*
X15929000Y-5140000D02*
G75*
G02*
X16039000Y-5140000I55000J0D01*
G01*
X16115000Y-13085000D02*
X16225000Y-13195000D01*
X16225000Y-13085000D02*
X16115000Y-13195000D01*
X16225000Y-13140000D02*
G75*
G02*
X16115000Y-13140000I-55000J0D01*
G01*
X16115000Y-13140000D02*
G75*
G02*
X16225000Y-13140000I55000J0D01*
G01*
X16183000Y-5085000D02*
X16293000Y-5195000D01*
X16293000Y-5085000D02*
X16183000Y-5195000D01*
X16293000Y-5140000D02*
G75*
G02*
X16183000Y-5140000I-55000J0D01*
G01*
X16183000Y-5140000D02*
G75*
G02*
X16293000Y-5140000I55000J0D01*
G01*
X16369000Y-13085000D02*
X16479000Y-13195000D01*
X16479000Y-13085000D02*
X16369000Y-13195000D01*
X16479000Y-13140000D02*
G75*
G02*
X16369000Y-13140000I-55000J0D01*
G01*
X16369000Y-13140000D02*
G75*
G02*
X16479000Y-13140000I55000J0D01*
G01*
X16623000Y-13085000D02*
X16733000Y-13195000D01*
X16733000Y-13085000D02*
X16623000Y-13195000D01*
X16733000Y-13140000D02*
G75*
G02*
X16623000Y-13140000I-55000J0D01*
G01*
X16623000Y-13140000D02*
G75*
G02*
X16733000Y-13140000I55000J0D01*
G01*
X16877000Y-13085000D02*
X16987000Y-13195000D01*
X16987000Y-13085000D02*
X16877000Y-13195000D01*
X16987000Y-13140000D02*
G75*
G02*
X16877000Y-13140000I-55000J0D01*
G01*
X16877000Y-13140000D02*
G75*
G02*
X16987000Y-13140000I55000J0D01*
G01*
X17591000Y-5085000D02*
X17701000Y-5195000D01*
X17701000Y-5085000D02*
X17591000Y-5195000D01*
X17701000Y-5140000D02*
G75*
G02*
X17591000Y-5140000I-55000J0D01*
G01*
X17591000Y-5140000D02*
G75*
G02*
X17701000Y-5140000I55000J0D01*
G01*
X17845000Y-5085000D02*
X17955000Y-5195000D01*
X17955000Y-5085000D02*
X17845000Y-5195000D01*
X17955000Y-5140000D02*
G75*
G02*
X17845000Y-5140000I-55000J0D01*
G01*
X17845000Y-5140000D02*
G75*
G02*
X17955000Y-5140000I55000J0D01*
G01*
X18099000Y-5085000D02*
X18209000Y-5195000D01*
X18209000Y-5085000D02*
X18099000Y-5195000D01*
X18209000Y-5140000D02*
G75*
G02*
X18099000Y-5140000I-55000J0D01*
G01*
X18099000Y-5140000D02*
G75*
G02*
X18209000Y-5140000I55000J0D01*
G01*
X18107000Y-13085000D02*
X18217000Y-13195000D01*
X18217000Y-13085000D02*
X18107000Y-13195000D01*
X18217000Y-13140000D02*
G75*
G02*
X18107000Y-13140000I-55000J0D01*
G01*
X18107000Y-13140000D02*
G75*
G02*
X18217000Y-13140000I55000J0D01*
G01*
X18353000Y-5085000D02*
X18463000Y-5195000D01*
X18463000Y-5085000D02*
X18353000Y-5195000D01*
X18463000Y-5140000D02*
G75*
G02*
X18353000Y-5140000I-55000J0D01*
G01*
X18353000Y-5140000D02*
G75*
G02*
X18463000Y-5140000I55000J0D01*
G01*
X18361000Y-13085000D02*
X18471000Y-13195000D01*
X18471000Y-13085000D02*
X18361000Y-13195000D01*
X18471000Y-13140000D02*
G75*
G02*
X18361000Y-13140000I-55000J0D01*
G01*
X18361000Y-13140000D02*
G75*
G02*
X18471000Y-13140000I55000J0D01*
G01*
X18607000Y-5085000D02*
X18717000Y-5195000D01*
X18717000Y-5085000D02*
X18607000Y-5195000D01*
X18717000Y-5140000D02*
G75*
G02*
X18607000Y-5140000I-55000J0D01*
G01*
X18607000Y-5140000D02*
G75*
G02*
X18717000Y-5140000I55000J0D01*
G01*
X18615000Y-13085000D02*
X18725000Y-13195000D01*
X18725000Y-13085000D02*
X18615000Y-13195000D01*
X18725000Y-13140000D02*
G75*
G02*
X18615000Y-13140000I-55000J0D01*
G01*
X18615000Y-13140000D02*
G75*
G02*
X18725000Y-13140000I55000J0D01*
G01*
X18869000Y-13085000D02*
X18979000Y-13195000D01*
X18979000Y-13085000D02*
X18869000Y-13195000D01*
X18979000Y-13140000D02*
G75*
G02*
X18869000Y-13140000I-55000J0D01*
G01*
X18869000Y-13140000D02*
G75*
G02*
X18979000Y-13140000I55000J0D01*
G01*
X19123000Y-13085000D02*
X19233000Y-13195000D01*
X19233000Y-13085000D02*
X19123000Y-13195000D01*
X19233000Y-13140000D02*
G75*
G02*
X19123000Y-13140000I-55000J0D01*
G01*
X19123000Y-13140000D02*
G75*
G02*
X19233000Y-13140000I55000J0D01*
G01*
X19949000Y-5085000D02*
X20059000Y-5195000D01*
X20059000Y-5085000D02*
X19949000Y-5195000D01*
X20059000Y-5140000D02*
G75*
G02*
X19949000Y-5140000I-55000J0D01*
G01*
X19949000Y-5140000D02*
G75*
G02*
X20059000Y-5140000I55000J0D01*
G01*
X20203000Y-5085000D02*
X20313000Y-5195000D01*
X20313000Y-5085000D02*
X20203000Y-5195000D01*
X20313000Y-5140000D02*
G75*
G02*
X20203000Y-5140000I-55000J0D01*
G01*
X20203000Y-5140000D02*
G75*
G02*
X20313000Y-5140000I55000J0D01*
G01*
X20243000Y-13035000D02*
X20353000Y-13145000D01*
X20353000Y-13035000D02*
X20243000Y-13145000D01*
X20353000Y-13090000D02*
G75*
G02*
X20243000Y-13090000I-55000J0D01*
G01*
X20243000Y-13090000D02*
G75*
G02*
X20353000Y-13090000I55000J0D01*
G01*
X20457000Y-5085000D02*
X20567000Y-5195000D01*
X20567000Y-5085000D02*
X20457000Y-5195000D01*
X20567000Y-5140000D02*
G75*
G02*
X20457000Y-5140000I-55000J0D01*
G01*
X20457000Y-5140000D02*
G75*
G02*
X20567000Y-5140000I55000J0D01*
G01*
X20497000Y-13035000D02*
X20607000Y-13145000D01*
X20607000Y-13035000D02*
X20497000Y-13145000D01*
X20607000Y-13090000D02*
G75*
G02*
X20497000Y-13090000I-55000J0D01*
G01*
X20497000Y-13090000D02*
G75*
G02*
X20607000Y-13090000I55000J0D01*
G01*
X20711000Y-5085000D02*
X20821000Y-5195000D01*
X20821000Y-5085000D02*
X20711000Y-5195000D01*
X20821000Y-5140000D02*
G75*
G02*
X20711000Y-5140000I-55000J0D01*
G01*
X20711000Y-5140000D02*
G75*
G02*
X20821000Y-5140000I55000J0D01*
G01*
X20751000Y-13035000D02*
X20861000Y-13145000D01*
X20861000Y-13035000D02*
X20751000Y-13145000D01*
X20861000Y-13090000D02*
G75*
G02*
X20751000Y-13090000I-55000J0D01*
G01*
X20751000Y-13090000D02*
G75*
G02*
X20861000Y-13090000I55000J0D01*
G01*
X20965000Y-5085000D02*
X21075000Y-5195000D01*
X21075000Y-5085000D02*
X20965000Y-5195000D01*
X21075000Y-5140000D02*
G75*
G02*
X20965000Y-5140000I-55000J0D01*
G01*
X20965000Y-5140000D02*
G75*
G02*
X21075000Y-5140000I55000J0D01*
G01*
X21005000Y-13035000D02*
X21115000Y-13145000D01*
X21115000Y-13035000D02*
X21005000Y-13145000D01*
X21115000Y-13090000D02*
G75*
G02*
X21005000Y-13090000I-55000J0D01*
G01*
X21005000Y-13090000D02*
G75*
G02*
X21115000Y-13090000I55000J0D01*
G01*
X21259000Y-13035000D02*
X21369000Y-13145000D01*
X21369000Y-13035000D02*
X21259000Y-13145000D01*
X21369000Y-13090000D02*
G75*
G02*
X21259000Y-13090000I-55000J0D01*
G01*
X21259000Y-13090000D02*
G75*
G02*
X21369000Y-13090000I55000J0D01*
G01*
X22277000Y-5085000D02*
X22387000Y-5195000D01*
X22387000Y-5085000D02*
X22277000Y-5195000D01*
X22387000Y-5140000D02*
G75*
G02*
X22277000Y-5140000I-55000J0D01*
G01*
X22277000Y-5140000D02*
G75*
G02*
X22387000Y-5140000I55000J0D01*
G01*
X22531000Y-5085000D02*
X22641000Y-5195000D01*
X22641000Y-5085000D02*
X22531000Y-5195000D01*
X22641000Y-5140000D02*
G75*
G02*
X22531000Y-5140000I-55000J0D01*
G01*
X22531000Y-5140000D02*
G75*
G02*
X22641000Y-5140000I55000J0D01*
G01*
X22577000Y-13085000D02*
X22687000Y-13195000D01*
X22687000Y-13085000D02*
X22577000Y-13195000D01*
X22687000Y-13140000D02*
G75*
G02*
X22577000Y-13140000I-55000J0D01*
G01*
X22577000Y-13140000D02*
G75*
G02*
X22687000Y-13140000I55000J0D01*
G01*
X22785000Y-5085000D02*
X22895000Y-5195000D01*
X22895000Y-5085000D02*
X22785000Y-5195000D01*
X22895000Y-5140000D02*
G75*
G02*
X22785000Y-5140000I-55000J0D01*
G01*
X22785000Y-5140000D02*
G75*
G02*
X22895000Y-5140000I55000J0D01*
G01*
X22831000Y-13085000D02*
X22941000Y-13195000D01*
X22941000Y-13085000D02*
X22831000Y-13195000D01*
X22941000Y-13140000D02*
G75*
G02*
X22831000Y-13140000I-55000J0D01*
G01*
X22831000Y-13140000D02*
G75*
G02*
X22941000Y-13140000I55000J0D01*
G01*
X23039000Y-5085000D02*
X23149000Y-5195000D01*
X23149000Y-5085000D02*
X23039000Y-5195000D01*
X23149000Y-5140000D02*
G75*
G02*
X23039000Y-5140000I-55000J0D01*
G01*
X23039000Y-5140000D02*
G75*
G02*
X23149000Y-5140000I55000J0D01*
G01*
X23085000Y-13085000D02*
X23195000Y-13195000D01*
X23195000Y-13085000D02*
X23085000Y-13195000D01*
X23195000Y-13140000D02*
G75*
G02*
X23085000Y-13140000I-55000J0D01*
G01*
X23085000Y-13140000D02*
G75*
G02*
X23195000Y-13140000I55000J0D01*
G01*
X23293000Y-5085000D02*
X23403000Y-5195000D01*
X23403000Y-5085000D02*
X23293000Y-5195000D01*
X23403000Y-5140000D02*
G75*
G02*
X23293000Y-5140000I-55000J0D01*
G01*
X23293000Y-5140000D02*
G75*
G02*
X23403000Y-5140000I55000J0D01*
G01*
X23339000Y-13085000D02*
X23449000Y-13195000D01*
X23449000Y-13085000D02*
X23339000Y-13195000D01*
X23449000Y-13140000D02*
G75*
G02*
X23339000Y-13140000I-55000J0D01*
G01*
X23339000Y-13140000D02*
G75*
G02*
X23449000Y-13140000I55000J0D01*
G01*
X23593000Y-13085000D02*
X23703000Y-13195000D01*
X23703000Y-13085000D02*
X23593000Y-13195000D01*
X23703000Y-13140000D02*
G75*
G02*
X23593000Y-13140000I-55000J0D01*
G01*
X23593000Y-13140000D02*
G75*
G02*
X23703000Y-13140000I55000J0D01*
G01*
X24184000Y-7085000D02*
X24294000Y-7195000D01*
X24294000Y-7085000D02*
X24184000Y-7195000D01*
X24294000Y-7140000D02*
G75*
G02*
X24184000Y-7140000I-55000J0D01*
G01*
X24184000Y-7140000D02*
G75*
G02*
X24294000Y-7140000I55000J0D01*
G01*
X24565000Y-7085000D02*
X24675000Y-7195000D01*
X24675000Y-7085000D02*
X24565000Y-7195000D01*
X24675000Y-7140000D02*
G75*
G02*
X24565000Y-7140000I-55000J0D01*
G01*
X24565000Y-7140000D02*
G75*
G02*
X24675000Y-7140000I55000J0D01*
G01*
D14*
X22127500Y-9237500D02*
X22312500Y-9422500D01*
X22312500Y-9237500D02*
X22127500Y-9422500D01*
X22220000Y-9237500D02*
X22220000Y-9422500D01*
X22127500Y-9330000D02*
X22312500Y-9330000D01*
X22597500Y-9237500D02*
X22782500Y-9422500D01*
X22782500Y-9237500D02*
X22597500Y-9422500D01*
X22690000Y-9237500D02*
X22690000Y-9422500D01*
X22597500Y-9330000D02*
X22782500Y-9330000D01*
X23067500Y-9237500D02*
X23252500Y-9422500D01*
X23252500Y-9237500D02*
X23067500Y-9422500D01*
X23160000Y-9237500D02*
X23160000Y-9422500D01*
X23067500Y-9330000D02*
X23252500Y-9330000D01*
D11*
X9678277Y-13618984D02*
X9678277Y-13418984D01*
X9678277Y-13418984D02*
X9725896Y-13418984D01*
X9725896Y-13418984D02*
X9754467Y-13428508D01*
X9754467Y-13428508D02*
X9773515Y-13447555D01*
X9773515Y-13447555D02*
X9783039Y-13466603D01*
X9783039Y-13466603D02*
X9792563Y-13504698D01*
X9792563Y-13504698D02*
X9792563Y-13533269D01*
X9792563Y-13533269D02*
X9783039Y-13571365D01*
X9783039Y-13571365D02*
X9773515Y-13590412D01*
X9773515Y-13590412D02*
X9754467Y-13609460D01*
X9754467Y-13609460D02*
X9725896Y-13618984D01*
X9725896Y-13618984D02*
X9678277Y-13618984D01*
X9878277Y-13618984D02*
X9878277Y-13485650D01*
X9878277Y-13523746D02*
X9887801Y-13504698D01*
X9887801Y-13504698D02*
X9897324Y-13495174D01*
X9897324Y-13495174D02*
X9916372Y-13485650D01*
X9916372Y-13485650D02*
X9935420Y-13485650D01*
X10002086Y-13618984D02*
X10002086Y-13485650D01*
X10002086Y-13418984D02*
X9992563Y-13428508D01*
X9992563Y-13428508D02*
X10002086Y-13438031D01*
X10002086Y-13438031D02*
X10011610Y-13428508D01*
X10011610Y-13428508D02*
X10002086Y-13418984D01*
X10002086Y-13418984D02*
X10002086Y-13438031D01*
X10125896Y-13618984D02*
X10106848Y-13609460D01*
X10106848Y-13609460D02*
X10097324Y-13590412D01*
X10097324Y-13590412D02*
X10097324Y-13418984D01*
X10230658Y-13618984D02*
X10211610Y-13609460D01*
X10211610Y-13609460D02*
X10202086Y-13590412D01*
X10202086Y-13590412D02*
X10202086Y-13418984D01*
X10459229Y-13618984D02*
X10459229Y-13418984D01*
X10459229Y-13418984D02*
X10525896Y-13561841D01*
X10525896Y-13561841D02*
X10592563Y-13418984D01*
X10592563Y-13418984D02*
X10592563Y-13618984D01*
X10773515Y-13618984D02*
X10773515Y-13514222D01*
X10773515Y-13514222D02*
X10763991Y-13495174D01*
X10763991Y-13495174D02*
X10744944Y-13485650D01*
X10744944Y-13485650D02*
X10706848Y-13485650D01*
X10706848Y-13485650D02*
X10687801Y-13495174D01*
X10773515Y-13609460D02*
X10754467Y-13618984D01*
X10754467Y-13618984D02*
X10706848Y-13618984D01*
X10706848Y-13618984D02*
X10687801Y-13609460D01*
X10687801Y-13609460D02*
X10678277Y-13590412D01*
X10678277Y-13590412D02*
X10678277Y-13571365D01*
X10678277Y-13571365D02*
X10687801Y-13552317D01*
X10687801Y-13552317D02*
X10706848Y-13542793D01*
X10706848Y-13542793D02*
X10754467Y-13542793D01*
X10754467Y-13542793D02*
X10773515Y-13533269D01*
X10868753Y-13485650D02*
X10868753Y-13685650D01*
X10868753Y-13495174D02*
X10887801Y-13485650D01*
X10887801Y-13485650D02*
X10925896Y-13485650D01*
X10925896Y-13485650D02*
X10944944Y-13495174D01*
X10944944Y-13495174D02*
X10954467Y-13504698D01*
X10954467Y-13504698D02*
X10963991Y-13523746D01*
X10963991Y-13523746D02*
X10963991Y-13580888D01*
X10963991Y-13580888D02*
X10954467Y-13599936D01*
X10954467Y-13599936D02*
X10944944Y-13609460D01*
X10944944Y-13609460D02*
X10925896Y-13618984D01*
X10925896Y-13618984D02*
X10887801Y-13618984D01*
X10887801Y-13618984D02*
X10868753Y-13609460D01*
X11049705Y-13599936D02*
X11059229Y-13609460D01*
X11059229Y-13609460D02*
X11049705Y-13618984D01*
X11049705Y-13618984D02*
X11040182Y-13609460D01*
X11040182Y-13609460D02*
X11049705Y-13599936D01*
X11049705Y-13599936D02*
X11049705Y-13618984D01*
X11049705Y-13495174D02*
X11059229Y-13504698D01*
X11059229Y-13504698D02*
X11049705Y-13514222D01*
X11049705Y-13514222D02*
X11040182Y-13504698D01*
X11040182Y-13504698D02*
X11049705Y-13495174D01*
X11049705Y-13495174D02*
X11049705Y-13514222D01*
D12*
X9397500Y-13937500D02*
X9417500Y-13957500D01*
X9417500Y-13937500D02*
X9397500Y-13957500D01*
D11*
X9716372Y-13838984D02*
X9735420Y-13838984D01*
X9735420Y-13838984D02*
X9754467Y-13848508D01*
X9754467Y-13848508D02*
X9763991Y-13858031D01*
X9763991Y-13858031D02*
X9773515Y-13877079D01*
X9773515Y-13877079D02*
X9783039Y-13915174D01*
X9783039Y-13915174D02*
X9783039Y-13962793D01*
X9783039Y-13962793D02*
X9773515Y-14000888D01*
X9773515Y-14000888D02*
X9763991Y-14019936D01*
X9763991Y-14019936D02*
X9754467Y-14029460D01*
X9754467Y-14029460D02*
X9735420Y-14038984D01*
X9735420Y-14038984D02*
X9716372Y-14038984D01*
X9716372Y-14038984D02*
X9697324Y-14029460D01*
X9697324Y-14029460D02*
X9687801Y-14019936D01*
X9687801Y-14019936D02*
X9678277Y-14000888D01*
X9678277Y-14000888D02*
X9668753Y-13962793D01*
X9668753Y-13962793D02*
X9668753Y-13915174D01*
X9668753Y-13915174D02*
X9678277Y-13877079D01*
X9678277Y-13877079D02*
X9687801Y-13858031D01*
X9687801Y-13858031D02*
X9697324Y-13848508D01*
X9697324Y-13848508D02*
X9716372Y-13838984D01*
X9868753Y-14019936D02*
X9878277Y-14029460D01*
X9878277Y-14029460D02*
X9868753Y-14038984D01*
X9868753Y-14038984D02*
X9859229Y-14029460D01*
X9859229Y-14029460D02*
X9868753Y-14019936D01*
X9868753Y-14019936D02*
X9868753Y-14038984D01*
X9954467Y-13858031D02*
X9963991Y-13848508D01*
X9963991Y-13848508D02*
X9983039Y-13838984D01*
X9983039Y-13838984D02*
X10030658Y-13838984D01*
X10030658Y-13838984D02*
X10049705Y-13848508D01*
X10049705Y-13848508D02*
X10059229Y-13858031D01*
X10059229Y-13858031D02*
X10068753Y-13877079D01*
X10068753Y-13877079D02*
X10068753Y-13896127D01*
X10068753Y-13896127D02*
X10059229Y-13924698D01*
X10059229Y-13924698D02*
X9944944Y-14038984D01*
X9944944Y-14038984D02*
X10068753Y-14038984D01*
X10192563Y-13838984D02*
X10211610Y-13838984D01*
X10211610Y-13838984D02*
X10230658Y-13848508D01*
X10230658Y-13848508D02*
X10240182Y-13858031D01*
X10240182Y-13858031D02*
X10249705Y-13877079D01*
X10249705Y-13877079D02*
X10259229Y-13915174D01*
X10259229Y-13915174D02*
X10259229Y-13962793D01*
X10259229Y-13962793D02*
X10249705Y-14000888D01*
X10249705Y-14000888D02*
X10240182Y-14019936D01*
X10240182Y-14019936D02*
X10230658Y-14029460D01*
X10230658Y-14029460D02*
X10211610Y-14038984D01*
X10211610Y-14038984D02*
X10192563Y-14038984D01*
X10192563Y-14038984D02*
X10173515Y-14029460D01*
X10173515Y-14029460D02*
X10163991Y-14019936D01*
X10163991Y-14019936D02*
X10154467Y-14000888D01*
X10154467Y-14000888D02*
X10144944Y-13962793D01*
X10144944Y-13962793D02*
X10144944Y-13915174D01*
X10144944Y-13915174D02*
X10154467Y-13877079D01*
X10154467Y-13877079D02*
X10163991Y-13858031D01*
X10163991Y-13858031D02*
X10173515Y-13848508D01*
X10173515Y-13848508D02*
X10192563Y-13838984D01*
X10383039Y-13838984D02*
X10402086Y-13838984D01*
X10402086Y-13838984D02*
X10421134Y-13848508D01*
X10421134Y-13848508D02*
X10430658Y-13858031D01*
X10430658Y-13858031D02*
X10440182Y-13877079D01*
X10440182Y-13877079D02*
X10449705Y-13915174D01*
X10449705Y-13915174D02*
X10449705Y-13962793D01*
X10449705Y-13962793D02*
X10440182Y-14000888D01*
X10440182Y-14000888D02*
X10430658Y-14019936D01*
X10430658Y-14019936D02*
X10421134Y-14029460D01*
X10421134Y-14029460D02*
X10402086Y-14038984D01*
X10402086Y-14038984D02*
X10383039Y-14038984D01*
X10383039Y-14038984D02*
X10363991Y-14029460D01*
X10363991Y-14029460D02*
X10354467Y-14019936D01*
X10354467Y-14019936D02*
X10344944Y-14000888D01*
X10344944Y-14000888D02*
X10335420Y-13962793D01*
X10335420Y-13962793D02*
X10335420Y-13915174D01*
X10335420Y-13915174D02*
X10344944Y-13877079D01*
X10344944Y-13877079D02*
X10354467Y-13858031D01*
X10354467Y-13858031D02*
X10363991Y-13848508D01*
X10363991Y-13848508D02*
X10383039Y-13838984D01*
X10535420Y-14038984D02*
X10535420Y-13905650D01*
X10535420Y-13924698D02*
X10544944Y-13915174D01*
X10544944Y-13915174D02*
X10563991Y-13905650D01*
X10563991Y-13905650D02*
X10592563Y-13905650D01*
X10592563Y-13905650D02*
X10611610Y-13915174D01*
X10611610Y-13915174D02*
X10621134Y-13934222D01*
X10621134Y-13934222D02*
X10621134Y-14038984D01*
X10621134Y-13934222D02*
X10630658Y-13915174D01*
X10630658Y-13915174D02*
X10649705Y-13905650D01*
X10649705Y-13905650D02*
X10678277Y-13905650D01*
X10678277Y-13905650D02*
X10697325Y-13915174D01*
X10697325Y-13915174D02*
X10706848Y-13934222D01*
X10706848Y-13934222D02*
X10706848Y-14038984D01*
X10802086Y-14038984D02*
X10802086Y-13905650D01*
X10802086Y-13924698D02*
X10811610Y-13915174D01*
X10811610Y-13915174D02*
X10830658Y-13905650D01*
X10830658Y-13905650D02*
X10859229Y-13905650D01*
X10859229Y-13905650D02*
X10878277Y-13915174D01*
X10878277Y-13915174D02*
X10887801Y-13934222D01*
X10887801Y-13934222D02*
X10887801Y-14038984D01*
X10887801Y-13934222D02*
X10897325Y-13915174D01*
X10897325Y-13915174D02*
X10916372Y-13905650D01*
X10916372Y-13905650D02*
X10944944Y-13905650D01*
X10944944Y-13905650D02*
X10963991Y-13915174D01*
X10963991Y-13915174D02*
X10973515Y-13934222D01*
X10973515Y-13934222D02*
X10973515Y-14038984D01*
X11363991Y-13829460D02*
X11192563Y-14086603D01*
X11621134Y-13838984D02*
X11640182Y-13838984D01*
X11640182Y-13838984D02*
X11659229Y-13848508D01*
X11659229Y-13848508D02*
X11668753Y-13858031D01*
X11668753Y-13858031D02*
X11678277Y-13877079D01*
X11678277Y-13877079D02*
X11687801Y-13915174D01*
X11687801Y-13915174D02*
X11687801Y-13962793D01*
X11687801Y-13962793D02*
X11678277Y-14000888D01*
X11678277Y-14000888D02*
X11668753Y-14019936D01*
X11668753Y-14019936D02*
X11659229Y-14029460D01*
X11659229Y-14029460D02*
X11640182Y-14038984D01*
X11640182Y-14038984D02*
X11621134Y-14038984D01*
X11621134Y-14038984D02*
X11602086Y-14029460D01*
X11602086Y-14029460D02*
X11592563Y-14019936D01*
X11592563Y-14019936D02*
X11583039Y-14000888D01*
X11583039Y-14000888D02*
X11573515Y-13962793D01*
X11573515Y-13962793D02*
X11573515Y-13915174D01*
X11573515Y-13915174D02*
X11583039Y-13877079D01*
X11583039Y-13877079D02*
X11592563Y-13858031D01*
X11592563Y-13858031D02*
X11602086Y-13848508D01*
X11602086Y-13848508D02*
X11621134Y-13838984D01*
X11773515Y-14019936D02*
X11783039Y-14029460D01*
X11783039Y-14029460D02*
X11773515Y-14038984D01*
X11773515Y-14038984D02*
X11763991Y-14029460D01*
X11763991Y-14029460D02*
X11773515Y-14019936D01*
X11773515Y-14019936D02*
X11773515Y-14038984D01*
X11906848Y-13838984D02*
X11925896Y-13838984D01*
X11925896Y-13838984D02*
X11944944Y-13848508D01*
X11944944Y-13848508D02*
X11954467Y-13858031D01*
X11954467Y-13858031D02*
X11963991Y-13877079D01*
X11963991Y-13877079D02*
X11973515Y-13915174D01*
X11973515Y-13915174D02*
X11973515Y-13962793D01*
X11973515Y-13962793D02*
X11963991Y-14000888D01*
X11963991Y-14000888D02*
X11954467Y-14019936D01*
X11954467Y-14019936D02*
X11944944Y-14029460D01*
X11944944Y-14029460D02*
X11925896Y-14038984D01*
X11925896Y-14038984D02*
X11906848Y-14038984D01*
X11906848Y-14038984D02*
X11887801Y-14029460D01*
X11887801Y-14029460D02*
X11878277Y-14019936D01*
X11878277Y-14019936D02*
X11868753Y-14000888D01*
X11868753Y-14000888D02*
X11859229Y-13962793D01*
X11859229Y-13962793D02*
X11859229Y-13915174D01*
X11859229Y-13915174D02*
X11868753Y-13877079D01*
X11868753Y-13877079D02*
X11878277Y-13858031D01*
X11878277Y-13858031D02*
X11887801Y-13848508D01*
X11887801Y-13848508D02*
X11906848Y-13838984D01*
X12097325Y-13838984D02*
X12116372Y-13838984D01*
X12116372Y-13838984D02*
X12135420Y-13848508D01*
X12135420Y-13848508D02*
X12144944Y-13858031D01*
X12144944Y-13858031D02*
X12154467Y-13877079D01*
X12154467Y-13877079D02*
X12163991Y-13915174D01*
X12163991Y-13915174D02*
X12163991Y-13962793D01*
X12163991Y-13962793D02*
X12154467Y-14000888D01*
X12154467Y-14000888D02*
X12144944Y-14019936D01*
X12144944Y-14019936D02*
X12135420Y-14029460D01*
X12135420Y-14029460D02*
X12116372Y-14038984D01*
X12116372Y-14038984D02*
X12097325Y-14038984D01*
X12097325Y-14038984D02*
X12078277Y-14029460D01*
X12078277Y-14029460D02*
X12068753Y-14019936D01*
X12068753Y-14019936D02*
X12059229Y-14000888D01*
X12059229Y-14000888D02*
X12049706Y-13962793D01*
X12049706Y-13962793D02*
X12049706Y-13915174D01*
X12049706Y-13915174D02*
X12059229Y-13877079D01*
X12059229Y-13877079D02*
X12068753Y-13858031D01*
X12068753Y-13858031D02*
X12078277Y-13848508D01*
X12078277Y-13848508D02*
X12097325Y-13838984D01*
X12230658Y-13838984D02*
X12363991Y-13838984D01*
X12363991Y-13838984D02*
X12278277Y-14038984D01*
X12449706Y-14038984D02*
X12487801Y-14038984D01*
X12487801Y-14038984D02*
X12506848Y-14029460D01*
X12506848Y-14029460D02*
X12516372Y-14019936D01*
X12516372Y-14019936D02*
X12535420Y-13991365D01*
X12535420Y-13991365D02*
X12544944Y-13953269D01*
X12544944Y-13953269D02*
X12544944Y-13877079D01*
X12544944Y-13877079D02*
X12535420Y-13858031D01*
X12535420Y-13858031D02*
X12525896Y-13848508D01*
X12525896Y-13848508D02*
X12506848Y-13838984D01*
X12506848Y-13838984D02*
X12468753Y-13838984D01*
X12468753Y-13838984D02*
X12449706Y-13848508D01*
X12449706Y-13848508D02*
X12440182Y-13858031D01*
X12440182Y-13858031D02*
X12430658Y-13877079D01*
X12430658Y-13877079D02*
X12430658Y-13924698D01*
X12430658Y-13924698D02*
X12440182Y-13943746D01*
X12440182Y-13943746D02*
X12449706Y-13953269D01*
X12449706Y-13953269D02*
X12468753Y-13962793D01*
X12468753Y-13962793D02*
X12506848Y-13962793D01*
X12506848Y-13962793D02*
X12525896Y-13953269D01*
X12525896Y-13953269D02*
X12535420Y-13943746D01*
X12535420Y-13943746D02*
X12544944Y-13924698D01*
X12621134Y-13838984D02*
X12621134Y-13877079D01*
X12697325Y-13838984D02*
X12697325Y-13877079D01*
X12992563Y-14115174D02*
X12983039Y-14105650D01*
X12983039Y-14105650D02*
X12963991Y-14077079D01*
X12963991Y-14077079D02*
X12954468Y-14058031D01*
X12954468Y-14058031D02*
X12944944Y-14029460D01*
X12944944Y-14029460D02*
X12935420Y-13981841D01*
X12935420Y-13981841D02*
X12935420Y-13943746D01*
X12935420Y-13943746D02*
X12944944Y-13896127D01*
X12944944Y-13896127D02*
X12954468Y-13867555D01*
X12954468Y-13867555D02*
X12963991Y-13848508D01*
X12963991Y-13848508D02*
X12983039Y-13819936D01*
X12983039Y-13819936D02*
X12992563Y-13810412D01*
X13078277Y-14038984D02*
X13116372Y-14038984D01*
X13116372Y-14038984D02*
X13135420Y-14029460D01*
X13135420Y-14029460D02*
X13144944Y-14019936D01*
X13144944Y-14019936D02*
X13163991Y-13991365D01*
X13163991Y-13991365D02*
X13173515Y-13953269D01*
X13173515Y-13953269D02*
X13173515Y-13877079D01*
X13173515Y-13877079D02*
X13163991Y-13858031D01*
X13163991Y-13858031D02*
X13154468Y-13848508D01*
X13154468Y-13848508D02*
X13135420Y-13838984D01*
X13135420Y-13838984D02*
X13097325Y-13838984D01*
X13097325Y-13838984D02*
X13078277Y-13848508D01*
X13078277Y-13848508D02*
X13068753Y-13858031D01*
X13068753Y-13858031D02*
X13059229Y-13877079D01*
X13059229Y-13877079D02*
X13059229Y-13924698D01*
X13059229Y-13924698D02*
X13068753Y-13943746D01*
X13068753Y-13943746D02*
X13078277Y-13953269D01*
X13078277Y-13953269D02*
X13097325Y-13962793D01*
X13097325Y-13962793D02*
X13135420Y-13962793D01*
X13135420Y-13962793D02*
X13154468Y-13953269D01*
X13154468Y-13953269D02*
X13163991Y-13943746D01*
X13163991Y-13943746D02*
X13173515Y-13924698D01*
X13411610Y-14038984D02*
X13411610Y-13838984D01*
X13497325Y-14038984D02*
X13497325Y-13934222D01*
X13497325Y-13934222D02*
X13487801Y-13915174D01*
X13487801Y-13915174D02*
X13468753Y-13905650D01*
X13468753Y-13905650D02*
X13440182Y-13905650D01*
X13440182Y-13905650D02*
X13421134Y-13915174D01*
X13421134Y-13915174D02*
X13411610Y-13924698D01*
X13621134Y-14038984D02*
X13602087Y-14029460D01*
X13602087Y-14029460D02*
X13592563Y-14019936D01*
X13592563Y-14019936D02*
X13583039Y-14000888D01*
X13583039Y-14000888D02*
X13583039Y-13943746D01*
X13583039Y-13943746D02*
X13592563Y-13924698D01*
X13592563Y-13924698D02*
X13602087Y-13915174D01*
X13602087Y-13915174D02*
X13621134Y-13905650D01*
X13621134Y-13905650D02*
X13649706Y-13905650D01*
X13649706Y-13905650D02*
X13668753Y-13915174D01*
X13668753Y-13915174D02*
X13678277Y-13924698D01*
X13678277Y-13924698D02*
X13687801Y-13943746D01*
X13687801Y-13943746D02*
X13687801Y-14000888D01*
X13687801Y-14000888D02*
X13678277Y-14019936D01*
X13678277Y-14019936D02*
X13668753Y-14029460D01*
X13668753Y-14029460D02*
X13649706Y-14038984D01*
X13649706Y-14038984D02*
X13621134Y-14038984D01*
X13802087Y-14038984D02*
X13783039Y-14029460D01*
X13783039Y-14029460D02*
X13773515Y-14010412D01*
X13773515Y-14010412D02*
X13773515Y-13838984D01*
X13954468Y-14029460D02*
X13935420Y-14038984D01*
X13935420Y-14038984D02*
X13897325Y-14038984D01*
X13897325Y-14038984D02*
X13878277Y-14029460D01*
X13878277Y-14029460D02*
X13868753Y-14010412D01*
X13868753Y-14010412D02*
X13868753Y-13934222D01*
X13868753Y-13934222D02*
X13878277Y-13915174D01*
X13878277Y-13915174D02*
X13897325Y-13905650D01*
X13897325Y-13905650D02*
X13935420Y-13905650D01*
X13935420Y-13905650D02*
X13954468Y-13915174D01*
X13954468Y-13915174D02*
X13963991Y-13934222D01*
X13963991Y-13934222D02*
X13963991Y-13953269D01*
X13963991Y-13953269D02*
X13868753Y-13972317D01*
X14040182Y-14029460D02*
X14059230Y-14038984D01*
X14059230Y-14038984D02*
X14097325Y-14038984D01*
X14097325Y-14038984D02*
X14116372Y-14029460D01*
X14116372Y-14029460D02*
X14125896Y-14010412D01*
X14125896Y-14010412D02*
X14125896Y-14000888D01*
X14125896Y-14000888D02*
X14116372Y-13981841D01*
X14116372Y-13981841D02*
X14097325Y-13972317D01*
X14097325Y-13972317D02*
X14068753Y-13972317D01*
X14068753Y-13972317D02*
X14049706Y-13962793D01*
X14049706Y-13962793D02*
X14040182Y-13943746D01*
X14040182Y-13943746D02*
X14040182Y-13934222D01*
X14040182Y-13934222D02*
X14049706Y-13915174D01*
X14049706Y-13915174D02*
X14068753Y-13905650D01*
X14068753Y-13905650D02*
X14097325Y-13905650D01*
X14097325Y-13905650D02*
X14116372Y-13915174D01*
X14192563Y-14115174D02*
X14202087Y-14105650D01*
X14202087Y-14105650D02*
X14221134Y-14077079D01*
X14221134Y-14077079D02*
X14230658Y-14058031D01*
X14230658Y-14058031D02*
X14240182Y-14029460D01*
X14240182Y-14029460D02*
X14249706Y-13981841D01*
X14249706Y-13981841D02*
X14249706Y-13943746D01*
X14249706Y-13943746D02*
X14240182Y-13896127D01*
X14240182Y-13896127D02*
X14230658Y-13867555D01*
X14230658Y-13867555D02*
X14221134Y-13848508D01*
X14221134Y-13848508D02*
X14202087Y-13819936D01*
X14202087Y-13819936D02*
X14192563Y-13810412D01*
D12*
X9417500Y-14211500D02*
G75*
G02*
X9387500Y-14211500I-15000J0D01*
G01*
X9387500Y-14211500D02*
G75*
G02*
X9417500Y-14211500I15000J0D01*
G01*
D11*
X9716372Y-14102984D02*
X9735420Y-14102984D01*
X9735420Y-14102984D02*
X9754467Y-14112508D01*
X9754467Y-14112508D02*
X9763991Y-14122031D01*
X9763991Y-14122031D02*
X9773515Y-14141079D01*
X9773515Y-14141079D02*
X9783039Y-14179174D01*
X9783039Y-14179174D02*
X9783039Y-14226793D01*
X9783039Y-14226793D02*
X9773515Y-14264888D01*
X9773515Y-14264888D02*
X9763991Y-14283936D01*
X9763991Y-14283936D02*
X9754467Y-14293460D01*
X9754467Y-14293460D02*
X9735420Y-14302984D01*
X9735420Y-14302984D02*
X9716372Y-14302984D01*
X9716372Y-14302984D02*
X9697324Y-14293460D01*
X9697324Y-14293460D02*
X9687801Y-14283936D01*
X9687801Y-14283936D02*
X9678277Y-14264888D01*
X9678277Y-14264888D02*
X9668753Y-14226793D01*
X9668753Y-14226793D02*
X9668753Y-14179174D01*
X9668753Y-14179174D02*
X9678277Y-14141079D01*
X9678277Y-14141079D02*
X9687801Y-14122031D01*
X9687801Y-14122031D02*
X9697324Y-14112508D01*
X9697324Y-14112508D02*
X9716372Y-14102984D01*
X9868753Y-14283936D02*
X9878277Y-14293460D01*
X9878277Y-14293460D02*
X9868753Y-14302984D01*
X9868753Y-14302984D02*
X9859229Y-14293460D01*
X9859229Y-14293460D02*
X9868753Y-14283936D01*
X9868753Y-14283936D02*
X9868753Y-14302984D01*
X9944944Y-14102984D02*
X10068753Y-14102984D01*
X10068753Y-14102984D02*
X10002086Y-14179174D01*
X10002086Y-14179174D02*
X10030658Y-14179174D01*
X10030658Y-14179174D02*
X10049705Y-14188698D01*
X10049705Y-14188698D02*
X10059229Y-14198222D01*
X10059229Y-14198222D02*
X10068753Y-14217269D01*
X10068753Y-14217269D02*
X10068753Y-14264888D01*
X10068753Y-14264888D02*
X10059229Y-14283936D01*
X10059229Y-14283936D02*
X10049705Y-14293460D01*
X10049705Y-14293460D02*
X10030658Y-14302984D01*
X10030658Y-14302984D02*
X9973515Y-14302984D01*
X9973515Y-14302984D02*
X9954467Y-14293460D01*
X9954467Y-14293460D02*
X9944944Y-14283936D01*
X10192563Y-14102984D02*
X10211610Y-14102984D01*
X10211610Y-14102984D02*
X10230658Y-14112508D01*
X10230658Y-14112508D02*
X10240182Y-14122031D01*
X10240182Y-14122031D02*
X10249705Y-14141079D01*
X10249705Y-14141079D02*
X10259229Y-14179174D01*
X10259229Y-14179174D02*
X10259229Y-14226793D01*
X10259229Y-14226793D02*
X10249705Y-14264888D01*
X10249705Y-14264888D02*
X10240182Y-14283936D01*
X10240182Y-14283936D02*
X10230658Y-14293460D01*
X10230658Y-14293460D02*
X10211610Y-14302984D01*
X10211610Y-14302984D02*
X10192563Y-14302984D01*
X10192563Y-14302984D02*
X10173515Y-14293460D01*
X10173515Y-14293460D02*
X10163991Y-14283936D01*
X10163991Y-14283936D02*
X10154467Y-14264888D01*
X10154467Y-14264888D02*
X10144944Y-14226793D01*
X10144944Y-14226793D02*
X10144944Y-14179174D01*
X10144944Y-14179174D02*
X10154467Y-14141079D01*
X10154467Y-14141079D02*
X10163991Y-14122031D01*
X10163991Y-14122031D02*
X10173515Y-14112508D01*
X10173515Y-14112508D02*
X10192563Y-14102984D01*
X10383039Y-14102984D02*
X10402086Y-14102984D01*
X10402086Y-14102984D02*
X10421134Y-14112508D01*
X10421134Y-14112508D02*
X10430658Y-14122031D01*
X10430658Y-14122031D02*
X10440182Y-14141079D01*
X10440182Y-14141079D02*
X10449705Y-14179174D01*
X10449705Y-14179174D02*
X10449705Y-14226793D01*
X10449705Y-14226793D02*
X10440182Y-14264888D01*
X10440182Y-14264888D02*
X10430658Y-14283936D01*
X10430658Y-14283936D02*
X10421134Y-14293460D01*
X10421134Y-14293460D02*
X10402086Y-14302984D01*
X10402086Y-14302984D02*
X10383039Y-14302984D01*
X10383039Y-14302984D02*
X10363991Y-14293460D01*
X10363991Y-14293460D02*
X10354467Y-14283936D01*
X10354467Y-14283936D02*
X10344944Y-14264888D01*
X10344944Y-14264888D02*
X10335420Y-14226793D01*
X10335420Y-14226793D02*
X10335420Y-14179174D01*
X10335420Y-14179174D02*
X10344944Y-14141079D01*
X10344944Y-14141079D02*
X10354467Y-14122031D01*
X10354467Y-14122031D02*
X10363991Y-14112508D01*
X10363991Y-14112508D02*
X10383039Y-14102984D01*
X10535420Y-14302984D02*
X10535420Y-14169650D01*
X10535420Y-14188698D02*
X10544944Y-14179174D01*
X10544944Y-14179174D02*
X10563991Y-14169650D01*
X10563991Y-14169650D02*
X10592563Y-14169650D01*
X10592563Y-14169650D02*
X10611610Y-14179174D01*
X10611610Y-14179174D02*
X10621134Y-14198222D01*
X10621134Y-14198222D02*
X10621134Y-14302984D01*
X10621134Y-14198222D02*
X10630658Y-14179174D01*
X10630658Y-14179174D02*
X10649705Y-14169650D01*
X10649705Y-14169650D02*
X10678277Y-14169650D01*
X10678277Y-14169650D02*
X10697325Y-14179174D01*
X10697325Y-14179174D02*
X10706848Y-14198222D01*
X10706848Y-14198222D02*
X10706848Y-14302984D01*
X10802086Y-14302984D02*
X10802086Y-14169650D01*
X10802086Y-14188698D02*
X10811610Y-14179174D01*
X10811610Y-14179174D02*
X10830658Y-14169650D01*
X10830658Y-14169650D02*
X10859229Y-14169650D01*
X10859229Y-14169650D02*
X10878277Y-14179174D01*
X10878277Y-14179174D02*
X10887801Y-14198222D01*
X10887801Y-14198222D02*
X10887801Y-14302984D01*
X10887801Y-14198222D02*
X10897325Y-14179174D01*
X10897325Y-14179174D02*
X10916372Y-14169650D01*
X10916372Y-14169650D02*
X10944944Y-14169650D01*
X10944944Y-14169650D02*
X10963991Y-14179174D01*
X10963991Y-14179174D02*
X10973515Y-14198222D01*
X10973515Y-14198222D02*
X10973515Y-14302984D01*
X11363991Y-14093460D02*
X11192563Y-14350603D01*
X11621134Y-14102984D02*
X11640182Y-14102984D01*
X11640182Y-14102984D02*
X11659229Y-14112508D01*
X11659229Y-14112508D02*
X11668753Y-14122031D01*
X11668753Y-14122031D02*
X11678277Y-14141079D01*
X11678277Y-14141079D02*
X11687801Y-14179174D01*
X11687801Y-14179174D02*
X11687801Y-14226793D01*
X11687801Y-14226793D02*
X11678277Y-14264888D01*
X11678277Y-14264888D02*
X11668753Y-14283936D01*
X11668753Y-14283936D02*
X11659229Y-14293460D01*
X11659229Y-14293460D02*
X11640182Y-14302984D01*
X11640182Y-14302984D02*
X11621134Y-14302984D01*
X11621134Y-14302984D02*
X11602086Y-14293460D01*
X11602086Y-14293460D02*
X11592563Y-14283936D01*
X11592563Y-14283936D02*
X11583039Y-14264888D01*
X11583039Y-14264888D02*
X11573515Y-14226793D01*
X11573515Y-14226793D02*
X11573515Y-14179174D01*
X11573515Y-14179174D02*
X11583039Y-14141079D01*
X11583039Y-14141079D02*
X11592563Y-14122031D01*
X11592563Y-14122031D02*
X11602086Y-14112508D01*
X11602086Y-14112508D02*
X11621134Y-14102984D01*
X11773515Y-14283936D02*
X11783039Y-14293460D01*
X11783039Y-14293460D02*
X11773515Y-14302984D01*
X11773515Y-14302984D02*
X11763991Y-14293460D01*
X11763991Y-14293460D02*
X11773515Y-14283936D01*
X11773515Y-14283936D02*
X11773515Y-14302984D01*
X11906848Y-14102984D02*
X11925896Y-14102984D01*
X11925896Y-14102984D02*
X11944944Y-14112508D01*
X11944944Y-14112508D02*
X11954467Y-14122031D01*
X11954467Y-14122031D02*
X11963991Y-14141079D01*
X11963991Y-14141079D02*
X11973515Y-14179174D01*
X11973515Y-14179174D02*
X11973515Y-14226793D01*
X11973515Y-14226793D02*
X11963991Y-14264888D01*
X11963991Y-14264888D02*
X11954467Y-14283936D01*
X11954467Y-14283936D02*
X11944944Y-14293460D01*
X11944944Y-14293460D02*
X11925896Y-14302984D01*
X11925896Y-14302984D02*
X11906848Y-14302984D01*
X11906848Y-14302984D02*
X11887801Y-14293460D01*
X11887801Y-14293460D02*
X11878277Y-14283936D01*
X11878277Y-14283936D02*
X11868753Y-14264888D01*
X11868753Y-14264888D02*
X11859229Y-14226793D01*
X11859229Y-14226793D02*
X11859229Y-14179174D01*
X11859229Y-14179174D02*
X11868753Y-14141079D01*
X11868753Y-14141079D02*
X11878277Y-14122031D01*
X11878277Y-14122031D02*
X11887801Y-14112508D01*
X11887801Y-14112508D02*
X11906848Y-14102984D01*
X12163991Y-14302984D02*
X12049706Y-14302984D01*
X12106848Y-14302984D02*
X12106848Y-14102984D01*
X12106848Y-14102984D02*
X12087801Y-14131555D01*
X12087801Y-14131555D02*
X12068753Y-14150603D01*
X12068753Y-14150603D02*
X12049706Y-14160127D01*
X12354467Y-14302984D02*
X12240182Y-14302984D01*
X12297325Y-14302984D02*
X12297325Y-14102984D01*
X12297325Y-14102984D02*
X12278277Y-14131555D01*
X12278277Y-14131555D02*
X12259229Y-14150603D01*
X12259229Y-14150603D02*
X12240182Y-14160127D01*
X12468753Y-14188698D02*
X12449706Y-14179174D01*
X12449706Y-14179174D02*
X12440182Y-14169650D01*
X12440182Y-14169650D02*
X12430658Y-14150603D01*
X12430658Y-14150603D02*
X12430658Y-14141079D01*
X12430658Y-14141079D02*
X12440182Y-14122031D01*
X12440182Y-14122031D02*
X12449706Y-14112508D01*
X12449706Y-14112508D02*
X12468753Y-14102984D01*
X12468753Y-14102984D02*
X12506848Y-14102984D01*
X12506848Y-14102984D02*
X12525896Y-14112508D01*
X12525896Y-14112508D02*
X12535420Y-14122031D01*
X12535420Y-14122031D02*
X12544944Y-14141079D01*
X12544944Y-14141079D02*
X12544944Y-14150603D01*
X12544944Y-14150603D02*
X12535420Y-14169650D01*
X12535420Y-14169650D02*
X12525896Y-14179174D01*
X12525896Y-14179174D02*
X12506848Y-14188698D01*
X12506848Y-14188698D02*
X12468753Y-14188698D01*
X12468753Y-14188698D02*
X12449706Y-14198222D01*
X12449706Y-14198222D02*
X12440182Y-14207746D01*
X12440182Y-14207746D02*
X12430658Y-14226793D01*
X12430658Y-14226793D02*
X12430658Y-14264888D01*
X12430658Y-14264888D02*
X12440182Y-14283936D01*
X12440182Y-14283936D02*
X12449706Y-14293460D01*
X12449706Y-14293460D02*
X12468753Y-14302984D01*
X12468753Y-14302984D02*
X12506848Y-14302984D01*
X12506848Y-14302984D02*
X12525896Y-14293460D01*
X12525896Y-14293460D02*
X12535420Y-14283936D01*
X12535420Y-14283936D02*
X12544944Y-14264888D01*
X12544944Y-14264888D02*
X12544944Y-14226793D01*
X12544944Y-14226793D02*
X12535420Y-14207746D01*
X12535420Y-14207746D02*
X12525896Y-14198222D01*
X12525896Y-14198222D02*
X12506848Y-14188698D01*
X12621134Y-14102984D02*
X12621134Y-14141079D01*
X12697325Y-14102984D02*
X12697325Y-14141079D01*
X12992563Y-14379174D02*
X12983039Y-14369650D01*
X12983039Y-14369650D02*
X12963991Y-14341079D01*
X12963991Y-14341079D02*
X12954468Y-14322031D01*
X12954468Y-14322031D02*
X12944944Y-14293460D01*
X12944944Y-14293460D02*
X12935420Y-14245841D01*
X12935420Y-14245841D02*
X12935420Y-14207746D01*
X12935420Y-14207746D02*
X12944944Y-14160127D01*
X12944944Y-14160127D02*
X12954468Y-14131555D01*
X12954468Y-14131555D02*
X12963991Y-14112508D01*
X12963991Y-14112508D02*
X12983039Y-14083936D01*
X12983039Y-14083936D02*
X12992563Y-14074412D01*
X13049706Y-14102984D02*
X13173515Y-14102984D01*
X13173515Y-14102984D02*
X13106848Y-14179174D01*
X13106848Y-14179174D02*
X13135420Y-14179174D01*
X13135420Y-14179174D02*
X13154468Y-14188698D01*
X13154468Y-14188698D02*
X13163991Y-14198222D01*
X13163991Y-14198222D02*
X13173515Y-14217269D01*
X13173515Y-14217269D02*
X13173515Y-14264888D01*
X13173515Y-14264888D02*
X13163991Y-14283936D01*
X13163991Y-14283936D02*
X13154468Y-14293460D01*
X13154468Y-14293460D02*
X13135420Y-14302984D01*
X13135420Y-14302984D02*
X13078277Y-14302984D01*
X13078277Y-14302984D02*
X13059229Y-14293460D01*
X13059229Y-14293460D02*
X13049706Y-14283936D01*
X13344944Y-14169650D02*
X13344944Y-14302984D01*
X13297325Y-14093460D02*
X13249706Y-14236317D01*
X13249706Y-14236317D02*
X13373515Y-14236317D01*
X13544944Y-14102984D02*
X13449706Y-14102984D01*
X13449706Y-14102984D02*
X13440182Y-14198222D01*
X13440182Y-14198222D02*
X13449706Y-14188698D01*
X13449706Y-14188698D02*
X13468753Y-14179174D01*
X13468753Y-14179174D02*
X13516372Y-14179174D01*
X13516372Y-14179174D02*
X13535420Y-14188698D01*
X13535420Y-14188698D02*
X13544944Y-14198222D01*
X13544944Y-14198222D02*
X13554468Y-14217269D01*
X13554468Y-14217269D02*
X13554468Y-14264888D01*
X13554468Y-14264888D02*
X13544944Y-14283936D01*
X13544944Y-14283936D02*
X13535420Y-14293460D01*
X13535420Y-14293460D02*
X13516372Y-14302984D01*
X13516372Y-14302984D02*
X13468753Y-14302984D01*
X13468753Y-14302984D02*
X13449706Y-14293460D01*
X13449706Y-14293460D02*
X13440182Y-14283936D01*
X13792563Y-14302984D02*
X13792563Y-14102984D01*
X13878277Y-14302984D02*
X13878277Y-14198222D01*
X13878277Y-14198222D02*
X13868753Y-14179174D01*
X13868753Y-14179174D02*
X13849706Y-14169650D01*
X13849706Y-14169650D02*
X13821134Y-14169650D01*
X13821134Y-14169650D02*
X13802087Y-14179174D01*
X13802087Y-14179174D02*
X13792563Y-14188698D01*
X14002087Y-14302984D02*
X13983039Y-14293460D01*
X13983039Y-14293460D02*
X13973515Y-14283936D01*
X13973515Y-14283936D02*
X13963991Y-14264888D01*
X13963991Y-14264888D02*
X13963991Y-14207746D01*
X13963991Y-14207746D02*
X13973515Y-14188698D01*
X13973515Y-14188698D02*
X13983039Y-14179174D01*
X13983039Y-14179174D02*
X14002087Y-14169650D01*
X14002087Y-14169650D02*
X14030658Y-14169650D01*
X14030658Y-14169650D02*
X14049706Y-14179174D01*
X14049706Y-14179174D02*
X14059230Y-14188698D01*
X14059230Y-14188698D02*
X14068753Y-14207746D01*
X14068753Y-14207746D02*
X14068753Y-14264888D01*
X14068753Y-14264888D02*
X14059230Y-14283936D01*
X14059230Y-14283936D02*
X14049706Y-14293460D01*
X14049706Y-14293460D02*
X14030658Y-14302984D01*
X14030658Y-14302984D02*
X14002087Y-14302984D01*
X14183039Y-14302984D02*
X14163991Y-14293460D01*
X14163991Y-14293460D02*
X14154468Y-14274412D01*
X14154468Y-14274412D02*
X14154468Y-14102984D01*
X14335420Y-14293460D02*
X14316372Y-14302984D01*
X14316372Y-14302984D02*
X14278277Y-14302984D01*
X14278277Y-14302984D02*
X14259230Y-14293460D01*
X14259230Y-14293460D02*
X14249706Y-14274412D01*
X14249706Y-14274412D02*
X14249706Y-14198222D01*
X14249706Y-14198222D02*
X14259230Y-14179174D01*
X14259230Y-14179174D02*
X14278277Y-14169650D01*
X14278277Y-14169650D02*
X14316372Y-14169650D01*
X14316372Y-14169650D02*
X14335420Y-14179174D01*
X14335420Y-14179174D02*
X14344944Y-14198222D01*
X14344944Y-14198222D02*
X14344944Y-14217269D01*
X14344944Y-14217269D02*
X14249706Y-14236317D01*
X14421134Y-14293460D02*
X14440182Y-14302984D01*
X14440182Y-14302984D02*
X14478277Y-14302984D01*
X14478277Y-14302984D02*
X14497325Y-14293460D01*
X14497325Y-14293460D02*
X14506849Y-14274412D01*
X14506849Y-14274412D02*
X14506849Y-14264888D01*
X14506849Y-14264888D02*
X14497325Y-14245841D01*
X14497325Y-14245841D02*
X14478277Y-14236317D01*
X14478277Y-14236317D02*
X14449706Y-14236317D01*
X14449706Y-14236317D02*
X14430658Y-14226793D01*
X14430658Y-14226793D02*
X14421134Y-14207746D01*
X14421134Y-14207746D02*
X14421134Y-14198222D01*
X14421134Y-14198222D02*
X14430658Y-14179174D01*
X14430658Y-14179174D02*
X14449706Y-14169650D01*
X14449706Y-14169650D02*
X14478277Y-14169650D01*
X14478277Y-14169650D02*
X14497325Y-14179174D01*
X14573515Y-14379174D02*
X14583039Y-14369650D01*
X14583039Y-14369650D02*
X14602087Y-14341079D01*
X14602087Y-14341079D02*
X14611611Y-14322031D01*
X14611611Y-14322031D02*
X14621134Y-14293460D01*
X14621134Y-14293460D02*
X14630658Y-14245841D01*
X14630658Y-14245841D02*
X14630658Y-14207746D01*
X14630658Y-14207746D02*
X14621134Y-14160127D01*
X14621134Y-14160127D02*
X14611611Y-14131555D01*
X14611611Y-14131555D02*
X14602087Y-14112508D01*
X14602087Y-14112508D02*
X14583039Y-14083936D01*
X14583039Y-14083936D02*
X14573515Y-14074412D01*
D12*
X9373000Y-14431000D02*
X9373000Y-14520000D01*
X9328500Y-14475500D02*
X9417500Y-14475500D01*
D11*
X9716372Y-14366984D02*
X9735420Y-14366984D01*
X9735420Y-14366984D02*
X9754467Y-14376508D01*
X9754467Y-14376508D02*
X9763991Y-14386031D01*
X9763991Y-14386031D02*
X9773515Y-14405079D01*
X9773515Y-14405079D02*
X9783039Y-14443174D01*
X9783039Y-14443174D02*
X9783039Y-14490793D01*
X9783039Y-14490793D02*
X9773515Y-14528888D01*
X9773515Y-14528888D02*
X9763991Y-14547936D01*
X9763991Y-14547936D02*
X9754467Y-14557460D01*
X9754467Y-14557460D02*
X9735420Y-14566984D01*
X9735420Y-14566984D02*
X9716372Y-14566984D01*
X9716372Y-14566984D02*
X9697324Y-14557460D01*
X9697324Y-14557460D02*
X9687801Y-14547936D01*
X9687801Y-14547936D02*
X9678277Y-14528888D01*
X9678277Y-14528888D02*
X9668753Y-14490793D01*
X9668753Y-14490793D02*
X9668753Y-14443174D01*
X9668753Y-14443174D02*
X9678277Y-14405079D01*
X9678277Y-14405079D02*
X9687801Y-14386031D01*
X9687801Y-14386031D02*
X9697324Y-14376508D01*
X9697324Y-14376508D02*
X9716372Y-14366984D01*
X9868753Y-14547936D02*
X9878277Y-14557460D01*
X9878277Y-14557460D02*
X9868753Y-14566984D01*
X9868753Y-14566984D02*
X9859229Y-14557460D01*
X9859229Y-14557460D02*
X9868753Y-14547936D01*
X9868753Y-14547936D02*
X9868753Y-14566984D01*
X9992563Y-14452698D02*
X9973515Y-14443174D01*
X9973515Y-14443174D02*
X9963991Y-14433650D01*
X9963991Y-14433650D02*
X9954467Y-14414603D01*
X9954467Y-14414603D02*
X9954467Y-14405079D01*
X9954467Y-14405079D02*
X9963991Y-14386031D01*
X9963991Y-14386031D02*
X9973515Y-14376508D01*
X9973515Y-14376508D02*
X9992563Y-14366984D01*
X9992563Y-14366984D02*
X10030658Y-14366984D01*
X10030658Y-14366984D02*
X10049705Y-14376508D01*
X10049705Y-14376508D02*
X10059229Y-14386031D01*
X10059229Y-14386031D02*
X10068753Y-14405079D01*
X10068753Y-14405079D02*
X10068753Y-14414603D01*
X10068753Y-14414603D02*
X10059229Y-14433650D01*
X10059229Y-14433650D02*
X10049705Y-14443174D01*
X10049705Y-14443174D02*
X10030658Y-14452698D01*
X10030658Y-14452698D02*
X9992563Y-14452698D01*
X9992563Y-14452698D02*
X9973515Y-14462222D01*
X9973515Y-14462222D02*
X9963991Y-14471746D01*
X9963991Y-14471746D02*
X9954467Y-14490793D01*
X9954467Y-14490793D02*
X9954467Y-14528888D01*
X9954467Y-14528888D02*
X9963991Y-14547936D01*
X9963991Y-14547936D02*
X9973515Y-14557460D01*
X9973515Y-14557460D02*
X9992563Y-14566984D01*
X9992563Y-14566984D02*
X10030658Y-14566984D01*
X10030658Y-14566984D02*
X10049705Y-14557460D01*
X10049705Y-14557460D02*
X10059229Y-14547936D01*
X10059229Y-14547936D02*
X10068753Y-14528888D01*
X10068753Y-14528888D02*
X10068753Y-14490793D01*
X10068753Y-14490793D02*
X10059229Y-14471746D01*
X10059229Y-14471746D02*
X10049705Y-14462222D01*
X10049705Y-14462222D02*
X10030658Y-14452698D01*
X10163991Y-14566984D02*
X10202086Y-14566984D01*
X10202086Y-14566984D02*
X10221134Y-14557460D01*
X10221134Y-14557460D02*
X10230658Y-14547936D01*
X10230658Y-14547936D02*
X10249705Y-14519365D01*
X10249705Y-14519365D02*
X10259229Y-14481269D01*
X10259229Y-14481269D02*
X10259229Y-14405079D01*
X10259229Y-14405079D02*
X10249705Y-14386031D01*
X10249705Y-14386031D02*
X10240182Y-14376508D01*
X10240182Y-14376508D02*
X10221134Y-14366984D01*
X10221134Y-14366984D02*
X10183039Y-14366984D01*
X10183039Y-14366984D02*
X10163991Y-14376508D01*
X10163991Y-14376508D02*
X10154467Y-14386031D01*
X10154467Y-14386031D02*
X10144944Y-14405079D01*
X10144944Y-14405079D02*
X10144944Y-14452698D01*
X10144944Y-14452698D02*
X10154467Y-14471746D01*
X10154467Y-14471746D02*
X10163991Y-14481269D01*
X10163991Y-14481269D02*
X10183039Y-14490793D01*
X10183039Y-14490793D02*
X10221134Y-14490793D01*
X10221134Y-14490793D02*
X10240182Y-14481269D01*
X10240182Y-14481269D02*
X10249705Y-14471746D01*
X10249705Y-14471746D02*
X10259229Y-14452698D01*
X10383039Y-14366984D02*
X10402086Y-14366984D01*
X10402086Y-14366984D02*
X10421134Y-14376508D01*
X10421134Y-14376508D02*
X10430658Y-14386031D01*
X10430658Y-14386031D02*
X10440182Y-14405079D01*
X10440182Y-14405079D02*
X10449705Y-14443174D01*
X10449705Y-14443174D02*
X10449705Y-14490793D01*
X10449705Y-14490793D02*
X10440182Y-14528888D01*
X10440182Y-14528888D02*
X10430658Y-14547936D01*
X10430658Y-14547936D02*
X10421134Y-14557460D01*
X10421134Y-14557460D02*
X10402086Y-14566984D01*
X10402086Y-14566984D02*
X10383039Y-14566984D01*
X10383039Y-14566984D02*
X10363991Y-14557460D01*
X10363991Y-14557460D02*
X10354467Y-14547936D01*
X10354467Y-14547936D02*
X10344944Y-14528888D01*
X10344944Y-14528888D02*
X10335420Y-14490793D01*
X10335420Y-14490793D02*
X10335420Y-14443174D01*
X10335420Y-14443174D02*
X10344944Y-14405079D01*
X10344944Y-14405079D02*
X10354467Y-14386031D01*
X10354467Y-14386031D02*
X10363991Y-14376508D01*
X10363991Y-14376508D02*
X10383039Y-14366984D01*
X10535420Y-14566984D02*
X10535420Y-14433650D01*
X10535420Y-14452698D02*
X10544944Y-14443174D01*
X10544944Y-14443174D02*
X10563991Y-14433650D01*
X10563991Y-14433650D02*
X10592563Y-14433650D01*
X10592563Y-14433650D02*
X10611610Y-14443174D01*
X10611610Y-14443174D02*
X10621134Y-14462222D01*
X10621134Y-14462222D02*
X10621134Y-14566984D01*
X10621134Y-14462222D02*
X10630658Y-14443174D01*
X10630658Y-14443174D02*
X10649705Y-14433650D01*
X10649705Y-14433650D02*
X10678277Y-14433650D01*
X10678277Y-14433650D02*
X10697325Y-14443174D01*
X10697325Y-14443174D02*
X10706848Y-14462222D01*
X10706848Y-14462222D02*
X10706848Y-14566984D01*
X10802086Y-14566984D02*
X10802086Y-14433650D01*
X10802086Y-14452698D02*
X10811610Y-14443174D01*
X10811610Y-14443174D02*
X10830658Y-14433650D01*
X10830658Y-14433650D02*
X10859229Y-14433650D01*
X10859229Y-14433650D02*
X10878277Y-14443174D01*
X10878277Y-14443174D02*
X10887801Y-14462222D01*
X10887801Y-14462222D02*
X10887801Y-14566984D01*
X10887801Y-14462222D02*
X10897325Y-14443174D01*
X10897325Y-14443174D02*
X10916372Y-14433650D01*
X10916372Y-14433650D02*
X10944944Y-14433650D01*
X10944944Y-14433650D02*
X10963991Y-14443174D01*
X10963991Y-14443174D02*
X10973515Y-14462222D01*
X10973515Y-14462222D02*
X10973515Y-14566984D01*
X11363991Y-14357460D02*
X11192563Y-14614603D01*
X11621134Y-14366984D02*
X11640182Y-14366984D01*
X11640182Y-14366984D02*
X11659229Y-14376508D01*
X11659229Y-14376508D02*
X11668753Y-14386031D01*
X11668753Y-14386031D02*
X11678277Y-14405079D01*
X11678277Y-14405079D02*
X11687801Y-14443174D01*
X11687801Y-14443174D02*
X11687801Y-14490793D01*
X11687801Y-14490793D02*
X11678277Y-14528888D01*
X11678277Y-14528888D02*
X11668753Y-14547936D01*
X11668753Y-14547936D02*
X11659229Y-14557460D01*
X11659229Y-14557460D02*
X11640182Y-14566984D01*
X11640182Y-14566984D02*
X11621134Y-14566984D01*
X11621134Y-14566984D02*
X11602086Y-14557460D01*
X11602086Y-14557460D02*
X11592563Y-14547936D01*
X11592563Y-14547936D02*
X11583039Y-14528888D01*
X11583039Y-14528888D02*
X11573515Y-14490793D01*
X11573515Y-14490793D02*
X11573515Y-14443174D01*
X11573515Y-14443174D02*
X11583039Y-14405079D01*
X11583039Y-14405079D02*
X11592563Y-14386031D01*
X11592563Y-14386031D02*
X11602086Y-14376508D01*
X11602086Y-14376508D02*
X11621134Y-14366984D01*
X11773515Y-14547936D02*
X11783039Y-14557460D01*
X11783039Y-14557460D02*
X11773515Y-14566984D01*
X11773515Y-14566984D02*
X11763991Y-14557460D01*
X11763991Y-14557460D02*
X11773515Y-14547936D01*
X11773515Y-14547936D02*
X11773515Y-14566984D01*
X11906848Y-14366984D02*
X11925896Y-14366984D01*
X11925896Y-14366984D02*
X11944944Y-14376508D01*
X11944944Y-14376508D02*
X11954467Y-14386031D01*
X11954467Y-14386031D02*
X11963991Y-14405079D01*
X11963991Y-14405079D02*
X11973515Y-14443174D01*
X11973515Y-14443174D02*
X11973515Y-14490793D01*
X11973515Y-14490793D02*
X11963991Y-14528888D01*
X11963991Y-14528888D02*
X11954467Y-14547936D01*
X11954467Y-14547936D02*
X11944944Y-14557460D01*
X11944944Y-14557460D02*
X11925896Y-14566984D01*
X11925896Y-14566984D02*
X11906848Y-14566984D01*
X11906848Y-14566984D02*
X11887801Y-14557460D01*
X11887801Y-14557460D02*
X11878277Y-14547936D01*
X11878277Y-14547936D02*
X11868753Y-14528888D01*
X11868753Y-14528888D02*
X11859229Y-14490793D01*
X11859229Y-14490793D02*
X11859229Y-14443174D01*
X11859229Y-14443174D02*
X11868753Y-14405079D01*
X11868753Y-14405079D02*
X11878277Y-14386031D01*
X11878277Y-14386031D02*
X11887801Y-14376508D01*
X11887801Y-14376508D02*
X11906848Y-14366984D01*
X12040182Y-14366984D02*
X12163991Y-14366984D01*
X12163991Y-14366984D02*
X12097325Y-14443174D01*
X12097325Y-14443174D02*
X12125896Y-14443174D01*
X12125896Y-14443174D02*
X12144944Y-14452698D01*
X12144944Y-14452698D02*
X12154467Y-14462222D01*
X12154467Y-14462222D02*
X12163991Y-14481269D01*
X12163991Y-14481269D02*
X12163991Y-14528888D01*
X12163991Y-14528888D02*
X12154467Y-14547936D01*
X12154467Y-14547936D02*
X12144944Y-14557460D01*
X12144944Y-14557460D02*
X12125896Y-14566984D01*
X12125896Y-14566984D02*
X12068753Y-14566984D01*
X12068753Y-14566984D02*
X12049706Y-14557460D01*
X12049706Y-14557460D02*
X12040182Y-14547936D01*
X12344944Y-14366984D02*
X12249706Y-14366984D01*
X12249706Y-14366984D02*
X12240182Y-14462222D01*
X12240182Y-14462222D02*
X12249706Y-14452698D01*
X12249706Y-14452698D02*
X12268753Y-14443174D01*
X12268753Y-14443174D02*
X12316372Y-14443174D01*
X12316372Y-14443174D02*
X12335420Y-14452698D01*
X12335420Y-14452698D02*
X12344944Y-14462222D01*
X12344944Y-14462222D02*
X12354467Y-14481269D01*
X12354467Y-14481269D02*
X12354467Y-14528888D01*
X12354467Y-14528888D02*
X12344944Y-14547936D01*
X12344944Y-14547936D02*
X12335420Y-14557460D01*
X12335420Y-14557460D02*
X12316372Y-14566984D01*
X12316372Y-14566984D02*
X12268753Y-14566984D01*
X12268753Y-14566984D02*
X12249706Y-14557460D01*
X12249706Y-14557460D02*
X12240182Y-14547936D01*
X12478277Y-14366984D02*
X12497325Y-14366984D01*
X12497325Y-14366984D02*
X12516372Y-14376508D01*
X12516372Y-14376508D02*
X12525896Y-14386031D01*
X12525896Y-14386031D02*
X12535420Y-14405079D01*
X12535420Y-14405079D02*
X12544944Y-14443174D01*
X12544944Y-14443174D02*
X12544944Y-14490793D01*
X12544944Y-14490793D02*
X12535420Y-14528888D01*
X12535420Y-14528888D02*
X12525896Y-14547936D01*
X12525896Y-14547936D02*
X12516372Y-14557460D01*
X12516372Y-14557460D02*
X12497325Y-14566984D01*
X12497325Y-14566984D02*
X12478277Y-14566984D01*
X12478277Y-14566984D02*
X12459229Y-14557460D01*
X12459229Y-14557460D02*
X12449706Y-14547936D01*
X12449706Y-14547936D02*
X12440182Y-14528888D01*
X12440182Y-14528888D02*
X12430658Y-14490793D01*
X12430658Y-14490793D02*
X12430658Y-14443174D01*
X12430658Y-14443174D02*
X12440182Y-14405079D01*
X12440182Y-14405079D02*
X12449706Y-14386031D01*
X12449706Y-14386031D02*
X12459229Y-14376508D01*
X12459229Y-14376508D02*
X12478277Y-14366984D01*
X12621134Y-14366984D02*
X12621134Y-14405079D01*
X12697325Y-14366984D02*
X12697325Y-14405079D01*
X12992563Y-14643174D02*
X12983039Y-14633650D01*
X12983039Y-14633650D02*
X12963991Y-14605079D01*
X12963991Y-14605079D02*
X12954468Y-14586031D01*
X12954468Y-14586031D02*
X12944944Y-14557460D01*
X12944944Y-14557460D02*
X12935420Y-14509841D01*
X12935420Y-14509841D02*
X12935420Y-14471746D01*
X12935420Y-14471746D02*
X12944944Y-14424127D01*
X12944944Y-14424127D02*
X12954468Y-14395555D01*
X12954468Y-14395555D02*
X12963991Y-14376508D01*
X12963991Y-14376508D02*
X12983039Y-14347936D01*
X12983039Y-14347936D02*
X12992563Y-14338412D01*
X13049706Y-14366984D02*
X13173515Y-14366984D01*
X13173515Y-14366984D02*
X13106848Y-14443174D01*
X13106848Y-14443174D02*
X13135420Y-14443174D01*
X13135420Y-14443174D02*
X13154468Y-14452698D01*
X13154468Y-14452698D02*
X13163991Y-14462222D01*
X13163991Y-14462222D02*
X13173515Y-14481269D01*
X13173515Y-14481269D02*
X13173515Y-14528888D01*
X13173515Y-14528888D02*
X13163991Y-14547936D01*
X13163991Y-14547936D02*
X13154468Y-14557460D01*
X13154468Y-14557460D02*
X13135420Y-14566984D01*
X13135420Y-14566984D02*
X13078277Y-14566984D01*
X13078277Y-14566984D02*
X13059229Y-14557460D01*
X13059229Y-14557460D02*
X13049706Y-14547936D01*
X13411610Y-14566984D02*
X13411610Y-14366984D01*
X13497325Y-14566984D02*
X13497325Y-14462222D01*
X13497325Y-14462222D02*
X13487801Y-14443174D01*
X13487801Y-14443174D02*
X13468753Y-14433650D01*
X13468753Y-14433650D02*
X13440182Y-14433650D01*
X13440182Y-14433650D02*
X13421134Y-14443174D01*
X13421134Y-14443174D02*
X13411610Y-14452698D01*
X13621134Y-14566984D02*
X13602087Y-14557460D01*
X13602087Y-14557460D02*
X13592563Y-14547936D01*
X13592563Y-14547936D02*
X13583039Y-14528888D01*
X13583039Y-14528888D02*
X13583039Y-14471746D01*
X13583039Y-14471746D02*
X13592563Y-14452698D01*
X13592563Y-14452698D02*
X13602087Y-14443174D01*
X13602087Y-14443174D02*
X13621134Y-14433650D01*
X13621134Y-14433650D02*
X13649706Y-14433650D01*
X13649706Y-14433650D02*
X13668753Y-14443174D01*
X13668753Y-14443174D02*
X13678277Y-14452698D01*
X13678277Y-14452698D02*
X13687801Y-14471746D01*
X13687801Y-14471746D02*
X13687801Y-14528888D01*
X13687801Y-14528888D02*
X13678277Y-14547936D01*
X13678277Y-14547936D02*
X13668753Y-14557460D01*
X13668753Y-14557460D02*
X13649706Y-14566984D01*
X13649706Y-14566984D02*
X13621134Y-14566984D01*
X13802087Y-14566984D02*
X13783039Y-14557460D01*
X13783039Y-14557460D02*
X13773515Y-14538412D01*
X13773515Y-14538412D02*
X13773515Y-14366984D01*
X13954468Y-14557460D02*
X13935420Y-14566984D01*
X13935420Y-14566984D02*
X13897325Y-14566984D01*
X13897325Y-14566984D02*
X13878277Y-14557460D01*
X13878277Y-14557460D02*
X13868753Y-14538412D01*
X13868753Y-14538412D02*
X13868753Y-14462222D01*
X13868753Y-14462222D02*
X13878277Y-14443174D01*
X13878277Y-14443174D02*
X13897325Y-14433650D01*
X13897325Y-14433650D02*
X13935420Y-14433650D01*
X13935420Y-14433650D02*
X13954468Y-14443174D01*
X13954468Y-14443174D02*
X13963991Y-14462222D01*
X13963991Y-14462222D02*
X13963991Y-14481269D01*
X13963991Y-14481269D02*
X13868753Y-14500317D01*
X14040182Y-14557460D02*
X14059230Y-14566984D01*
X14059230Y-14566984D02*
X14097325Y-14566984D01*
X14097325Y-14566984D02*
X14116372Y-14557460D01*
X14116372Y-14557460D02*
X14125896Y-14538412D01*
X14125896Y-14538412D02*
X14125896Y-14528888D01*
X14125896Y-14528888D02*
X14116372Y-14509841D01*
X14116372Y-14509841D02*
X14097325Y-14500317D01*
X14097325Y-14500317D02*
X14068753Y-14500317D01*
X14068753Y-14500317D02*
X14049706Y-14490793D01*
X14049706Y-14490793D02*
X14040182Y-14471746D01*
X14040182Y-14471746D02*
X14040182Y-14462222D01*
X14040182Y-14462222D02*
X14049706Y-14443174D01*
X14049706Y-14443174D02*
X14068753Y-14433650D01*
X14068753Y-14433650D02*
X14097325Y-14433650D01*
X14097325Y-14433650D02*
X14116372Y-14443174D01*
X14192563Y-14643174D02*
X14202087Y-14633650D01*
X14202087Y-14633650D02*
X14221134Y-14605079D01*
X14221134Y-14605079D02*
X14230658Y-14586031D01*
X14230658Y-14586031D02*
X14240182Y-14557460D01*
X14240182Y-14557460D02*
X14249706Y-14509841D01*
X14249706Y-14509841D02*
X14249706Y-14471746D01*
X14249706Y-14471746D02*
X14240182Y-14424127D01*
X14240182Y-14424127D02*
X14230658Y-14395555D01*
X14230658Y-14395555D02*
X14221134Y-14376508D01*
X14221134Y-14376508D02*
X14202087Y-14347936D01*
X14202087Y-14347936D02*
X14192563Y-14338412D01*
D12*
X9403295Y-14773795D02*
X9403295Y-14705205D01*
X9334705Y-14705205D01*
X9334705Y-14773795D01*
X9403295Y-14773795D01*
D11*
X9716372Y-14630984D02*
X9735420Y-14630984D01*
X9735420Y-14630984D02*
X9754467Y-14640508D01*
X9754467Y-14640508D02*
X9763991Y-14650031D01*
X9763991Y-14650031D02*
X9773515Y-14669079D01*
X9773515Y-14669079D02*
X9783039Y-14707174D01*
X9783039Y-14707174D02*
X9783039Y-14754793D01*
X9783039Y-14754793D02*
X9773515Y-14792888D01*
X9773515Y-14792888D02*
X9763991Y-14811936D01*
X9763991Y-14811936D02*
X9754467Y-14821460D01*
X9754467Y-14821460D02*
X9735420Y-14830984D01*
X9735420Y-14830984D02*
X9716372Y-14830984D01*
X9716372Y-14830984D02*
X9697324Y-14821460D01*
X9697324Y-14821460D02*
X9687801Y-14811936D01*
X9687801Y-14811936D02*
X9678277Y-14792888D01*
X9678277Y-14792888D02*
X9668753Y-14754793D01*
X9668753Y-14754793D02*
X9668753Y-14707174D01*
X9668753Y-14707174D02*
X9678277Y-14669079D01*
X9678277Y-14669079D02*
X9687801Y-14650031D01*
X9687801Y-14650031D02*
X9697324Y-14640508D01*
X9697324Y-14640508D02*
X9716372Y-14630984D01*
X9868753Y-14811936D02*
X9878277Y-14821460D01*
X9878277Y-14821460D02*
X9868753Y-14830984D01*
X9868753Y-14830984D02*
X9859229Y-14821460D01*
X9859229Y-14821460D02*
X9868753Y-14811936D01*
X9868753Y-14811936D02*
X9868753Y-14830984D01*
X9973515Y-14830984D02*
X10011610Y-14830984D01*
X10011610Y-14830984D02*
X10030658Y-14821460D01*
X10030658Y-14821460D02*
X10040182Y-14811936D01*
X10040182Y-14811936D02*
X10059229Y-14783365D01*
X10059229Y-14783365D02*
X10068753Y-14745269D01*
X10068753Y-14745269D02*
X10068753Y-14669079D01*
X10068753Y-14669079D02*
X10059229Y-14650031D01*
X10059229Y-14650031D02*
X10049705Y-14640508D01*
X10049705Y-14640508D02*
X10030658Y-14630984D01*
X10030658Y-14630984D02*
X9992563Y-14630984D01*
X9992563Y-14630984D02*
X9973515Y-14640508D01*
X9973515Y-14640508D02*
X9963991Y-14650031D01*
X9963991Y-14650031D02*
X9954467Y-14669079D01*
X9954467Y-14669079D02*
X9954467Y-14716698D01*
X9954467Y-14716698D02*
X9963991Y-14735746D01*
X9963991Y-14735746D02*
X9973515Y-14745269D01*
X9973515Y-14745269D02*
X9992563Y-14754793D01*
X9992563Y-14754793D02*
X10030658Y-14754793D01*
X10030658Y-14754793D02*
X10049705Y-14745269D01*
X10049705Y-14745269D02*
X10059229Y-14735746D01*
X10059229Y-14735746D02*
X10068753Y-14716698D01*
X10135420Y-14630984D02*
X10268753Y-14630984D01*
X10268753Y-14630984D02*
X10183039Y-14830984D01*
X10383039Y-14630984D02*
X10402086Y-14630984D01*
X10402086Y-14630984D02*
X10421134Y-14640508D01*
X10421134Y-14640508D02*
X10430658Y-14650031D01*
X10430658Y-14650031D02*
X10440182Y-14669079D01*
X10440182Y-14669079D02*
X10449705Y-14707174D01*
X10449705Y-14707174D02*
X10449705Y-14754793D01*
X10449705Y-14754793D02*
X10440182Y-14792888D01*
X10440182Y-14792888D02*
X10430658Y-14811936D01*
X10430658Y-14811936D02*
X10421134Y-14821460D01*
X10421134Y-14821460D02*
X10402086Y-14830984D01*
X10402086Y-14830984D02*
X10383039Y-14830984D01*
X10383039Y-14830984D02*
X10363991Y-14821460D01*
X10363991Y-14821460D02*
X10354467Y-14811936D01*
X10354467Y-14811936D02*
X10344944Y-14792888D01*
X10344944Y-14792888D02*
X10335420Y-14754793D01*
X10335420Y-14754793D02*
X10335420Y-14707174D01*
X10335420Y-14707174D02*
X10344944Y-14669079D01*
X10344944Y-14669079D02*
X10354467Y-14650031D01*
X10354467Y-14650031D02*
X10363991Y-14640508D01*
X10363991Y-14640508D02*
X10383039Y-14630984D01*
X10535420Y-14830984D02*
X10535420Y-14697650D01*
X10535420Y-14716698D02*
X10544944Y-14707174D01*
X10544944Y-14707174D02*
X10563991Y-14697650D01*
X10563991Y-14697650D02*
X10592563Y-14697650D01*
X10592563Y-14697650D02*
X10611610Y-14707174D01*
X10611610Y-14707174D02*
X10621134Y-14726222D01*
X10621134Y-14726222D02*
X10621134Y-14830984D01*
X10621134Y-14726222D02*
X10630658Y-14707174D01*
X10630658Y-14707174D02*
X10649705Y-14697650D01*
X10649705Y-14697650D02*
X10678277Y-14697650D01*
X10678277Y-14697650D02*
X10697325Y-14707174D01*
X10697325Y-14707174D02*
X10706848Y-14726222D01*
X10706848Y-14726222D02*
X10706848Y-14830984D01*
X10802086Y-14830984D02*
X10802086Y-14697650D01*
X10802086Y-14716698D02*
X10811610Y-14707174D01*
X10811610Y-14707174D02*
X10830658Y-14697650D01*
X10830658Y-14697650D02*
X10859229Y-14697650D01*
X10859229Y-14697650D02*
X10878277Y-14707174D01*
X10878277Y-14707174D02*
X10887801Y-14726222D01*
X10887801Y-14726222D02*
X10887801Y-14830984D01*
X10887801Y-14726222D02*
X10897325Y-14707174D01*
X10897325Y-14707174D02*
X10916372Y-14697650D01*
X10916372Y-14697650D02*
X10944944Y-14697650D01*
X10944944Y-14697650D02*
X10963991Y-14707174D01*
X10963991Y-14707174D02*
X10973515Y-14726222D01*
X10973515Y-14726222D02*
X10973515Y-14830984D01*
X11363991Y-14621460D02*
X11192563Y-14878603D01*
X11621134Y-14630984D02*
X11640182Y-14630984D01*
X11640182Y-14630984D02*
X11659229Y-14640508D01*
X11659229Y-14640508D02*
X11668753Y-14650031D01*
X11668753Y-14650031D02*
X11678277Y-14669079D01*
X11678277Y-14669079D02*
X11687801Y-14707174D01*
X11687801Y-14707174D02*
X11687801Y-14754793D01*
X11687801Y-14754793D02*
X11678277Y-14792888D01*
X11678277Y-14792888D02*
X11668753Y-14811936D01*
X11668753Y-14811936D02*
X11659229Y-14821460D01*
X11659229Y-14821460D02*
X11640182Y-14830984D01*
X11640182Y-14830984D02*
X11621134Y-14830984D01*
X11621134Y-14830984D02*
X11602086Y-14821460D01*
X11602086Y-14821460D02*
X11592563Y-14811936D01*
X11592563Y-14811936D02*
X11583039Y-14792888D01*
X11583039Y-14792888D02*
X11573515Y-14754793D01*
X11573515Y-14754793D02*
X11573515Y-14707174D01*
X11573515Y-14707174D02*
X11583039Y-14669079D01*
X11583039Y-14669079D02*
X11592563Y-14650031D01*
X11592563Y-14650031D02*
X11602086Y-14640508D01*
X11602086Y-14640508D02*
X11621134Y-14630984D01*
X11773515Y-14811936D02*
X11783039Y-14821460D01*
X11783039Y-14821460D02*
X11773515Y-14830984D01*
X11773515Y-14830984D02*
X11763991Y-14821460D01*
X11763991Y-14821460D02*
X11773515Y-14811936D01*
X11773515Y-14811936D02*
X11773515Y-14830984D01*
X11906848Y-14630984D02*
X11925896Y-14630984D01*
X11925896Y-14630984D02*
X11944944Y-14640508D01*
X11944944Y-14640508D02*
X11954467Y-14650031D01*
X11954467Y-14650031D02*
X11963991Y-14669079D01*
X11963991Y-14669079D02*
X11973515Y-14707174D01*
X11973515Y-14707174D02*
X11973515Y-14754793D01*
X11973515Y-14754793D02*
X11963991Y-14792888D01*
X11963991Y-14792888D02*
X11954467Y-14811936D01*
X11954467Y-14811936D02*
X11944944Y-14821460D01*
X11944944Y-14821460D02*
X11925896Y-14830984D01*
X11925896Y-14830984D02*
X11906848Y-14830984D01*
X11906848Y-14830984D02*
X11887801Y-14821460D01*
X11887801Y-14821460D02*
X11878277Y-14811936D01*
X11878277Y-14811936D02*
X11868753Y-14792888D01*
X11868753Y-14792888D02*
X11859229Y-14754793D01*
X11859229Y-14754793D02*
X11859229Y-14707174D01*
X11859229Y-14707174D02*
X11868753Y-14669079D01*
X11868753Y-14669079D02*
X11878277Y-14650031D01*
X11878277Y-14650031D02*
X11887801Y-14640508D01*
X11887801Y-14640508D02*
X11906848Y-14630984D01*
X12040182Y-14630984D02*
X12163991Y-14630984D01*
X12163991Y-14630984D02*
X12097325Y-14707174D01*
X12097325Y-14707174D02*
X12125896Y-14707174D01*
X12125896Y-14707174D02*
X12144944Y-14716698D01*
X12144944Y-14716698D02*
X12154467Y-14726222D01*
X12154467Y-14726222D02*
X12163991Y-14745269D01*
X12163991Y-14745269D02*
X12163991Y-14792888D01*
X12163991Y-14792888D02*
X12154467Y-14811936D01*
X12154467Y-14811936D02*
X12144944Y-14821460D01*
X12144944Y-14821460D02*
X12125896Y-14830984D01*
X12125896Y-14830984D02*
X12068753Y-14830984D01*
X12068753Y-14830984D02*
X12049706Y-14821460D01*
X12049706Y-14821460D02*
X12040182Y-14811936D01*
X12278277Y-14716698D02*
X12259229Y-14707174D01*
X12259229Y-14707174D02*
X12249706Y-14697650D01*
X12249706Y-14697650D02*
X12240182Y-14678603D01*
X12240182Y-14678603D02*
X12240182Y-14669079D01*
X12240182Y-14669079D02*
X12249706Y-14650031D01*
X12249706Y-14650031D02*
X12259229Y-14640508D01*
X12259229Y-14640508D02*
X12278277Y-14630984D01*
X12278277Y-14630984D02*
X12316372Y-14630984D01*
X12316372Y-14630984D02*
X12335420Y-14640508D01*
X12335420Y-14640508D02*
X12344944Y-14650031D01*
X12344944Y-14650031D02*
X12354467Y-14669079D01*
X12354467Y-14669079D02*
X12354467Y-14678603D01*
X12354467Y-14678603D02*
X12344944Y-14697650D01*
X12344944Y-14697650D02*
X12335420Y-14707174D01*
X12335420Y-14707174D02*
X12316372Y-14716698D01*
X12316372Y-14716698D02*
X12278277Y-14716698D01*
X12278277Y-14716698D02*
X12259229Y-14726222D01*
X12259229Y-14726222D02*
X12249706Y-14735746D01*
X12249706Y-14735746D02*
X12240182Y-14754793D01*
X12240182Y-14754793D02*
X12240182Y-14792888D01*
X12240182Y-14792888D02*
X12249706Y-14811936D01*
X12249706Y-14811936D02*
X12259229Y-14821460D01*
X12259229Y-14821460D02*
X12278277Y-14830984D01*
X12278277Y-14830984D02*
X12316372Y-14830984D01*
X12316372Y-14830984D02*
X12335420Y-14821460D01*
X12335420Y-14821460D02*
X12344944Y-14811936D01*
X12344944Y-14811936D02*
X12354467Y-14792888D01*
X12354467Y-14792888D02*
X12354467Y-14754793D01*
X12354467Y-14754793D02*
X12344944Y-14735746D01*
X12344944Y-14735746D02*
X12335420Y-14726222D01*
X12335420Y-14726222D02*
X12316372Y-14716698D01*
X12430658Y-14650031D02*
X12440182Y-14640508D01*
X12440182Y-14640508D02*
X12459229Y-14630984D01*
X12459229Y-14630984D02*
X12506848Y-14630984D01*
X12506848Y-14630984D02*
X12525896Y-14640508D01*
X12525896Y-14640508D02*
X12535420Y-14650031D01*
X12535420Y-14650031D02*
X12544944Y-14669079D01*
X12544944Y-14669079D02*
X12544944Y-14688127D01*
X12544944Y-14688127D02*
X12535420Y-14716698D01*
X12535420Y-14716698D02*
X12421134Y-14830984D01*
X12421134Y-14830984D02*
X12544944Y-14830984D01*
X12621134Y-14630984D02*
X12621134Y-14669079D01*
X12697325Y-14630984D02*
X12697325Y-14669079D01*
X12992563Y-14907174D02*
X12983039Y-14897650D01*
X12983039Y-14897650D02*
X12963991Y-14869079D01*
X12963991Y-14869079D02*
X12954468Y-14850031D01*
X12954468Y-14850031D02*
X12944944Y-14821460D01*
X12944944Y-14821460D02*
X12935420Y-14773841D01*
X12935420Y-14773841D02*
X12935420Y-14735746D01*
X12935420Y-14735746D02*
X12944944Y-14688127D01*
X12944944Y-14688127D02*
X12954468Y-14659555D01*
X12954468Y-14659555D02*
X12963991Y-14640508D01*
X12963991Y-14640508D02*
X12983039Y-14611936D01*
X12983039Y-14611936D02*
X12992563Y-14602412D01*
X13154468Y-14630984D02*
X13116372Y-14630984D01*
X13116372Y-14630984D02*
X13097325Y-14640508D01*
X13097325Y-14640508D02*
X13087801Y-14650031D01*
X13087801Y-14650031D02*
X13068753Y-14678603D01*
X13068753Y-14678603D02*
X13059229Y-14716698D01*
X13059229Y-14716698D02*
X13059229Y-14792888D01*
X13059229Y-14792888D02*
X13068753Y-14811936D01*
X13068753Y-14811936D02*
X13078277Y-14821460D01*
X13078277Y-14821460D02*
X13097325Y-14830984D01*
X13097325Y-14830984D02*
X13135420Y-14830984D01*
X13135420Y-14830984D02*
X13154468Y-14821460D01*
X13154468Y-14821460D02*
X13163991Y-14811936D01*
X13163991Y-14811936D02*
X13173515Y-14792888D01*
X13173515Y-14792888D02*
X13173515Y-14745269D01*
X13173515Y-14745269D02*
X13163991Y-14726222D01*
X13163991Y-14726222D02*
X13154468Y-14716698D01*
X13154468Y-14716698D02*
X13135420Y-14707174D01*
X13135420Y-14707174D02*
X13097325Y-14707174D01*
X13097325Y-14707174D02*
X13078277Y-14716698D01*
X13078277Y-14716698D02*
X13068753Y-14726222D01*
X13068753Y-14726222D02*
X13059229Y-14745269D01*
X13411610Y-14830984D02*
X13411610Y-14630984D01*
X13497325Y-14830984D02*
X13497325Y-14726222D01*
X13497325Y-14726222D02*
X13487801Y-14707174D01*
X13487801Y-14707174D02*
X13468753Y-14697650D01*
X13468753Y-14697650D02*
X13440182Y-14697650D01*
X13440182Y-14697650D02*
X13421134Y-14707174D01*
X13421134Y-14707174D02*
X13411610Y-14716698D01*
X13621134Y-14830984D02*
X13602087Y-14821460D01*
X13602087Y-14821460D02*
X13592563Y-14811936D01*
X13592563Y-14811936D02*
X13583039Y-14792888D01*
X13583039Y-14792888D02*
X13583039Y-14735746D01*
X13583039Y-14735746D02*
X13592563Y-14716698D01*
X13592563Y-14716698D02*
X13602087Y-14707174D01*
X13602087Y-14707174D02*
X13621134Y-14697650D01*
X13621134Y-14697650D02*
X13649706Y-14697650D01*
X13649706Y-14697650D02*
X13668753Y-14707174D01*
X13668753Y-14707174D02*
X13678277Y-14716698D01*
X13678277Y-14716698D02*
X13687801Y-14735746D01*
X13687801Y-14735746D02*
X13687801Y-14792888D01*
X13687801Y-14792888D02*
X13678277Y-14811936D01*
X13678277Y-14811936D02*
X13668753Y-14821460D01*
X13668753Y-14821460D02*
X13649706Y-14830984D01*
X13649706Y-14830984D02*
X13621134Y-14830984D01*
X13802087Y-14830984D02*
X13783039Y-14821460D01*
X13783039Y-14821460D02*
X13773515Y-14802412D01*
X13773515Y-14802412D02*
X13773515Y-14630984D01*
X13954468Y-14821460D02*
X13935420Y-14830984D01*
X13935420Y-14830984D02*
X13897325Y-14830984D01*
X13897325Y-14830984D02*
X13878277Y-14821460D01*
X13878277Y-14821460D02*
X13868753Y-14802412D01*
X13868753Y-14802412D02*
X13868753Y-14726222D01*
X13868753Y-14726222D02*
X13878277Y-14707174D01*
X13878277Y-14707174D02*
X13897325Y-14697650D01*
X13897325Y-14697650D02*
X13935420Y-14697650D01*
X13935420Y-14697650D02*
X13954468Y-14707174D01*
X13954468Y-14707174D02*
X13963991Y-14726222D01*
X13963991Y-14726222D02*
X13963991Y-14745269D01*
X13963991Y-14745269D02*
X13868753Y-14764317D01*
X14040182Y-14821460D02*
X14059230Y-14830984D01*
X14059230Y-14830984D02*
X14097325Y-14830984D01*
X14097325Y-14830984D02*
X14116372Y-14821460D01*
X14116372Y-14821460D02*
X14125896Y-14802412D01*
X14125896Y-14802412D02*
X14125896Y-14792888D01*
X14125896Y-14792888D02*
X14116372Y-14773841D01*
X14116372Y-14773841D02*
X14097325Y-14764317D01*
X14097325Y-14764317D02*
X14068753Y-14764317D01*
X14068753Y-14764317D02*
X14049706Y-14754793D01*
X14049706Y-14754793D02*
X14040182Y-14735746D01*
X14040182Y-14735746D02*
X14040182Y-14726222D01*
X14040182Y-14726222D02*
X14049706Y-14707174D01*
X14049706Y-14707174D02*
X14068753Y-14697650D01*
X14068753Y-14697650D02*
X14097325Y-14697650D01*
X14097325Y-14697650D02*
X14116372Y-14707174D01*
X14192563Y-14907174D02*
X14202087Y-14897650D01*
X14202087Y-14897650D02*
X14221134Y-14869079D01*
X14221134Y-14869079D02*
X14230658Y-14850031D01*
X14230658Y-14850031D02*
X14240182Y-14821460D01*
X14240182Y-14821460D02*
X14249706Y-14773841D01*
X14249706Y-14773841D02*
X14249706Y-14735746D01*
X14249706Y-14735746D02*
X14240182Y-14688127D01*
X14240182Y-14688127D02*
X14230658Y-14659555D01*
X14230658Y-14659555D02*
X14221134Y-14640508D01*
X14221134Y-14640508D02*
X14202087Y-14611936D01*
X14202087Y-14611936D02*
X14192563Y-14602412D01*
D12*
X9367500Y-15053500D02*
X9417500Y-15003500D01*
X9367500Y-14953500D01*
X9317500Y-15003500D01*
X9367500Y-15053500D01*
D11*
X9783039Y-15094984D02*
X9668753Y-15094984D01*
X9725896Y-15094984D02*
X9725896Y-14894984D01*
X9725896Y-14894984D02*
X9706848Y-14923555D01*
X9706848Y-14923555D02*
X9687801Y-14942603D01*
X9687801Y-14942603D02*
X9668753Y-14952127D01*
X9868753Y-15075936D02*
X9878277Y-15085460D01*
X9878277Y-15085460D02*
X9868753Y-15094984D01*
X9868753Y-15094984D02*
X9859229Y-15085460D01*
X9859229Y-15085460D02*
X9868753Y-15075936D01*
X9868753Y-15075936D02*
X9868753Y-15094984D01*
X10002086Y-14894984D02*
X10021134Y-14894984D01*
X10021134Y-14894984D02*
X10040182Y-14904508D01*
X10040182Y-14904508D02*
X10049705Y-14914031D01*
X10049705Y-14914031D02*
X10059229Y-14933079D01*
X10059229Y-14933079D02*
X10068753Y-14971174D01*
X10068753Y-14971174D02*
X10068753Y-15018793D01*
X10068753Y-15018793D02*
X10059229Y-15056888D01*
X10059229Y-15056888D02*
X10049705Y-15075936D01*
X10049705Y-15075936D02*
X10040182Y-15085460D01*
X10040182Y-15085460D02*
X10021134Y-15094984D01*
X10021134Y-15094984D02*
X10002086Y-15094984D01*
X10002086Y-15094984D02*
X9983039Y-15085460D01*
X9983039Y-15085460D02*
X9973515Y-15075936D01*
X9973515Y-15075936D02*
X9963991Y-15056888D01*
X9963991Y-15056888D02*
X9954467Y-15018793D01*
X9954467Y-15018793D02*
X9954467Y-14971174D01*
X9954467Y-14971174D02*
X9963991Y-14933079D01*
X9963991Y-14933079D02*
X9973515Y-14914031D01*
X9973515Y-14914031D02*
X9983039Y-14904508D01*
X9983039Y-14904508D02*
X10002086Y-14894984D01*
X10192563Y-14894984D02*
X10211610Y-14894984D01*
X10211610Y-14894984D02*
X10230658Y-14904508D01*
X10230658Y-14904508D02*
X10240182Y-14914031D01*
X10240182Y-14914031D02*
X10249705Y-14933079D01*
X10249705Y-14933079D02*
X10259229Y-14971174D01*
X10259229Y-14971174D02*
X10259229Y-15018793D01*
X10259229Y-15018793D02*
X10249705Y-15056888D01*
X10249705Y-15056888D02*
X10240182Y-15075936D01*
X10240182Y-15075936D02*
X10230658Y-15085460D01*
X10230658Y-15085460D02*
X10211610Y-15094984D01*
X10211610Y-15094984D02*
X10192563Y-15094984D01*
X10192563Y-15094984D02*
X10173515Y-15085460D01*
X10173515Y-15085460D02*
X10163991Y-15075936D01*
X10163991Y-15075936D02*
X10154467Y-15056888D01*
X10154467Y-15056888D02*
X10144944Y-15018793D01*
X10144944Y-15018793D02*
X10144944Y-14971174D01*
X10144944Y-14971174D02*
X10154467Y-14933079D01*
X10154467Y-14933079D02*
X10163991Y-14914031D01*
X10163991Y-14914031D02*
X10173515Y-14904508D01*
X10173515Y-14904508D02*
X10192563Y-14894984D01*
X10383039Y-14894984D02*
X10402086Y-14894984D01*
X10402086Y-14894984D02*
X10421134Y-14904508D01*
X10421134Y-14904508D02*
X10430658Y-14914031D01*
X10430658Y-14914031D02*
X10440182Y-14933079D01*
X10440182Y-14933079D02*
X10449705Y-14971174D01*
X10449705Y-14971174D02*
X10449705Y-15018793D01*
X10449705Y-15018793D02*
X10440182Y-15056888D01*
X10440182Y-15056888D02*
X10430658Y-15075936D01*
X10430658Y-15075936D02*
X10421134Y-15085460D01*
X10421134Y-15085460D02*
X10402086Y-15094984D01*
X10402086Y-15094984D02*
X10383039Y-15094984D01*
X10383039Y-15094984D02*
X10363991Y-15085460D01*
X10363991Y-15085460D02*
X10354467Y-15075936D01*
X10354467Y-15075936D02*
X10344944Y-15056888D01*
X10344944Y-15056888D02*
X10335420Y-15018793D01*
X10335420Y-15018793D02*
X10335420Y-14971174D01*
X10335420Y-14971174D02*
X10344944Y-14933079D01*
X10344944Y-14933079D02*
X10354467Y-14914031D01*
X10354467Y-14914031D02*
X10363991Y-14904508D01*
X10363991Y-14904508D02*
X10383039Y-14894984D01*
X10535420Y-15094984D02*
X10535420Y-14961650D01*
X10535420Y-14980698D02*
X10544944Y-14971174D01*
X10544944Y-14971174D02*
X10563991Y-14961650D01*
X10563991Y-14961650D02*
X10592563Y-14961650D01*
X10592563Y-14961650D02*
X10611610Y-14971174D01*
X10611610Y-14971174D02*
X10621134Y-14990222D01*
X10621134Y-14990222D02*
X10621134Y-15094984D01*
X10621134Y-14990222D02*
X10630658Y-14971174D01*
X10630658Y-14971174D02*
X10649705Y-14961650D01*
X10649705Y-14961650D02*
X10678277Y-14961650D01*
X10678277Y-14961650D02*
X10697325Y-14971174D01*
X10697325Y-14971174D02*
X10706848Y-14990222D01*
X10706848Y-14990222D02*
X10706848Y-15094984D01*
X10802086Y-15094984D02*
X10802086Y-14961650D01*
X10802086Y-14980698D02*
X10811610Y-14971174D01*
X10811610Y-14971174D02*
X10830658Y-14961650D01*
X10830658Y-14961650D02*
X10859229Y-14961650D01*
X10859229Y-14961650D02*
X10878277Y-14971174D01*
X10878277Y-14971174D02*
X10887801Y-14990222D01*
X10887801Y-14990222D02*
X10887801Y-15094984D01*
X10887801Y-14990222D02*
X10897325Y-14971174D01*
X10897325Y-14971174D02*
X10916372Y-14961650D01*
X10916372Y-14961650D02*
X10944944Y-14961650D01*
X10944944Y-14961650D02*
X10963991Y-14971174D01*
X10963991Y-14971174D02*
X10973515Y-14990222D01*
X10973515Y-14990222D02*
X10973515Y-15094984D01*
X11363991Y-14885460D02*
X11192563Y-15142603D01*
X11621134Y-14894984D02*
X11640182Y-14894984D01*
X11640182Y-14894984D02*
X11659229Y-14904508D01*
X11659229Y-14904508D02*
X11668753Y-14914031D01*
X11668753Y-14914031D02*
X11678277Y-14933079D01*
X11678277Y-14933079D02*
X11687801Y-14971174D01*
X11687801Y-14971174D02*
X11687801Y-15018793D01*
X11687801Y-15018793D02*
X11678277Y-15056888D01*
X11678277Y-15056888D02*
X11668753Y-15075936D01*
X11668753Y-15075936D02*
X11659229Y-15085460D01*
X11659229Y-15085460D02*
X11640182Y-15094984D01*
X11640182Y-15094984D02*
X11621134Y-15094984D01*
X11621134Y-15094984D02*
X11602086Y-15085460D01*
X11602086Y-15085460D02*
X11592563Y-15075936D01*
X11592563Y-15075936D02*
X11583039Y-15056888D01*
X11583039Y-15056888D02*
X11573515Y-15018793D01*
X11573515Y-15018793D02*
X11573515Y-14971174D01*
X11573515Y-14971174D02*
X11583039Y-14933079D01*
X11583039Y-14933079D02*
X11592563Y-14914031D01*
X11592563Y-14914031D02*
X11602086Y-14904508D01*
X11602086Y-14904508D02*
X11621134Y-14894984D01*
X11773515Y-15075936D02*
X11783039Y-15085460D01*
X11783039Y-15085460D02*
X11773515Y-15094984D01*
X11773515Y-15094984D02*
X11763991Y-15085460D01*
X11763991Y-15085460D02*
X11773515Y-15075936D01*
X11773515Y-15075936D02*
X11773515Y-15094984D01*
X11906848Y-14894984D02*
X11925896Y-14894984D01*
X11925896Y-14894984D02*
X11944944Y-14904508D01*
X11944944Y-14904508D02*
X11954467Y-14914031D01*
X11954467Y-14914031D02*
X11963991Y-14933079D01*
X11963991Y-14933079D02*
X11973515Y-14971174D01*
X11973515Y-14971174D02*
X11973515Y-15018793D01*
X11973515Y-15018793D02*
X11963991Y-15056888D01*
X11963991Y-15056888D02*
X11954467Y-15075936D01*
X11954467Y-15075936D02*
X11944944Y-15085460D01*
X11944944Y-15085460D02*
X11925896Y-15094984D01*
X11925896Y-15094984D02*
X11906848Y-15094984D01*
X11906848Y-15094984D02*
X11887801Y-15085460D01*
X11887801Y-15085460D02*
X11878277Y-15075936D01*
X11878277Y-15075936D02*
X11868753Y-15056888D01*
X11868753Y-15056888D02*
X11859229Y-15018793D01*
X11859229Y-15018793D02*
X11859229Y-14971174D01*
X11859229Y-14971174D02*
X11868753Y-14933079D01*
X11868753Y-14933079D02*
X11878277Y-14914031D01*
X11878277Y-14914031D02*
X11887801Y-14904508D01*
X11887801Y-14904508D02*
X11906848Y-14894984D01*
X12040182Y-14894984D02*
X12163991Y-14894984D01*
X12163991Y-14894984D02*
X12097325Y-14971174D01*
X12097325Y-14971174D02*
X12125896Y-14971174D01*
X12125896Y-14971174D02*
X12144944Y-14980698D01*
X12144944Y-14980698D02*
X12154467Y-14990222D01*
X12154467Y-14990222D02*
X12163991Y-15009269D01*
X12163991Y-15009269D02*
X12163991Y-15056888D01*
X12163991Y-15056888D02*
X12154467Y-15075936D01*
X12154467Y-15075936D02*
X12144944Y-15085460D01*
X12144944Y-15085460D02*
X12125896Y-15094984D01*
X12125896Y-15094984D02*
X12068753Y-15094984D01*
X12068753Y-15094984D02*
X12049706Y-15085460D01*
X12049706Y-15085460D02*
X12040182Y-15075936D01*
X12259229Y-15094984D02*
X12297325Y-15094984D01*
X12297325Y-15094984D02*
X12316372Y-15085460D01*
X12316372Y-15085460D02*
X12325896Y-15075936D01*
X12325896Y-15075936D02*
X12344944Y-15047365D01*
X12344944Y-15047365D02*
X12354467Y-15009269D01*
X12354467Y-15009269D02*
X12354467Y-14933079D01*
X12354467Y-14933079D02*
X12344944Y-14914031D01*
X12344944Y-14914031D02*
X12335420Y-14904508D01*
X12335420Y-14904508D02*
X12316372Y-14894984D01*
X12316372Y-14894984D02*
X12278277Y-14894984D01*
X12278277Y-14894984D02*
X12259229Y-14904508D01*
X12259229Y-14904508D02*
X12249706Y-14914031D01*
X12249706Y-14914031D02*
X12240182Y-14933079D01*
X12240182Y-14933079D02*
X12240182Y-14980698D01*
X12240182Y-14980698D02*
X12249706Y-14999746D01*
X12249706Y-14999746D02*
X12259229Y-15009269D01*
X12259229Y-15009269D02*
X12278277Y-15018793D01*
X12278277Y-15018793D02*
X12316372Y-15018793D01*
X12316372Y-15018793D02*
X12335420Y-15009269D01*
X12335420Y-15009269D02*
X12344944Y-14999746D01*
X12344944Y-14999746D02*
X12354467Y-14980698D01*
X12525896Y-14961650D02*
X12525896Y-15094984D01*
X12478277Y-14885460D02*
X12430658Y-15028317D01*
X12430658Y-15028317D02*
X12554467Y-15028317D01*
X12621134Y-14894984D02*
X12621134Y-14933079D01*
X12697325Y-14894984D02*
X12697325Y-14933079D01*
X12992563Y-15171174D02*
X12983039Y-15161650D01*
X12983039Y-15161650D02*
X12963991Y-15133079D01*
X12963991Y-15133079D02*
X12954468Y-15114031D01*
X12954468Y-15114031D02*
X12944944Y-15085460D01*
X12944944Y-15085460D02*
X12935420Y-15037841D01*
X12935420Y-15037841D02*
X12935420Y-14999746D01*
X12935420Y-14999746D02*
X12944944Y-14952127D01*
X12944944Y-14952127D02*
X12954468Y-14923555D01*
X12954468Y-14923555D02*
X12963991Y-14904508D01*
X12963991Y-14904508D02*
X12983039Y-14875936D01*
X12983039Y-14875936D02*
X12992563Y-14866412D01*
X13106848Y-14894984D02*
X13125896Y-14894984D01*
X13125896Y-14894984D02*
X13144944Y-14904508D01*
X13144944Y-14904508D02*
X13154468Y-14914031D01*
X13154468Y-14914031D02*
X13163991Y-14933079D01*
X13163991Y-14933079D02*
X13173515Y-14971174D01*
X13173515Y-14971174D02*
X13173515Y-15018793D01*
X13173515Y-15018793D02*
X13163991Y-15056888D01*
X13163991Y-15056888D02*
X13154468Y-15075936D01*
X13154468Y-15075936D02*
X13144944Y-15085460D01*
X13144944Y-15085460D02*
X13125896Y-15094984D01*
X13125896Y-15094984D02*
X13106848Y-15094984D01*
X13106848Y-15094984D02*
X13087801Y-15085460D01*
X13087801Y-15085460D02*
X13078277Y-15075936D01*
X13078277Y-15075936D02*
X13068753Y-15056888D01*
X13068753Y-15056888D02*
X13059229Y-15018793D01*
X13059229Y-15018793D02*
X13059229Y-14971174D01*
X13059229Y-14971174D02*
X13068753Y-14933079D01*
X13068753Y-14933079D02*
X13078277Y-14914031D01*
X13078277Y-14914031D02*
X13087801Y-14904508D01*
X13087801Y-14904508D02*
X13106848Y-14894984D01*
X13411610Y-15094984D02*
X13411610Y-14894984D01*
X13497325Y-15094984D02*
X13497325Y-14990222D01*
X13497325Y-14990222D02*
X13487801Y-14971174D01*
X13487801Y-14971174D02*
X13468753Y-14961650D01*
X13468753Y-14961650D02*
X13440182Y-14961650D01*
X13440182Y-14961650D02*
X13421134Y-14971174D01*
X13421134Y-14971174D02*
X13411610Y-14980698D01*
X13621134Y-15094984D02*
X13602087Y-15085460D01*
X13602087Y-15085460D02*
X13592563Y-15075936D01*
X13592563Y-15075936D02*
X13583039Y-15056888D01*
X13583039Y-15056888D02*
X13583039Y-14999746D01*
X13583039Y-14999746D02*
X13592563Y-14980698D01*
X13592563Y-14980698D02*
X13602087Y-14971174D01*
X13602087Y-14971174D02*
X13621134Y-14961650D01*
X13621134Y-14961650D02*
X13649706Y-14961650D01*
X13649706Y-14961650D02*
X13668753Y-14971174D01*
X13668753Y-14971174D02*
X13678277Y-14980698D01*
X13678277Y-14980698D02*
X13687801Y-14999746D01*
X13687801Y-14999746D02*
X13687801Y-15056888D01*
X13687801Y-15056888D02*
X13678277Y-15075936D01*
X13678277Y-15075936D02*
X13668753Y-15085460D01*
X13668753Y-15085460D02*
X13649706Y-15094984D01*
X13649706Y-15094984D02*
X13621134Y-15094984D01*
X13802087Y-15094984D02*
X13783039Y-15085460D01*
X13783039Y-15085460D02*
X13773515Y-15066412D01*
X13773515Y-15066412D02*
X13773515Y-14894984D01*
X13954468Y-15085460D02*
X13935420Y-15094984D01*
X13935420Y-15094984D02*
X13897325Y-15094984D01*
X13897325Y-15094984D02*
X13878277Y-15085460D01*
X13878277Y-15085460D02*
X13868753Y-15066412D01*
X13868753Y-15066412D02*
X13868753Y-14990222D01*
X13868753Y-14990222D02*
X13878277Y-14971174D01*
X13878277Y-14971174D02*
X13897325Y-14961650D01*
X13897325Y-14961650D02*
X13935420Y-14961650D01*
X13935420Y-14961650D02*
X13954468Y-14971174D01*
X13954468Y-14971174D02*
X13963991Y-14990222D01*
X13963991Y-14990222D02*
X13963991Y-15009269D01*
X13963991Y-15009269D02*
X13868753Y-15028317D01*
X14040182Y-15085460D02*
X14059230Y-15094984D01*
X14059230Y-15094984D02*
X14097325Y-15094984D01*
X14097325Y-15094984D02*
X14116372Y-15085460D01*
X14116372Y-15085460D02*
X14125896Y-15066412D01*
X14125896Y-15066412D02*
X14125896Y-15056888D01*
X14125896Y-15056888D02*
X14116372Y-15037841D01*
X14116372Y-15037841D02*
X14097325Y-15028317D01*
X14097325Y-15028317D02*
X14068753Y-15028317D01*
X14068753Y-15028317D02*
X14049706Y-15018793D01*
X14049706Y-15018793D02*
X14040182Y-14999746D01*
X14040182Y-14999746D02*
X14040182Y-14990222D01*
X14040182Y-14990222D02*
X14049706Y-14971174D01*
X14049706Y-14971174D02*
X14068753Y-14961650D01*
X14068753Y-14961650D02*
X14097325Y-14961650D01*
X14097325Y-14961650D02*
X14116372Y-14971174D01*
X14363992Y-15018793D02*
X14516373Y-15018793D01*
X14440182Y-15094984D02*
X14440182Y-14942603D01*
X14744944Y-14894984D02*
X14868753Y-14894984D01*
X14868753Y-14894984D02*
X14802087Y-14971174D01*
X14802087Y-14971174D02*
X14830658Y-14971174D01*
X14830658Y-14971174D02*
X14849706Y-14980698D01*
X14849706Y-14980698D02*
X14859230Y-14990222D01*
X14859230Y-14990222D02*
X14868753Y-15009269D01*
X14868753Y-15009269D02*
X14868753Y-15056888D01*
X14868753Y-15056888D02*
X14859230Y-15075936D01*
X14859230Y-15075936D02*
X14849706Y-15085460D01*
X14849706Y-15085460D02*
X14830658Y-15094984D01*
X14830658Y-15094984D02*
X14773515Y-15094984D01*
X14773515Y-15094984D02*
X14754468Y-15085460D01*
X14754468Y-15085460D02*
X14744944Y-15075936D01*
X15097325Y-15085460D02*
X15116373Y-15094984D01*
X15116373Y-15094984D02*
X15154468Y-15094984D01*
X15154468Y-15094984D02*
X15173515Y-15085460D01*
X15173515Y-15085460D02*
X15183039Y-15066412D01*
X15183039Y-15066412D02*
X15183039Y-15056888D01*
X15183039Y-15056888D02*
X15173515Y-15037841D01*
X15173515Y-15037841D02*
X15154468Y-15028317D01*
X15154468Y-15028317D02*
X15125896Y-15028317D01*
X15125896Y-15028317D02*
X15106849Y-15018793D01*
X15106849Y-15018793D02*
X15097325Y-14999746D01*
X15097325Y-14999746D02*
X15097325Y-14990222D01*
X15097325Y-14990222D02*
X15106849Y-14971174D01*
X15106849Y-14971174D02*
X15125896Y-14961650D01*
X15125896Y-14961650D02*
X15154468Y-14961650D01*
X15154468Y-14961650D02*
X15173515Y-14971174D01*
X15297325Y-15094984D02*
X15278277Y-15085460D01*
X15278277Y-15085460D02*
X15268754Y-15066412D01*
X15268754Y-15066412D02*
X15268754Y-14894984D01*
X15402087Y-15094984D02*
X15383039Y-15085460D01*
X15383039Y-15085460D02*
X15373515Y-15075936D01*
X15373515Y-15075936D02*
X15363992Y-15056888D01*
X15363992Y-15056888D02*
X15363992Y-14999746D01*
X15363992Y-14999746D02*
X15373515Y-14980698D01*
X15373515Y-14980698D02*
X15383039Y-14971174D01*
X15383039Y-14971174D02*
X15402087Y-14961650D01*
X15402087Y-14961650D02*
X15430658Y-14961650D01*
X15430658Y-14961650D02*
X15449706Y-14971174D01*
X15449706Y-14971174D02*
X15459230Y-14980698D01*
X15459230Y-14980698D02*
X15468754Y-14999746D01*
X15468754Y-14999746D02*
X15468754Y-15056888D01*
X15468754Y-15056888D02*
X15459230Y-15075936D01*
X15459230Y-15075936D02*
X15449706Y-15085460D01*
X15449706Y-15085460D02*
X15430658Y-15094984D01*
X15430658Y-15094984D02*
X15402087Y-15094984D01*
X15525896Y-14961650D02*
X15602087Y-14961650D01*
X15554468Y-14894984D02*
X15554468Y-15066412D01*
X15554468Y-15066412D02*
X15563992Y-15085460D01*
X15563992Y-15085460D02*
X15583039Y-15094984D01*
X15583039Y-15094984D02*
X15602087Y-15094984D01*
X15659230Y-15085460D02*
X15678277Y-15094984D01*
X15678277Y-15094984D02*
X15716373Y-15094984D01*
X15716373Y-15094984D02*
X15735420Y-15085460D01*
X15735420Y-15085460D02*
X15744944Y-15066412D01*
X15744944Y-15066412D02*
X15744944Y-15056888D01*
X15744944Y-15056888D02*
X15735420Y-15037841D01*
X15735420Y-15037841D02*
X15716373Y-15028317D01*
X15716373Y-15028317D02*
X15687801Y-15028317D01*
X15687801Y-15028317D02*
X15668754Y-15018793D01*
X15668754Y-15018793D02*
X15659230Y-14999746D01*
X15659230Y-14999746D02*
X15659230Y-14990222D01*
X15659230Y-14990222D02*
X15668754Y-14971174D01*
X15668754Y-14971174D02*
X15687801Y-14961650D01*
X15687801Y-14961650D02*
X15716373Y-14961650D01*
X15716373Y-14961650D02*
X15735420Y-14971174D01*
X15811611Y-15171174D02*
X15821135Y-15161650D01*
X15821135Y-15161650D02*
X15840182Y-15133079D01*
X15840182Y-15133079D02*
X15849706Y-15114031D01*
X15849706Y-15114031D02*
X15859230Y-15085460D01*
X15859230Y-15085460D02*
X15868754Y-15037841D01*
X15868754Y-15037841D02*
X15868754Y-14999746D01*
X15868754Y-14999746D02*
X15859230Y-14952127D01*
X15859230Y-14952127D02*
X15849706Y-14923555D01*
X15849706Y-14923555D02*
X15840182Y-14904508D01*
X15840182Y-14904508D02*
X15821135Y-14875936D01*
X15821135Y-14875936D02*
X15811611Y-14866412D01*
D13*
X9307500Y-15212500D02*
X9417500Y-15322500D01*
X9417500Y-15212500D02*
X9307500Y-15322500D01*
X9417500Y-15267500D02*
G75*
G02*
X9307500Y-15267500I-55000J0D01*
G01*
X9307500Y-15267500D02*
G75*
G02*
X9417500Y-15267500I55000J0D01*
G01*
D11*
X9783039Y-15358984D02*
X9668753Y-15358984D01*
X9725896Y-15358984D02*
X9725896Y-15158984D01*
X9725896Y-15158984D02*
X9706848Y-15187555D01*
X9706848Y-15187555D02*
X9687801Y-15206603D01*
X9687801Y-15206603D02*
X9668753Y-15216127D01*
X9868753Y-15339936D02*
X9878277Y-15349460D01*
X9878277Y-15349460D02*
X9868753Y-15358984D01*
X9868753Y-15358984D02*
X9859229Y-15349460D01*
X9859229Y-15349460D02*
X9868753Y-15339936D01*
X9868753Y-15339936D02*
X9868753Y-15358984D01*
X10068753Y-15358984D02*
X9954467Y-15358984D01*
X10011610Y-15358984D02*
X10011610Y-15158984D01*
X10011610Y-15158984D02*
X9992563Y-15187555D01*
X9992563Y-15187555D02*
X9973515Y-15206603D01*
X9973515Y-15206603D02*
X9954467Y-15216127D01*
X10192563Y-15158984D02*
X10211610Y-15158984D01*
X10211610Y-15158984D02*
X10230658Y-15168508D01*
X10230658Y-15168508D02*
X10240182Y-15178031D01*
X10240182Y-15178031D02*
X10249705Y-15197079D01*
X10249705Y-15197079D02*
X10259229Y-15235174D01*
X10259229Y-15235174D02*
X10259229Y-15282793D01*
X10259229Y-15282793D02*
X10249705Y-15320888D01*
X10249705Y-15320888D02*
X10240182Y-15339936D01*
X10240182Y-15339936D02*
X10230658Y-15349460D01*
X10230658Y-15349460D02*
X10211610Y-15358984D01*
X10211610Y-15358984D02*
X10192563Y-15358984D01*
X10192563Y-15358984D02*
X10173515Y-15349460D01*
X10173515Y-15349460D02*
X10163991Y-15339936D01*
X10163991Y-15339936D02*
X10154467Y-15320888D01*
X10154467Y-15320888D02*
X10144944Y-15282793D01*
X10144944Y-15282793D02*
X10144944Y-15235174D01*
X10144944Y-15235174D02*
X10154467Y-15197079D01*
X10154467Y-15197079D02*
X10163991Y-15178031D01*
X10163991Y-15178031D02*
X10173515Y-15168508D01*
X10173515Y-15168508D02*
X10192563Y-15158984D01*
X10383039Y-15158984D02*
X10402086Y-15158984D01*
X10402086Y-15158984D02*
X10421134Y-15168508D01*
X10421134Y-15168508D02*
X10430658Y-15178031D01*
X10430658Y-15178031D02*
X10440182Y-15197079D01*
X10440182Y-15197079D02*
X10449705Y-15235174D01*
X10449705Y-15235174D02*
X10449705Y-15282793D01*
X10449705Y-15282793D02*
X10440182Y-15320888D01*
X10440182Y-15320888D02*
X10430658Y-15339936D01*
X10430658Y-15339936D02*
X10421134Y-15349460D01*
X10421134Y-15349460D02*
X10402086Y-15358984D01*
X10402086Y-15358984D02*
X10383039Y-15358984D01*
X10383039Y-15358984D02*
X10363991Y-15349460D01*
X10363991Y-15349460D02*
X10354467Y-15339936D01*
X10354467Y-15339936D02*
X10344944Y-15320888D01*
X10344944Y-15320888D02*
X10335420Y-15282793D01*
X10335420Y-15282793D02*
X10335420Y-15235174D01*
X10335420Y-15235174D02*
X10344944Y-15197079D01*
X10344944Y-15197079D02*
X10354467Y-15178031D01*
X10354467Y-15178031D02*
X10363991Y-15168508D01*
X10363991Y-15168508D02*
X10383039Y-15158984D01*
X10535420Y-15358984D02*
X10535420Y-15225650D01*
X10535420Y-15244698D02*
X10544944Y-15235174D01*
X10544944Y-15235174D02*
X10563991Y-15225650D01*
X10563991Y-15225650D02*
X10592563Y-15225650D01*
X10592563Y-15225650D02*
X10611610Y-15235174D01*
X10611610Y-15235174D02*
X10621134Y-15254222D01*
X10621134Y-15254222D02*
X10621134Y-15358984D01*
X10621134Y-15254222D02*
X10630658Y-15235174D01*
X10630658Y-15235174D02*
X10649705Y-15225650D01*
X10649705Y-15225650D02*
X10678277Y-15225650D01*
X10678277Y-15225650D02*
X10697325Y-15235174D01*
X10697325Y-15235174D02*
X10706848Y-15254222D01*
X10706848Y-15254222D02*
X10706848Y-15358984D01*
X10802086Y-15358984D02*
X10802086Y-15225650D01*
X10802086Y-15244698D02*
X10811610Y-15235174D01*
X10811610Y-15235174D02*
X10830658Y-15225650D01*
X10830658Y-15225650D02*
X10859229Y-15225650D01*
X10859229Y-15225650D02*
X10878277Y-15235174D01*
X10878277Y-15235174D02*
X10887801Y-15254222D01*
X10887801Y-15254222D02*
X10887801Y-15358984D01*
X10887801Y-15254222D02*
X10897325Y-15235174D01*
X10897325Y-15235174D02*
X10916372Y-15225650D01*
X10916372Y-15225650D02*
X10944944Y-15225650D01*
X10944944Y-15225650D02*
X10963991Y-15235174D01*
X10963991Y-15235174D02*
X10973515Y-15254222D01*
X10973515Y-15254222D02*
X10973515Y-15358984D01*
X11363991Y-15149460D02*
X11192563Y-15406603D01*
X11621134Y-15158984D02*
X11640182Y-15158984D01*
X11640182Y-15158984D02*
X11659229Y-15168508D01*
X11659229Y-15168508D02*
X11668753Y-15178031D01*
X11668753Y-15178031D02*
X11678277Y-15197079D01*
X11678277Y-15197079D02*
X11687801Y-15235174D01*
X11687801Y-15235174D02*
X11687801Y-15282793D01*
X11687801Y-15282793D02*
X11678277Y-15320888D01*
X11678277Y-15320888D02*
X11668753Y-15339936D01*
X11668753Y-15339936D02*
X11659229Y-15349460D01*
X11659229Y-15349460D02*
X11640182Y-15358984D01*
X11640182Y-15358984D02*
X11621134Y-15358984D01*
X11621134Y-15358984D02*
X11602086Y-15349460D01*
X11602086Y-15349460D02*
X11592563Y-15339936D01*
X11592563Y-15339936D02*
X11583039Y-15320888D01*
X11583039Y-15320888D02*
X11573515Y-15282793D01*
X11573515Y-15282793D02*
X11573515Y-15235174D01*
X11573515Y-15235174D02*
X11583039Y-15197079D01*
X11583039Y-15197079D02*
X11592563Y-15178031D01*
X11592563Y-15178031D02*
X11602086Y-15168508D01*
X11602086Y-15168508D02*
X11621134Y-15158984D01*
X11773515Y-15339936D02*
X11783039Y-15349460D01*
X11783039Y-15349460D02*
X11773515Y-15358984D01*
X11773515Y-15358984D02*
X11763991Y-15349460D01*
X11763991Y-15349460D02*
X11773515Y-15339936D01*
X11773515Y-15339936D02*
X11773515Y-15358984D01*
X11906848Y-15158984D02*
X11925896Y-15158984D01*
X11925896Y-15158984D02*
X11944944Y-15168508D01*
X11944944Y-15168508D02*
X11954467Y-15178031D01*
X11954467Y-15178031D02*
X11963991Y-15197079D01*
X11963991Y-15197079D02*
X11973515Y-15235174D01*
X11973515Y-15235174D02*
X11973515Y-15282793D01*
X11973515Y-15282793D02*
X11963991Y-15320888D01*
X11963991Y-15320888D02*
X11954467Y-15339936D01*
X11954467Y-15339936D02*
X11944944Y-15349460D01*
X11944944Y-15349460D02*
X11925896Y-15358984D01*
X11925896Y-15358984D02*
X11906848Y-15358984D01*
X11906848Y-15358984D02*
X11887801Y-15349460D01*
X11887801Y-15349460D02*
X11878277Y-15339936D01*
X11878277Y-15339936D02*
X11868753Y-15320888D01*
X11868753Y-15320888D02*
X11859229Y-15282793D01*
X11859229Y-15282793D02*
X11859229Y-15235174D01*
X11859229Y-15235174D02*
X11868753Y-15197079D01*
X11868753Y-15197079D02*
X11878277Y-15178031D01*
X11878277Y-15178031D02*
X11887801Y-15168508D01*
X11887801Y-15168508D02*
X11906848Y-15158984D01*
X12144944Y-15225650D02*
X12144944Y-15358984D01*
X12097325Y-15149460D02*
X12049706Y-15292317D01*
X12049706Y-15292317D02*
X12173515Y-15292317D01*
X12230658Y-15158984D02*
X12354467Y-15158984D01*
X12354467Y-15158984D02*
X12287801Y-15235174D01*
X12287801Y-15235174D02*
X12316372Y-15235174D01*
X12316372Y-15235174D02*
X12335420Y-15244698D01*
X12335420Y-15244698D02*
X12344944Y-15254222D01*
X12344944Y-15254222D02*
X12354467Y-15273269D01*
X12354467Y-15273269D02*
X12354467Y-15320888D01*
X12354467Y-15320888D02*
X12344944Y-15339936D01*
X12344944Y-15339936D02*
X12335420Y-15349460D01*
X12335420Y-15349460D02*
X12316372Y-15358984D01*
X12316372Y-15358984D02*
X12259229Y-15358984D01*
X12259229Y-15358984D02*
X12240182Y-15349460D01*
X12240182Y-15349460D02*
X12230658Y-15339936D01*
X12421134Y-15158984D02*
X12544944Y-15158984D01*
X12544944Y-15158984D02*
X12478277Y-15235174D01*
X12478277Y-15235174D02*
X12506848Y-15235174D01*
X12506848Y-15235174D02*
X12525896Y-15244698D01*
X12525896Y-15244698D02*
X12535420Y-15254222D01*
X12535420Y-15254222D02*
X12544944Y-15273269D01*
X12544944Y-15273269D02*
X12544944Y-15320888D01*
X12544944Y-15320888D02*
X12535420Y-15339936D01*
X12535420Y-15339936D02*
X12525896Y-15349460D01*
X12525896Y-15349460D02*
X12506848Y-15358984D01*
X12506848Y-15358984D02*
X12449706Y-15358984D01*
X12449706Y-15358984D02*
X12430658Y-15349460D01*
X12430658Y-15349460D02*
X12421134Y-15339936D01*
X12621134Y-15158984D02*
X12621134Y-15197079D01*
X12697325Y-15158984D02*
X12697325Y-15197079D01*
X12992563Y-15435174D02*
X12983039Y-15425650D01*
X12983039Y-15425650D02*
X12963991Y-15397079D01*
X12963991Y-15397079D02*
X12954468Y-15378031D01*
X12954468Y-15378031D02*
X12944944Y-15349460D01*
X12944944Y-15349460D02*
X12935420Y-15301841D01*
X12935420Y-15301841D02*
X12935420Y-15263746D01*
X12935420Y-15263746D02*
X12944944Y-15216127D01*
X12944944Y-15216127D02*
X12954468Y-15187555D01*
X12954468Y-15187555D02*
X12963991Y-15168508D01*
X12963991Y-15168508D02*
X12983039Y-15139936D01*
X12983039Y-15139936D02*
X12992563Y-15130412D01*
X13154468Y-15158984D02*
X13116372Y-15158984D01*
X13116372Y-15158984D02*
X13097325Y-15168508D01*
X13097325Y-15168508D02*
X13087801Y-15178031D01*
X13087801Y-15178031D02*
X13068753Y-15206603D01*
X13068753Y-15206603D02*
X13059229Y-15244698D01*
X13059229Y-15244698D02*
X13059229Y-15320888D01*
X13059229Y-15320888D02*
X13068753Y-15339936D01*
X13068753Y-15339936D02*
X13078277Y-15349460D01*
X13078277Y-15349460D02*
X13097325Y-15358984D01*
X13097325Y-15358984D02*
X13135420Y-15358984D01*
X13135420Y-15358984D02*
X13154468Y-15349460D01*
X13154468Y-15349460D02*
X13163991Y-15339936D01*
X13163991Y-15339936D02*
X13173515Y-15320888D01*
X13173515Y-15320888D02*
X13173515Y-15273269D01*
X13173515Y-15273269D02*
X13163991Y-15254222D01*
X13163991Y-15254222D02*
X13154468Y-15244698D01*
X13154468Y-15244698D02*
X13135420Y-15235174D01*
X13135420Y-15235174D02*
X13097325Y-15235174D01*
X13097325Y-15235174D02*
X13078277Y-15244698D01*
X13078277Y-15244698D02*
X13068753Y-15254222D01*
X13068753Y-15254222D02*
X13059229Y-15273269D01*
X13249706Y-15178031D02*
X13259229Y-15168508D01*
X13259229Y-15168508D02*
X13278277Y-15158984D01*
X13278277Y-15158984D02*
X13325896Y-15158984D01*
X13325896Y-15158984D02*
X13344944Y-15168508D01*
X13344944Y-15168508D02*
X13354468Y-15178031D01*
X13354468Y-15178031D02*
X13363991Y-15197079D01*
X13363991Y-15197079D02*
X13363991Y-15216127D01*
X13363991Y-15216127D02*
X13354468Y-15244698D01*
X13354468Y-15244698D02*
X13240182Y-15358984D01*
X13240182Y-15358984D02*
X13363991Y-15358984D01*
X13602087Y-15358984D02*
X13602087Y-15158984D01*
X13687801Y-15358984D02*
X13687801Y-15254222D01*
X13687801Y-15254222D02*
X13678277Y-15235174D01*
X13678277Y-15235174D02*
X13659230Y-15225650D01*
X13659230Y-15225650D02*
X13630658Y-15225650D01*
X13630658Y-15225650D02*
X13611610Y-15235174D01*
X13611610Y-15235174D02*
X13602087Y-15244698D01*
X13811610Y-15358984D02*
X13792563Y-15349460D01*
X13792563Y-15349460D02*
X13783039Y-15339936D01*
X13783039Y-15339936D02*
X13773515Y-15320888D01*
X13773515Y-15320888D02*
X13773515Y-15263746D01*
X13773515Y-15263746D02*
X13783039Y-15244698D01*
X13783039Y-15244698D02*
X13792563Y-15235174D01*
X13792563Y-15235174D02*
X13811610Y-15225650D01*
X13811610Y-15225650D02*
X13840182Y-15225650D01*
X13840182Y-15225650D02*
X13859230Y-15235174D01*
X13859230Y-15235174D02*
X13868753Y-15244698D01*
X13868753Y-15244698D02*
X13878277Y-15263746D01*
X13878277Y-15263746D02*
X13878277Y-15320888D01*
X13878277Y-15320888D02*
X13868753Y-15339936D01*
X13868753Y-15339936D02*
X13859230Y-15349460D01*
X13859230Y-15349460D02*
X13840182Y-15358984D01*
X13840182Y-15358984D02*
X13811610Y-15358984D01*
X13992563Y-15358984D02*
X13973515Y-15349460D01*
X13973515Y-15349460D02*
X13963991Y-15330412D01*
X13963991Y-15330412D02*
X13963991Y-15158984D01*
X14144944Y-15349460D02*
X14125896Y-15358984D01*
X14125896Y-15358984D02*
X14087801Y-15358984D01*
X14087801Y-15358984D02*
X14068753Y-15349460D01*
X14068753Y-15349460D02*
X14059230Y-15330412D01*
X14059230Y-15330412D02*
X14059230Y-15254222D01*
X14059230Y-15254222D02*
X14068753Y-15235174D01*
X14068753Y-15235174D02*
X14087801Y-15225650D01*
X14087801Y-15225650D02*
X14125896Y-15225650D01*
X14125896Y-15225650D02*
X14144944Y-15235174D01*
X14144944Y-15235174D02*
X14154468Y-15254222D01*
X14154468Y-15254222D02*
X14154468Y-15273269D01*
X14154468Y-15273269D02*
X14059230Y-15292317D01*
X14230658Y-15349460D02*
X14249706Y-15358984D01*
X14249706Y-15358984D02*
X14287801Y-15358984D01*
X14287801Y-15358984D02*
X14306849Y-15349460D01*
X14306849Y-15349460D02*
X14316372Y-15330412D01*
X14316372Y-15330412D02*
X14316372Y-15320888D01*
X14316372Y-15320888D02*
X14306849Y-15301841D01*
X14306849Y-15301841D02*
X14287801Y-15292317D01*
X14287801Y-15292317D02*
X14259230Y-15292317D01*
X14259230Y-15292317D02*
X14240182Y-15282793D01*
X14240182Y-15282793D02*
X14230658Y-15263746D01*
X14230658Y-15263746D02*
X14230658Y-15254222D01*
X14230658Y-15254222D02*
X14240182Y-15235174D01*
X14240182Y-15235174D02*
X14259230Y-15225650D01*
X14259230Y-15225650D02*
X14287801Y-15225650D01*
X14287801Y-15225650D02*
X14306849Y-15235174D01*
X14383039Y-15435174D02*
X14392563Y-15425650D01*
X14392563Y-15425650D02*
X14411611Y-15397079D01*
X14411611Y-15397079D02*
X14421134Y-15378031D01*
X14421134Y-15378031D02*
X14430658Y-15349460D01*
X14430658Y-15349460D02*
X14440182Y-15301841D01*
X14440182Y-15301841D02*
X14440182Y-15263746D01*
X14440182Y-15263746D02*
X14430658Y-15216127D01*
X14430658Y-15216127D02*
X14421134Y-15187555D01*
X14421134Y-15187555D02*
X14411611Y-15168508D01*
X14411611Y-15168508D02*
X14392563Y-15139936D01*
X14392563Y-15139936D02*
X14383039Y-15130412D01*
D14*
X9232500Y-15439000D02*
X9417500Y-15624000D01*
X9417500Y-15439000D02*
X9232500Y-15624000D01*
X9325000Y-15439000D02*
X9325000Y-15624000D01*
X9232500Y-15531500D02*
X9417500Y-15531500D01*
D11*
X9783039Y-15622984D02*
X9668753Y-15622984D01*
X9725896Y-15622984D02*
X9725896Y-15422984D01*
X9725896Y-15422984D02*
X9706848Y-15451555D01*
X9706848Y-15451555D02*
X9687801Y-15470603D01*
X9687801Y-15470603D02*
X9668753Y-15480127D01*
X9868753Y-15603936D02*
X9878277Y-15613460D01*
X9878277Y-15613460D02*
X9868753Y-15622984D01*
X9868753Y-15622984D02*
X9859229Y-15613460D01*
X9859229Y-15613460D02*
X9868753Y-15603936D01*
X9868753Y-15603936D02*
X9868753Y-15622984D01*
X9992563Y-15508698D02*
X9973515Y-15499174D01*
X9973515Y-15499174D02*
X9963991Y-15489650D01*
X9963991Y-15489650D02*
X9954467Y-15470603D01*
X9954467Y-15470603D02*
X9954467Y-15461079D01*
X9954467Y-15461079D02*
X9963991Y-15442031D01*
X9963991Y-15442031D02*
X9973515Y-15432508D01*
X9973515Y-15432508D02*
X9992563Y-15422984D01*
X9992563Y-15422984D02*
X10030658Y-15422984D01*
X10030658Y-15422984D02*
X10049705Y-15432508D01*
X10049705Y-15432508D02*
X10059229Y-15442031D01*
X10059229Y-15442031D02*
X10068753Y-15461079D01*
X10068753Y-15461079D02*
X10068753Y-15470603D01*
X10068753Y-15470603D02*
X10059229Y-15489650D01*
X10059229Y-15489650D02*
X10049705Y-15499174D01*
X10049705Y-15499174D02*
X10030658Y-15508698D01*
X10030658Y-15508698D02*
X9992563Y-15508698D01*
X9992563Y-15508698D02*
X9973515Y-15518222D01*
X9973515Y-15518222D02*
X9963991Y-15527746D01*
X9963991Y-15527746D02*
X9954467Y-15546793D01*
X9954467Y-15546793D02*
X9954467Y-15584888D01*
X9954467Y-15584888D02*
X9963991Y-15603936D01*
X9963991Y-15603936D02*
X9973515Y-15613460D01*
X9973515Y-15613460D02*
X9992563Y-15622984D01*
X9992563Y-15622984D02*
X10030658Y-15622984D01*
X10030658Y-15622984D02*
X10049705Y-15613460D01*
X10049705Y-15613460D02*
X10059229Y-15603936D01*
X10059229Y-15603936D02*
X10068753Y-15584888D01*
X10068753Y-15584888D02*
X10068753Y-15546793D01*
X10068753Y-15546793D02*
X10059229Y-15527746D01*
X10059229Y-15527746D02*
X10049705Y-15518222D01*
X10049705Y-15518222D02*
X10030658Y-15508698D01*
X10249705Y-15422984D02*
X10154467Y-15422984D01*
X10154467Y-15422984D02*
X10144944Y-15518222D01*
X10144944Y-15518222D02*
X10154467Y-15508698D01*
X10154467Y-15508698D02*
X10173515Y-15499174D01*
X10173515Y-15499174D02*
X10221134Y-15499174D01*
X10221134Y-15499174D02*
X10240182Y-15508698D01*
X10240182Y-15508698D02*
X10249705Y-15518222D01*
X10249705Y-15518222D02*
X10259229Y-15537269D01*
X10259229Y-15537269D02*
X10259229Y-15584888D01*
X10259229Y-15584888D02*
X10249705Y-15603936D01*
X10249705Y-15603936D02*
X10240182Y-15613460D01*
X10240182Y-15613460D02*
X10221134Y-15622984D01*
X10221134Y-15622984D02*
X10173515Y-15622984D01*
X10173515Y-15622984D02*
X10154467Y-15613460D01*
X10154467Y-15613460D02*
X10144944Y-15603936D01*
X10383039Y-15422984D02*
X10402086Y-15422984D01*
X10402086Y-15422984D02*
X10421134Y-15432508D01*
X10421134Y-15432508D02*
X10430658Y-15442031D01*
X10430658Y-15442031D02*
X10440182Y-15461079D01*
X10440182Y-15461079D02*
X10449705Y-15499174D01*
X10449705Y-15499174D02*
X10449705Y-15546793D01*
X10449705Y-15546793D02*
X10440182Y-15584888D01*
X10440182Y-15584888D02*
X10430658Y-15603936D01*
X10430658Y-15603936D02*
X10421134Y-15613460D01*
X10421134Y-15613460D02*
X10402086Y-15622984D01*
X10402086Y-15622984D02*
X10383039Y-15622984D01*
X10383039Y-15622984D02*
X10363991Y-15613460D01*
X10363991Y-15613460D02*
X10354467Y-15603936D01*
X10354467Y-15603936D02*
X10344944Y-15584888D01*
X10344944Y-15584888D02*
X10335420Y-15546793D01*
X10335420Y-15546793D02*
X10335420Y-15499174D01*
X10335420Y-15499174D02*
X10344944Y-15461079D01*
X10344944Y-15461079D02*
X10354467Y-15442031D01*
X10354467Y-15442031D02*
X10363991Y-15432508D01*
X10363991Y-15432508D02*
X10383039Y-15422984D01*
X10535420Y-15622984D02*
X10535420Y-15489650D01*
X10535420Y-15508698D02*
X10544944Y-15499174D01*
X10544944Y-15499174D02*
X10563991Y-15489650D01*
X10563991Y-15489650D02*
X10592563Y-15489650D01*
X10592563Y-15489650D02*
X10611610Y-15499174D01*
X10611610Y-15499174D02*
X10621134Y-15518222D01*
X10621134Y-15518222D02*
X10621134Y-15622984D01*
X10621134Y-15518222D02*
X10630658Y-15499174D01*
X10630658Y-15499174D02*
X10649705Y-15489650D01*
X10649705Y-15489650D02*
X10678277Y-15489650D01*
X10678277Y-15489650D02*
X10697325Y-15499174D01*
X10697325Y-15499174D02*
X10706848Y-15518222D01*
X10706848Y-15518222D02*
X10706848Y-15622984D01*
X10802086Y-15622984D02*
X10802086Y-15489650D01*
X10802086Y-15508698D02*
X10811610Y-15499174D01*
X10811610Y-15499174D02*
X10830658Y-15489650D01*
X10830658Y-15489650D02*
X10859229Y-15489650D01*
X10859229Y-15489650D02*
X10878277Y-15499174D01*
X10878277Y-15499174D02*
X10887801Y-15518222D01*
X10887801Y-15518222D02*
X10887801Y-15622984D01*
X10887801Y-15518222D02*
X10897325Y-15499174D01*
X10897325Y-15499174D02*
X10916372Y-15489650D01*
X10916372Y-15489650D02*
X10944944Y-15489650D01*
X10944944Y-15489650D02*
X10963991Y-15499174D01*
X10963991Y-15499174D02*
X10973515Y-15518222D01*
X10973515Y-15518222D02*
X10973515Y-15622984D01*
X11363991Y-15413460D02*
X11192563Y-15670603D01*
X11621134Y-15422984D02*
X11640182Y-15422984D01*
X11640182Y-15422984D02*
X11659229Y-15432508D01*
X11659229Y-15432508D02*
X11668753Y-15442031D01*
X11668753Y-15442031D02*
X11678277Y-15461079D01*
X11678277Y-15461079D02*
X11687801Y-15499174D01*
X11687801Y-15499174D02*
X11687801Y-15546793D01*
X11687801Y-15546793D02*
X11678277Y-15584888D01*
X11678277Y-15584888D02*
X11668753Y-15603936D01*
X11668753Y-15603936D02*
X11659229Y-15613460D01*
X11659229Y-15613460D02*
X11640182Y-15622984D01*
X11640182Y-15622984D02*
X11621134Y-15622984D01*
X11621134Y-15622984D02*
X11602086Y-15613460D01*
X11602086Y-15613460D02*
X11592563Y-15603936D01*
X11592563Y-15603936D02*
X11583039Y-15584888D01*
X11583039Y-15584888D02*
X11573515Y-15546793D01*
X11573515Y-15546793D02*
X11573515Y-15499174D01*
X11573515Y-15499174D02*
X11583039Y-15461079D01*
X11583039Y-15461079D02*
X11592563Y-15442031D01*
X11592563Y-15442031D02*
X11602086Y-15432508D01*
X11602086Y-15432508D02*
X11621134Y-15422984D01*
X11773515Y-15603936D02*
X11783039Y-15613460D01*
X11783039Y-15613460D02*
X11773515Y-15622984D01*
X11773515Y-15622984D02*
X11763991Y-15613460D01*
X11763991Y-15613460D02*
X11773515Y-15603936D01*
X11773515Y-15603936D02*
X11773515Y-15622984D01*
X11906848Y-15422984D02*
X11925896Y-15422984D01*
X11925896Y-15422984D02*
X11944944Y-15432508D01*
X11944944Y-15432508D02*
X11954467Y-15442031D01*
X11954467Y-15442031D02*
X11963991Y-15461079D01*
X11963991Y-15461079D02*
X11973515Y-15499174D01*
X11973515Y-15499174D02*
X11973515Y-15546793D01*
X11973515Y-15546793D02*
X11963991Y-15584888D01*
X11963991Y-15584888D02*
X11954467Y-15603936D01*
X11954467Y-15603936D02*
X11944944Y-15613460D01*
X11944944Y-15613460D02*
X11925896Y-15622984D01*
X11925896Y-15622984D02*
X11906848Y-15622984D01*
X11906848Y-15622984D02*
X11887801Y-15613460D01*
X11887801Y-15613460D02*
X11878277Y-15603936D01*
X11878277Y-15603936D02*
X11868753Y-15584888D01*
X11868753Y-15584888D02*
X11859229Y-15546793D01*
X11859229Y-15546793D02*
X11859229Y-15499174D01*
X11859229Y-15499174D02*
X11868753Y-15461079D01*
X11868753Y-15461079D02*
X11878277Y-15442031D01*
X11878277Y-15442031D02*
X11887801Y-15432508D01*
X11887801Y-15432508D02*
X11906848Y-15422984D01*
X12040182Y-15422984D02*
X12173515Y-15422984D01*
X12173515Y-15422984D02*
X12087801Y-15622984D01*
X12240182Y-15442031D02*
X12249706Y-15432508D01*
X12249706Y-15432508D02*
X12268753Y-15422984D01*
X12268753Y-15422984D02*
X12316372Y-15422984D01*
X12316372Y-15422984D02*
X12335420Y-15432508D01*
X12335420Y-15432508D02*
X12344944Y-15442031D01*
X12344944Y-15442031D02*
X12354467Y-15461079D01*
X12354467Y-15461079D02*
X12354467Y-15480127D01*
X12354467Y-15480127D02*
X12344944Y-15508698D01*
X12344944Y-15508698D02*
X12230658Y-15622984D01*
X12230658Y-15622984D02*
X12354467Y-15622984D01*
X12468753Y-15508698D02*
X12449706Y-15499174D01*
X12449706Y-15499174D02*
X12440182Y-15489650D01*
X12440182Y-15489650D02*
X12430658Y-15470603D01*
X12430658Y-15470603D02*
X12430658Y-15461079D01*
X12430658Y-15461079D02*
X12440182Y-15442031D01*
X12440182Y-15442031D02*
X12449706Y-15432508D01*
X12449706Y-15432508D02*
X12468753Y-15422984D01*
X12468753Y-15422984D02*
X12506848Y-15422984D01*
X12506848Y-15422984D02*
X12525896Y-15432508D01*
X12525896Y-15432508D02*
X12535420Y-15442031D01*
X12535420Y-15442031D02*
X12544944Y-15461079D01*
X12544944Y-15461079D02*
X12544944Y-15470603D01*
X12544944Y-15470603D02*
X12535420Y-15489650D01*
X12535420Y-15489650D02*
X12525896Y-15499174D01*
X12525896Y-15499174D02*
X12506848Y-15508698D01*
X12506848Y-15508698D02*
X12468753Y-15508698D01*
X12468753Y-15508698D02*
X12449706Y-15518222D01*
X12449706Y-15518222D02*
X12440182Y-15527746D01*
X12440182Y-15527746D02*
X12430658Y-15546793D01*
X12430658Y-15546793D02*
X12430658Y-15584888D01*
X12430658Y-15584888D02*
X12440182Y-15603936D01*
X12440182Y-15603936D02*
X12449706Y-15613460D01*
X12449706Y-15613460D02*
X12468753Y-15622984D01*
X12468753Y-15622984D02*
X12506848Y-15622984D01*
X12506848Y-15622984D02*
X12525896Y-15613460D01*
X12525896Y-15613460D02*
X12535420Y-15603936D01*
X12535420Y-15603936D02*
X12544944Y-15584888D01*
X12544944Y-15584888D02*
X12544944Y-15546793D01*
X12544944Y-15546793D02*
X12535420Y-15527746D01*
X12535420Y-15527746D02*
X12525896Y-15518222D01*
X12525896Y-15518222D02*
X12506848Y-15508698D01*
X12621134Y-15422984D02*
X12621134Y-15461079D01*
X12697325Y-15422984D02*
X12697325Y-15461079D01*
X12992563Y-15699174D02*
X12983039Y-15689650D01*
X12983039Y-15689650D02*
X12963991Y-15661079D01*
X12963991Y-15661079D02*
X12954468Y-15642031D01*
X12954468Y-15642031D02*
X12944944Y-15613460D01*
X12944944Y-15613460D02*
X12935420Y-15565841D01*
X12935420Y-15565841D02*
X12935420Y-15527746D01*
X12935420Y-15527746D02*
X12944944Y-15480127D01*
X12944944Y-15480127D02*
X12954468Y-15451555D01*
X12954468Y-15451555D02*
X12963991Y-15432508D01*
X12963991Y-15432508D02*
X12983039Y-15403936D01*
X12983039Y-15403936D02*
X12992563Y-15394412D01*
X13049706Y-15422984D02*
X13173515Y-15422984D01*
X13173515Y-15422984D02*
X13106848Y-15499174D01*
X13106848Y-15499174D02*
X13135420Y-15499174D01*
X13135420Y-15499174D02*
X13154468Y-15508698D01*
X13154468Y-15508698D02*
X13163991Y-15518222D01*
X13163991Y-15518222D02*
X13173515Y-15537269D01*
X13173515Y-15537269D02*
X13173515Y-15584888D01*
X13173515Y-15584888D02*
X13163991Y-15603936D01*
X13163991Y-15603936D02*
X13154468Y-15613460D01*
X13154468Y-15613460D02*
X13135420Y-15622984D01*
X13135420Y-15622984D02*
X13078277Y-15622984D01*
X13078277Y-15622984D02*
X13059229Y-15613460D01*
X13059229Y-15613460D02*
X13049706Y-15603936D01*
X13411610Y-15622984D02*
X13411610Y-15422984D01*
X13497325Y-15622984D02*
X13497325Y-15518222D01*
X13497325Y-15518222D02*
X13487801Y-15499174D01*
X13487801Y-15499174D02*
X13468753Y-15489650D01*
X13468753Y-15489650D02*
X13440182Y-15489650D01*
X13440182Y-15489650D02*
X13421134Y-15499174D01*
X13421134Y-15499174D02*
X13411610Y-15508698D01*
X13621134Y-15622984D02*
X13602087Y-15613460D01*
X13602087Y-15613460D02*
X13592563Y-15603936D01*
X13592563Y-15603936D02*
X13583039Y-15584888D01*
X13583039Y-15584888D02*
X13583039Y-15527746D01*
X13583039Y-15527746D02*
X13592563Y-15508698D01*
X13592563Y-15508698D02*
X13602087Y-15499174D01*
X13602087Y-15499174D02*
X13621134Y-15489650D01*
X13621134Y-15489650D02*
X13649706Y-15489650D01*
X13649706Y-15489650D02*
X13668753Y-15499174D01*
X13668753Y-15499174D02*
X13678277Y-15508698D01*
X13678277Y-15508698D02*
X13687801Y-15527746D01*
X13687801Y-15527746D02*
X13687801Y-15584888D01*
X13687801Y-15584888D02*
X13678277Y-15603936D01*
X13678277Y-15603936D02*
X13668753Y-15613460D01*
X13668753Y-15613460D02*
X13649706Y-15622984D01*
X13649706Y-15622984D02*
X13621134Y-15622984D01*
X13802087Y-15622984D02*
X13783039Y-15613460D01*
X13783039Y-15613460D02*
X13773515Y-15594412D01*
X13773515Y-15594412D02*
X13773515Y-15422984D01*
X13954468Y-15613460D02*
X13935420Y-15622984D01*
X13935420Y-15622984D02*
X13897325Y-15622984D01*
X13897325Y-15622984D02*
X13878277Y-15613460D01*
X13878277Y-15613460D02*
X13868753Y-15594412D01*
X13868753Y-15594412D02*
X13868753Y-15518222D01*
X13868753Y-15518222D02*
X13878277Y-15499174D01*
X13878277Y-15499174D02*
X13897325Y-15489650D01*
X13897325Y-15489650D02*
X13935420Y-15489650D01*
X13935420Y-15489650D02*
X13954468Y-15499174D01*
X13954468Y-15499174D02*
X13963991Y-15518222D01*
X13963991Y-15518222D02*
X13963991Y-15537269D01*
X13963991Y-15537269D02*
X13868753Y-15556317D01*
X14040182Y-15613460D02*
X14059230Y-15622984D01*
X14059230Y-15622984D02*
X14097325Y-15622984D01*
X14097325Y-15622984D02*
X14116372Y-15613460D01*
X14116372Y-15613460D02*
X14125896Y-15594412D01*
X14125896Y-15594412D02*
X14125896Y-15584888D01*
X14125896Y-15584888D02*
X14116372Y-15565841D01*
X14116372Y-15565841D02*
X14097325Y-15556317D01*
X14097325Y-15556317D02*
X14068753Y-15556317D01*
X14068753Y-15556317D02*
X14049706Y-15546793D01*
X14049706Y-15546793D02*
X14040182Y-15527746D01*
X14040182Y-15527746D02*
X14040182Y-15518222D01*
X14040182Y-15518222D02*
X14049706Y-15499174D01*
X14049706Y-15499174D02*
X14068753Y-15489650D01*
X14068753Y-15489650D02*
X14097325Y-15489650D01*
X14097325Y-15489650D02*
X14116372Y-15499174D01*
X14192563Y-15699174D02*
X14202087Y-15689650D01*
X14202087Y-15689650D02*
X14221134Y-15661079D01*
X14221134Y-15661079D02*
X14230658Y-15642031D01*
X14230658Y-15642031D02*
X14240182Y-15613460D01*
X14240182Y-15613460D02*
X14249706Y-15565841D01*
X14249706Y-15565841D02*
X14249706Y-15527746D01*
X14249706Y-15527746D02*
X14240182Y-15480127D01*
X14240182Y-15480127D02*
X14230658Y-15451555D01*
X14230658Y-15451555D02*
X14221134Y-15432508D01*
X14221134Y-15432508D02*
X14202087Y-15403936D01*
X14202087Y-15403936D02*
X14192563Y-15394412D01*
M02*
